%TF.GenerationSoftware,KiCad,Pcbnew,(6.0.0)*%
%TF.CreationDate,2022-01-10T21:54:35-05:00*%
%TF.ProjectId,ad74111_module,61643734-3131-4315-9f6d-6f64756c652e,rev?*%
%TF.SameCoordinates,Original*%
%TF.FileFunction,Soldermask,Bot*%
%TF.FilePolarity,Negative*%
%FSLAX46Y46*%
G04 Gerber Fmt 4.6, Leading zero omitted, Abs format (unit mm)*
G04 Created by KiCad (PCBNEW (6.0.0)) date 2022-01-10 21:54:35*
%MOMM*%
%LPD*%
G01*
G04 APERTURE LIST*
G04 Aperture macros list*
%AMRoundRect*
0 Rectangle with rounded corners*
0 $1 Rounding radius*
0 $2 $3 $4 $5 $6 $7 $8 $9 X,Y pos of 4 corners*
0 Add a 4 corners polygon primitive as box body*
4,1,4,$2,$3,$4,$5,$6,$7,$8,$9,$2,$3,0*
0 Add four circle primitives for the rounded corners*
1,1,$1+$1,$2,$3*
1,1,$1+$1,$4,$5*
1,1,$1+$1,$6,$7*
1,1,$1+$1,$8,$9*
0 Add four rect primitives between the rounded corners*
20,1,$1+$1,$2,$3,$4,$5,0*
20,1,$1+$1,$4,$5,$6,$7,0*
20,1,$1+$1,$6,$7,$8,$9,0*
20,1,$1+$1,$8,$9,$2,$3,0*%
G04 Aperture macros list end*
%ADD10R,1.700000X1.700000*%
%ADD11O,1.700000X1.700000*%
%ADD12C,1.700000*%
%ADD13RoundRect,0.225000X0.250000X-0.225000X0.250000X0.225000X-0.250000X0.225000X-0.250000X-0.225000X0*%
%ADD14RoundRect,0.225000X-0.225000X-0.250000X0.225000X-0.250000X0.225000X0.250000X-0.225000X0.250000X0*%
%ADD15RoundRect,0.150000X-0.512500X-0.150000X0.512500X-0.150000X0.512500X0.150000X-0.512500X0.150000X0*%
%ADD16RoundRect,0.225000X0.225000X0.250000X-0.225000X0.250000X-0.225000X-0.250000X0.225000X-0.250000X0*%
%ADD17RoundRect,0.250000X-0.312500X-0.625000X0.312500X-0.625000X0.312500X0.625000X-0.312500X0.625000X0*%
%ADD18RoundRect,0.225000X-0.250000X0.225000X-0.250000X-0.225000X0.250000X-0.225000X0.250000X0.225000X0*%
G04 APERTURE END LIST*
D10*
%TO.C,P4*%
X117602000Y-43942000D03*
D11*
X120142000Y-43942000D03*
X122682000Y-43942000D03*
X125222000Y-43942000D03*
X127762000Y-43942000D03*
X130302000Y-43942000D03*
X132842000Y-43942000D03*
X135382000Y-43942000D03*
%TD*%
D10*
%TO.C,P2*%
X103886000Y-46482000D03*
D11*
X103886000Y-49022000D03*
X103886000Y-51562000D03*
X103886000Y-54102000D03*
X103886000Y-56642000D03*
D12*
X103886000Y-59182000D03*
D11*
X101346000Y-46482000D03*
X101346000Y-49022000D03*
X101346000Y-51562000D03*
X101346000Y-54102000D03*
X101346000Y-56642000D03*
X101346000Y-59182000D03*
%TD*%
D10*
%TO.C,P1*%
X142494000Y-49022000D03*
D12*
X142494000Y-46482000D03*
%TD*%
D10*
%TO.C,P3*%
X142494000Y-59182000D03*
D12*
X142494000Y-56642000D03*
%TD*%
D13*
%TO.C,C11*%
X115062000Y-48781000D03*
X115062000Y-47231000D03*
%TD*%
D14*
%TO.C,C12*%
X123685000Y-48768000D03*
X125235000Y-48768000D03*
%TD*%
D15*
%TO.C,U2*%
X110114500Y-48194000D03*
X110114500Y-47244000D03*
X110114500Y-46294000D03*
X112389500Y-46294000D03*
X112389500Y-48194000D03*
%TD*%
D14*
%TO.C,R16*%
X136258000Y-57785000D03*
X137808000Y-57785000D03*
%TD*%
D16*
%TO.C,FB3*%
X117107000Y-51308000D03*
X115557000Y-51308000D03*
%TD*%
%TO.C,C14*%
X134252000Y-56007000D03*
X132702000Y-56007000D03*
%TD*%
D14*
%TO.C,R15*%
X132702000Y-57785000D03*
X134252000Y-57785000D03*
%TD*%
D16*
%TO.C,C9*%
X121171000Y-55372000D03*
X119621000Y-55372000D03*
%TD*%
D15*
%TO.C,U4*%
X110114500Y-61402000D03*
X110114500Y-60452000D03*
X110114500Y-59502000D03*
X112389500Y-59502000D03*
X112389500Y-61402000D03*
%TD*%
D16*
%TO.C,C10*%
X113551000Y-53340000D03*
X112001000Y-53340000D03*
%TD*%
%TO.C,C18*%
X134252000Y-54229000D03*
X132702000Y-54229000D03*
%TD*%
D13*
%TO.C,C15*%
X107442000Y-61989000D03*
X107442000Y-60439000D03*
%TD*%
D17*
%TO.C,C17*%
X123759500Y-56388000D03*
X126684500Y-56388000D03*
%TD*%
D13*
%TO.C,C8*%
X107442000Y-48781000D03*
X107442000Y-47231000D03*
%TD*%
D14*
%TO.C,C7*%
X115557000Y-55372000D03*
X117107000Y-55372000D03*
%TD*%
%TO.C,R4*%
X132702000Y-52451000D03*
X134252000Y-52451000D03*
%TD*%
%TO.C,C20*%
X132702000Y-59563000D03*
X134252000Y-59563000D03*
%TD*%
%TO.C,C13*%
X123685000Y-53594000D03*
X125235000Y-53594000D03*
%TD*%
D13*
%TO.C,C19*%
X115062000Y-61989000D03*
X115062000Y-60439000D03*
%TD*%
D14*
%TO.C,C16*%
X123685000Y-51181000D03*
X125235000Y-51181000D03*
%TD*%
D18*
%TO.C,FB4*%
X117602000Y-60439000D03*
X117602000Y-61989000D03*
%TD*%
M02*
