%TF.GenerationSoftware,KiCad,Pcbnew,(6.0.0)*%
%TF.CreationDate,2022-01-10T21:54:34-05:00*%
%TF.ProjectId,ad74111_module,61643734-3131-4315-9f6d-6f64756c652e,rev?*%
%TF.SameCoordinates,Original*%
%TF.FileFunction,Copper,L4,Bot*%
%TF.FilePolarity,Positive*%
%FSLAX46Y46*%
G04 Gerber Fmt 4.6, Leading zero omitted, Abs format (unit mm)*
G04 Created by KiCad (PCBNEW (6.0.0)) date 2022-01-10 21:54:34*
%MOMM*%
%LPD*%
G01*
G04 APERTURE LIST*
G04 Aperture macros list*
%AMRoundRect*
0 Rectangle with rounded corners*
0 $1 Rounding radius*
0 $2 $3 $4 $5 $6 $7 $8 $9 X,Y pos of 4 corners*
0 Add a 4 corners polygon primitive as box body*
4,1,4,$2,$3,$4,$5,$6,$7,$8,$9,$2,$3,0*
0 Add four circle primitives for the rounded corners*
1,1,$1+$1,$2,$3*
1,1,$1+$1,$4,$5*
1,1,$1+$1,$6,$7*
1,1,$1+$1,$8,$9*
0 Add four rect primitives between the rounded corners*
20,1,$1+$1,$2,$3,$4,$5,0*
20,1,$1+$1,$4,$5,$6,$7,0*
20,1,$1+$1,$6,$7,$8,$9,0*
20,1,$1+$1,$8,$9,$2,$3,0*%
G04 Aperture macros list end*
%TA.AperFunction,ComponentPad*%
%ADD10R,1.700000X1.700000*%
%TD*%
%TA.AperFunction,ComponentPad*%
%ADD11O,1.700000X1.700000*%
%TD*%
%TA.AperFunction,ComponentPad*%
%ADD12C,1.700000*%
%TD*%
%TA.AperFunction,SMDPad,CuDef*%
%ADD13RoundRect,0.225000X0.250000X-0.225000X0.250000X0.225000X-0.250000X0.225000X-0.250000X-0.225000X0*%
%TD*%
%TA.AperFunction,SMDPad,CuDef*%
%ADD14RoundRect,0.225000X-0.225000X-0.250000X0.225000X-0.250000X0.225000X0.250000X-0.225000X0.250000X0*%
%TD*%
%TA.AperFunction,SMDPad,CuDef*%
%ADD15RoundRect,0.150000X-0.512500X-0.150000X0.512500X-0.150000X0.512500X0.150000X-0.512500X0.150000X0*%
%TD*%
%TA.AperFunction,SMDPad,CuDef*%
%ADD16RoundRect,0.225000X0.225000X0.250000X-0.225000X0.250000X-0.225000X-0.250000X0.225000X-0.250000X0*%
%TD*%
%TA.AperFunction,SMDPad,CuDef*%
%ADD17RoundRect,0.250000X-0.312500X-0.625000X0.312500X-0.625000X0.312500X0.625000X-0.312500X0.625000X0*%
%TD*%
%TA.AperFunction,SMDPad,CuDef*%
%ADD18RoundRect,0.225000X-0.250000X0.225000X-0.250000X-0.225000X0.250000X-0.225000X0.250000X0.225000X0*%
%TD*%
%TA.AperFunction,ViaPad*%
%ADD19C,0.800000*%
%TD*%
%TA.AperFunction,Conductor*%
%ADD20C,0.250000*%
%TD*%
%TA.AperFunction,Conductor*%
%ADD21C,0.254000*%
%TD*%
%TA.AperFunction,Conductor*%
%ADD22C,0.635000*%
%TD*%
G04 APERTURE END LIST*
D10*
%TO.P,P4,1,Pin_1*%
%TO.N,+3V3*%
X117602000Y-43942000D03*
D11*
%TO.P,P4,2,Pin_2*%
%TO.N,/mclk*%
X120142000Y-43942000D03*
%TO.P,P4,3,Pin_3*%
%TO.N,/dclk*%
X122682000Y-43942000D03*
%TO.P,P4,4,Pin_4*%
%TO.N,/din*%
X125222000Y-43942000D03*
%TO.P,P4,5,Pin_5*%
%TO.N,/dfs*%
X127762000Y-43942000D03*
%TO.P,P4,6,Pin_6*%
%TO.N,/dout*%
X130302000Y-43942000D03*
%TO.P,P4,7,Pin_7*%
%TO.N,/~{reset}*%
X132842000Y-43942000D03*
%TO.P,P4,8,Pin_8*%
%TO.N,GNDD*%
X135382000Y-43942000D03*
%TD*%
D10*
%TO.P,P2,1,Pin_1*%
%TO.N,Net-(P2-Pad1)*%
X103886000Y-46482000D03*
D11*
%TO.P,P2,2,Pin_2*%
%TO.N,Net-(P2-Pad2)*%
X103886000Y-49022000D03*
%TO.P,P2,3,Pin_3*%
%TO.N,Net-(P2-Pad3)*%
X103886000Y-51562000D03*
%TO.P,P2,4,Pin_4*%
%TO.N,Net-(P2-Pad4)*%
X103886000Y-54102000D03*
%TO.P,P2,5,Pin_5*%
%TO.N,GNDD*%
X103886000Y-56642000D03*
D12*
%TO.P,P2,6,Pin_6*%
%TO.N,/3v3_in*%
X103886000Y-59182000D03*
D11*
%TO.P,P2,7,Pin_7*%
%TO.N,Net-(P2-Pad7)*%
X101346000Y-46482000D03*
%TO.P,P2,8,Pin_8*%
%TO.N,unconnected-(P2-Pad8)*%
X101346000Y-49022000D03*
%TO.P,P2,9,Pin_9*%
%TO.N,unconnected-(P2-Pad9)*%
X101346000Y-51562000D03*
%TO.P,P2,10,Pin_10*%
%TO.N,Net-(P2-Pad10)*%
X101346000Y-54102000D03*
%TO.P,P2,11,Pin_11*%
%TO.N,GNDD*%
X101346000Y-56642000D03*
%TO.P,P2,12,Pin_12*%
%TO.N,/3v3_in*%
X101346000Y-59182000D03*
%TD*%
D10*
%TO.P,P1,1,Pin_1*%
%TO.N,/audio_in*%
X142494000Y-49022000D03*
D12*
%TO.P,P1,2,Pin_2*%
%TO.N,GNDA*%
X142494000Y-46482000D03*
%TD*%
D10*
%TO.P,P3,1,Pin_1*%
%TO.N,/audio_out*%
X142494000Y-59182000D03*
D12*
%TO.P,P3,2,Pin_2*%
%TO.N,GNDA*%
X142494000Y-56642000D03*
%TD*%
D13*
%TO.P,C11,1*%
%TO.N,Net-(C11-Pad1)*%
X115062000Y-48781000D03*
%TO.P,C11,2*%
%TO.N,GNDD*%
X115062000Y-47231000D03*
%TD*%
D14*
%TO.P,C12,1*%
%TO.N,+3V3*%
X123685000Y-48768000D03*
%TO.P,C12,2*%
%TO.N,GNDD*%
X125235000Y-48768000D03*
%TD*%
D15*
%TO.P,U2,1,IN*%
%TO.N,+3V3*%
X110114500Y-48194000D03*
%TO.P,U2,2,GND*%
%TO.N,GNDD*%
X110114500Y-47244000D03*
%TO.P,U2,3,EN*%
%TO.N,+3V3*%
X110114500Y-46294000D03*
%TO.P,U2,4,NC*%
%TO.N,unconnected-(U2-Pad4)*%
X112389500Y-46294000D03*
%TO.P,U2,5,OUT*%
%TO.N,Net-(C11-Pad1)*%
X112389500Y-48194000D03*
%TD*%
D14*
%TO.P,R16,1*%
%TO.N,/vbias*%
X136258000Y-57785000D03*
%TO.P,R16,2*%
%TO.N,GNDA*%
X137808000Y-57785000D03*
%TD*%
D16*
%TO.P,FB3,1*%
%TO.N,+2V5*%
X117107000Y-51308000D03*
%TO.P,FB3,2*%
%TO.N,Net-(C11-Pad1)*%
X115557000Y-51308000D03*
%TD*%
%TO.P,C14,1*%
%TO.N,/vbias*%
X134252000Y-56007000D03*
%TO.P,C14,2*%
%TO.N,GNDA*%
X132702000Y-56007000D03*
%TD*%
D14*
%TO.P,R15,1*%
%TO.N,VAA*%
X132702000Y-57785000D03*
%TO.P,R15,2*%
%TO.N,/vbias*%
X134252000Y-57785000D03*
%TD*%
D16*
%TO.P,C9,1*%
%TO.N,Net-(C9-Pad1)*%
X121171000Y-55372000D03*
%TO.P,C9,2*%
%TO.N,GNDA*%
X119621000Y-55372000D03*
%TD*%
D15*
%TO.P,U4,1,IN*%
%TO.N,+3V3*%
X110114500Y-61402000D03*
%TO.P,U4,2,GND*%
%TO.N,GNDA*%
X110114500Y-60452000D03*
%TO.P,U4,3,EN*%
%TO.N,+3V3*%
X110114500Y-59502000D03*
%TO.P,U4,4,NC*%
%TO.N,unconnected-(U4-Pad4)*%
X112389500Y-59502000D03*
%TO.P,U4,5,OUT*%
%TO.N,Net-(C19-Pad1)*%
X112389500Y-61402000D03*
%TD*%
D16*
%TO.P,C10,1*%
%TO.N,VAA*%
X113551000Y-53340000D03*
%TO.P,C10,2*%
%TO.N,GNDA*%
X112001000Y-53340000D03*
%TD*%
%TO.P,C18,1*%
%TO.N,/vbias*%
X134252000Y-54229000D03*
%TO.P,C18,2*%
%TO.N,GNDA*%
X132702000Y-54229000D03*
%TD*%
D13*
%TO.P,C15,1*%
%TO.N,+3V3*%
X107442000Y-61989000D03*
%TO.P,C15,2*%
%TO.N,GNDA*%
X107442000Y-60439000D03*
%TD*%
D17*
%TO.P,C17,1*%
%TO.N,Net-(C13-Pad1)*%
X123759500Y-56388000D03*
%TO.P,C17,2*%
%TO.N,GNDA*%
X126684500Y-56388000D03*
%TD*%
D13*
%TO.P,C8,1*%
%TO.N,+3V3*%
X107442000Y-48781000D03*
%TO.P,C8,2*%
%TO.N,GNDD*%
X107442000Y-47231000D03*
%TD*%
D14*
%TO.P,C7,1*%
%TO.N,Net-(C7-Pad1)*%
X115557000Y-55372000D03*
%TO.P,C7,2*%
%TO.N,GNDA*%
X117107000Y-55372000D03*
%TD*%
%TO.P,R4,1*%
%TO.N,/vbias*%
X132702000Y-52451000D03*
%TO.P,R4,2*%
%TO.N,Net-(C1-Pad2)*%
X134252000Y-52451000D03*
%TD*%
%TO.P,C20,1*%
%TO.N,VAA*%
X132702000Y-59563000D03*
%TO.P,C20,2*%
%TO.N,GNDA*%
X134252000Y-59563000D03*
%TD*%
%TO.P,C13,1*%
%TO.N,Net-(C13-Pad1)*%
X123685000Y-53594000D03*
%TO.P,C13,2*%
%TO.N,GNDA*%
X125235000Y-53594000D03*
%TD*%
D13*
%TO.P,C19,1*%
%TO.N,Net-(C19-Pad1)*%
X115062000Y-61989000D03*
%TO.P,C19,2*%
%TO.N,GNDA*%
X115062000Y-60439000D03*
%TD*%
D14*
%TO.P,C16,1*%
%TO.N,+2V5*%
X123685000Y-51181000D03*
%TO.P,C16,2*%
%TO.N,GNDD*%
X125235000Y-51181000D03*
%TD*%
D18*
%TO.P,FB4,1*%
%TO.N,VAA*%
X117602000Y-60439000D03*
%TO.P,FB4,2*%
%TO.N,Net-(C19-Pad1)*%
X117602000Y-61989000D03*
%TD*%
D19*
%TO.N,Net-(C1-Pad2)*%
X135369000Y-53353000D03*
%TO.N,GNDA*%
X130978811Y-56754378D03*
X128778000Y-52578000D03*
X136398000Y-62230000D03*
X119888000Y-52070000D03*
X137160000Y-56896000D03*
X112268000Y-57912000D03*
X127762000Y-56388000D03*
X135382000Y-48006000D03*
X118364000Y-55118000D03*
X112272299Y-54614299D03*
X112014000Y-60452000D03*
X123190000Y-58166000D03*
X115062000Y-59436000D03*
X132842000Y-50165000D03*
X116586000Y-57208500D03*
X111506000Y-57912000D03*
X126238000Y-53594000D03*
X135128000Y-59563000D03*
X126238000Y-59182000D03*
X113030000Y-57912000D03*
%TO.N,Net-(C7-Pad1)*%
X116840000Y-54102000D03*
%TO.N,Net-(C9-Pad1)*%
X119888000Y-54102000D03*
%TO.N,VAA*%
X114226619Y-52798822D03*
X132846299Y-60701701D03*
%TO.N,+3V3*%
X122682000Y-49911000D03*
X110490000Y-62738000D03*
X111252000Y-62738000D03*
X112014000Y-62738000D03*
%TO.N,GNDD*%
X119888000Y-51054000D03*
X125429500Y-50038000D03*
X113792000Y-47244000D03*
%TO.N,+2V5*%
X122682000Y-51054000D03*
%TO.N,Net-(C13-Pad1)*%
X122682000Y-52578000D03*
%TO.N,/mclk*%
X119900294Y-49542294D03*
%TD*%
D20*
%TO.N,Net-(C1-Pad2)*%
X135369000Y-53327000D02*
X135369000Y-53353000D01*
X134493000Y-52451000D02*
X135369000Y-53327000D01*
D21*
%TO.N,GNDA*%
X112001000Y-54343000D02*
X112001000Y-53340000D01*
X118364000Y-55372000D02*
X117107000Y-55372000D01*
X115062000Y-60439000D02*
X115062000Y-59436000D01*
X119621000Y-55372000D02*
X118364000Y-55372000D01*
D20*
X137808000Y-57544000D02*
X137160000Y-56896000D01*
X127762000Y-56388000D02*
X126684500Y-56388000D01*
X110114500Y-60452000D02*
X112014000Y-60452000D01*
D22*
X112014000Y-60452000D02*
X115048995Y-60452000D01*
D20*
X134252000Y-59563000D02*
X135128000Y-59563000D01*
X132702000Y-56007000D02*
X131726189Y-56007000D01*
D21*
X112272299Y-54614299D02*
X112001000Y-54343000D01*
D20*
X126238000Y-53594000D02*
X125489000Y-53594000D01*
D21*
X118364000Y-55372000D02*
X118364000Y-55118000D01*
D22*
X112014000Y-60452000D02*
X107455005Y-60452000D01*
D20*
X132702000Y-54229000D02*
X132702000Y-56007000D01*
X131726189Y-56007000D02*
X130978811Y-56754378D01*
D21*
%TO.N,Net-(C7-Pad1)*%
X116827000Y-54102000D02*
X115557000Y-55372000D01*
X116840000Y-54102000D02*
X116827000Y-54102000D01*
%TO.N,Net-(C9-Pad1)*%
X119901000Y-54102000D02*
X121171000Y-55372000D01*
X119888000Y-54102000D02*
X119901000Y-54102000D01*
%TO.N,VAA*%
X132846299Y-60701701D02*
X132846299Y-59707299D01*
D22*
X132702000Y-59563000D02*
X131699000Y-59563000D01*
X114059000Y-56896000D02*
X114046000Y-56896000D01*
X117602000Y-60439000D02*
X114059000Y-56896000D01*
X114046000Y-53835000D02*
X113551000Y-53340000D01*
X130810000Y-60452000D02*
X130797000Y-60439000D01*
X132702000Y-59563000D02*
X132702000Y-57785000D01*
X131699000Y-59563000D02*
X130810000Y-60452000D01*
X114046000Y-56896000D02*
X114046000Y-53835000D01*
X130797000Y-60439000D02*
X117602000Y-60439000D01*
D21*
X114226619Y-52798822D02*
X114092178Y-52798822D01*
X114092178Y-52798822D02*
X113551000Y-53340000D01*
D20*
%TO.N,+3V3*%
X122682000Y-49911000D02*
X123685000Y-48908000D01*
D22*
%TO.N,GNDD*%
X110114500Y-47244000D02*
X107455000Y-47244000D01*
D21*
X113792000Y-47244000D02*
X115049000Y-47244000D01*
D22*
X125235000Y-50232500D02*
X125429500Y-50038000D01*
X110114500Y-47244000D02*
X115049000Y-47244000D01*
X125235000Y-48768000D02*
X125235000Y-51181000D01*
%TO.N,Net-(C11-Pad1)*%
X113551000Y-48781000D02*
X115062000Y-48781000D01*
X112964000Y-48194000D02*
X113551000Y-48781000D01*
X112389500Y-48194000D02*
X112964000Y-48194000D01*
X115062000Y-49784000D02*
X115062000Y-48781000D01*
X115557000Y-51308000D02*
X115557000Y-50279000D01*
X115557000Y-50279000D02*
X115062000Y-49784000D01*
D20*
%TO.N,+2V5*%
X122428000Y-51054000D02*
X120650000Y-52832000D01*
X118631000Y-52832000D02*
X117107000Y-51308000D01*
X120650000Y-52832000D02*
X118631000Y-52832000D01*
X122809000Y-51181000D02*
X123685000Y-51181000D01*
X122682000Y-51054000D02*
X122428000Y-51054000D01*
X122682000Y-51054000D02*
X122809000Y-51181000D01*
%TO.N,Net-(C13-Pad1)*%
X123759500Y-53414500D02*
X123759500Y-55626000D01*
X122682000Y-52578000D02*
X122923000Y-52578000D01*
X122923000Y-52578000D02*
X123759500Y-53414500D01*
D22*
%TO.N,Net-(C19-Pad1)*%
X112837011Y-61402011D02*
X112710011Y-61402011D01*
X113424005Y-61989005D02*
X112837011Y-61402011D01*
X117601995Y-61989005D02*
X113424005Y-61989005D01*
D20*
%TO.N,/vbias*%
X132702000Y-52679000D02*
X134252000Y-54229000D01*
X134252000Y-54229000D02*
X134252000Y-56007000D01*
X134252000Y-56007000D02*
X134252000Y-57785000D01*
X136258000Y-57785000D02*
X134252000Y-57785000D01*
%TD*%
%TA.AperFunction,Conductor*%
%TO.N,+3V3*%
G36*
X117798121Y-42311002D02*
G01*
X117844614Y-42364658D01*
X117856000Y-42417000D01*
X117856000Y-45466000D01*
X121613810Y-45466000D01*
X121681931Y-45486002D01*
X121702905Y-45502905D01*
X123902095Y-47702095D01*
X123936121Y-47764407D01*
X123939000Y-47791190D01*
X123939000Y-49732885D01*
X123946896Y-49759776D01*
X123952000Y-49795274D01*
X123952000Y-49912000D01*
X123931998Y-49980121D01*
X123878342Y-50026614D01*
X123826000Y-50038000D01*
X120867906Y-50038000D01*
X120799785Y-50017998D01*
X120753292Y-49964342D01*
X120743188Y-49894068D01*
X120748071Y-49873070D01*
X120793836Y-49732222D01*
X120796868Y-49703380D01*
X120813108Y-49548859D01*
X120813798Y-49542294D01*
X120806155Y-49469574D01*
X120794526Y-49358929D01*
X120794526Y-49358927D01*
X120793836Y-49352366D01*
X120734821Y-49170738D01*
X120729884Y-49162186D01*
X120672871Y-49063438D01*
X122727000Y-49063438D01*
X122727337Y-49069953D01*
X122736894Y-49162057D01*
X122739788Y-49175456D01*
X122789381Y-49324107D01*
X122795555Y-49337286D01*
X122877788Y-49470173D01*
X122886824Y-49481574D01*
X122997429Y-49591986D01*
X123008840Y-49600998D01*
X123141880Y-49683004D01*
X123155061Y-49689151D01*
X123303814Y-49738491D01*
X123317190Y-49741358D01*
X123408097Y-49750672D01*
X123413126Y-49750929D01*
X123428124Y-49746525D01*
X123429329Y-49745135D01*
X123431000Y-49737452D01*
X123431000Y-49040115D01*
X123426525Y-49024876D01*
X123425135Y-49023671D01*
X123417452Y-49022000D01*
X122745115Y-49022000D01*
X122729876Y-49026475D01*
X122728671Y-49027865D01*
X122727000Y-49035548D01*
X122727000Y-49063438D01*
X120672871Y-49063438D01*
X120669704Y-49057953D01*
X120666881Y-49053062D01*
X120650000Y-48990063D01*
X120650000Y-48768000D01*
X120418567Y-48768000D01*
X120357784Y-48751712D01*
X120357046Y-48751176D01*
X120351017Y-48748492D01*
X120351014Y-48748490D01*
X120188613Y-48676185D01*
X120188612Y-48676185D01*
X120182582Y-48673500D01*
X120089182Y-48653647D01*
X120002238Y-48635166D01*
X120002233Y-48635166D01*
X119995781Y-48633794D01*
X119804807Y-48633794D01*
X119798355Y-48635166D01*
X119798350Y-48635166D01*
X119711406Y-48653647D01*
X119618006Y-48673500D01*
X119611976Y-48676185D01*
X119611975Y-48676185D01*
X119449574Y-48748490D01*
X119449571Y-48748492D01*
X119443542Y-48751176D01*
X119442804Y-48751712D01*
X119382021Y-48768000D01*
X117405952Y-48768000D01*
X117337831Y-48747998D01*
X117310286Y-48724000D01*
X117114759Y-48495885D01*
X122727000Y-48495885D01*
X122731475Y-48511124D01*
X122732865Y-48512329D01*
X122740548Y-48514000D01*
X123412885Y-48514000D01*
X123428124Y-48509525D01*
X123429329Y-48508135D01*
X123431000Y-48500452D01*
X123431000Y-47803115D01*
X123426525Y-47787876D01*
X123425135Y-47786671D01*
X123417452Y-47785000D01*
X123414562Y-47785000D01*
X123408047Y-47785337D01*
X123315943Y-47794894D01*
X123302544Y-47797788D01*
X123153893Y-47847381D01*
X123140714Y-47853555D01*
X123007827Y-47935788D01*
X122996426Y-47944824D01*
X122886014Y-48055429D01*
X122877002Y-48066840D01*
X122794996Y-48199880D01*
X122788849Y-48213061D01*
X122739509Y-48361814D01*
X122736642Y-48375190D01*
X122727328Y-48466097D01*
X122727000Y-48472514D01*
X122727000Y-48495885D01*
X117114759Y-48495885D01*
X116812850Y-48143658D01*
X116075833Y-47283806D01*
X116046688Y-47219068D01*
X116045500Y-47201807D01*
X116045500Y-46957268D01*
X116034887Y-46854981D01*
X116023304Y-46820263D01*
X115983073Y-46699676D01*
X115983072Y-46699674D01*
X115980756Y-46692732D01*
X115890752Y-46547287D01*
X115769702Y-46426448D01*
X115738325Y-46407107D01*
X115630331Y-46340538D01*
X115630329Y-46340537D01*
X115624101Y-46336698D01*
X115461757Y-46282851D01*
X115454920Y-46282151D01*
X115454918Y-46282150D01*
X115413599Y-46277917D01*
X115360732Y-46272500D01*
X114763268Y-46272500D01*
X114760022Y-46272837D01*
X114760018Y-46272837D01*
X114725917Y-46276375D01*
X114660981Y-46283113D01*
X114654440Y-46285295D01*
X114654441Y-46285295D01*
X114505676Y-46334927D01*
X114505674Y-46334928D01*
X114498732Y-46337244D01*
X114492508Y-46341096D01*
X114492507Y-46341096D01*
X114398703Y-46399144D01*
X114332400Y-46418000D01*
X114197188Y-46418000D01*
X114145939Y-46407107D01*
X114080319Y-46377891D01*
X114080318Y-46377891D01*
X114074288Y-46375206D01*
X113980887Y-46355353D01*
X113893944Y-46336872D01*
X113893939Y-46336872D01*
X113887487Y-46335500D01*
X113696513Y-46335500D01*
X113696513Y-46335283D01*
X113629839Y-46323094D01*
X113577989Y-46274595D01*
X113560500Y-46210553D01*
X113560500Y-46077498D01*
X113557562Y-46040169D01*
X113528528Y-45940231D01*
X113513357Y-45888012D01*
X113513356Y-45888010D01*
X113511145Y-45880399D01*
X113434515Y-45750825D01*
X113430491Y-45744020D01*
X113430489Y-45744017D01*
X113426453Y-45737193D01*
X113308807Y-45619547D01*
X113301983Y-45615511D01*
X113301980Y-45615509D01*
X113172427Y-45538892D01*
X113172428Y-45538892D01*
X113165601Y-45534855D01*
X113157990Y-45532644D01*
X113157988Y-45532643D01*
X113105769Y-45517472D01*
X113005831Y-45488438D01*
X112999426Y-45487934D01*
X112999421Y-45487933D01*
X112970958Y-45485693D01*
X112970950Y-45485693D01*
X112968502Y-45485500D01*
X111810498Y-45485500D01*
X111808050Y-45485693D01*
X111808042Y-45485693D01*
X111779579Y-45487933D01*
X111779574Y-45487934D01*
X111773169Y-45488438D01*
X111673231Y-45517472D01*
X111621012Y-45532643D01*
X111621010Y-45532644D01*
X111613399Y-45534855D01*
X111606572Y-45538892D01*
X111606573Y-45538892D01*
X111477020Y-45615509D01*
X111477017Y-45615511D01*
X111470193Y-45619547D01*
X111352547Y-45737193D01*
X111350107Y-45741319D01*
X111293680Y-45782066D01*
X111222788Y-45785914D01*
X111161069Y-45750825D01*
X111152123Y-45740500D01*
X111145448Y-45731895D01*
X111039104Y-45625551D01*
X111026678Y-45615911D01*
X110897221Y-45539352D01*
X110882790Y-45533107D01*
X110736935Y-45490731D01*
X110724333Y-45488430D01*
X110695916Y-45486193D01*
X110690986Y-45486000D01*
X110386615Y-45486000D01*
X110371376Y-45490475D01*
X110370171Y-45491865D01*
X110368500Y-45499548D01*
X110368500Y-46292000D01*
X110348498Y-46360121D01*
X110294842Y-46406614D01*
X110242500Y-46418000D01*
X108171711Y-46418000D01*
X108105595Y-46399260D01*
X108010331Y-46340538D01*
X108010329Y-46340537D01*
X108004101Y-46336698D01*
X107841757Y-46282851D01*
X107834920Y-46282151D01*
X107834918Y-46282150D01*
X107793599Y-46277917D01*
X107740732Y-46272500D01*
X107143268Y-46272500D01*
X107140022Y-46272837D01*
X107140018Y-46272837D01*
X107105917Y-46276375D01*
X107040981Y-46283113D01*
X107034440Y-46285295D01*
X107034441Y-46285295D01*
X106885676Y-46334927D01*
X106885674Y-46334928D01*
X106878732Y-46337244D01*
X106872508Y-46341096D01*
X106872507Y-46341096D01*
X106748232Y-46418000D01*
X106733287Y-46427248D01*
X106612448Y-46548298D01*
X106608608Y-46554528D01*
X106608607Y-46554529D01*
X106527255Y-46686507D01*
X106522698Y-46693899D01*
X106468851Y-46856243D01*
X106458500Y-46957268D01*
X106458500Y-47504732D01*
X106469113Y-47607019D01*
X106523244Y-47769268D01*
X106613248Y-47914713D01*
X106618430Y-47919886D01*
X106622977Y-47925623D01*
X106621170Y-47927055D01*
X106649902Y-47979575D01*
X106644892Y-48050395D01*
X106621501Y-48086853D01*
X106622552Y-48087683D01*
X106609002Y-48104840D01*
X106526996Y-48237880D01*
X106520849Y-48251061D01*
X106471509Y-48399814D01*
X106468642Y-48413190D01*
X106459328Y-48504097D01*
X106459071Y-48509126D01*
X106463475Y-48524124D01*
X106464865Y-48525329D01*
X106472548Y-48527000D01*
X108406885Y-48527000D01*
X108422124Y-48522525D01*
X108423329Y-48521135D01*
X108425000Y-48513452D01*
X108425000Y-48510562D01*
X108424663Y-48504047D01*
X108420079Y-48459871D01*
X108950456Y-48459871D01*
X108991107Y-48599790D01*
X108997352Y-48614221D01*
X109073911Y-48743678D01*
X109083551Y-48756104D01*
X109189896Y-48862449D01*
X109202322Y-48872089D01*
X109331779Y-48948648D01*
X109346210Y-48954893D01*
X109492065Y-48997269D01*
X109504667Y-48999570D01*
X109533084Y-49001807D01*
X109538014Y-49002000D01*
X109842385Y-49002000D01*
X109857624Y-48997525D01*
X109858829Y-48996135D01*
X109860500Y-48988452D01*
X109860500Y-48466115D01*
X109856025Y-48450876D01*
X109854635Y-48449671D01*
X109846952Y-48448000D01*
X108965122Y-48448000D01*
X108951591Y-48451973D01*
X108950456Y-48459871D01*
X108420079Y-48459871D01*
X108415106Y-48411943D01*
X108412212Y-48398544D01*
X108362619Y-48249894D01*
X108362415Y-48249458D01*
X108362365Y-48249131D01*
X108360301Y-48242945D01*
X108361359Y-48242592D01*
X108351627Y-48179285D01*
X108380488Y-48114420D01*
X108439837Y-48075456D01*
X108476513Y-48070000D01*
X110242500Y-48070000D01*
X110310621Y-48090002D01*
X110357114Y-48143658D01*
X110368500Y-48196000D01*
X110368500Y-48983884D01*
X110372975Y-48999123D01*
X110374365Y-49000328D01*
X110382048Y-49001999D01*
X110618000Y-49001999D01*
X110686121Y-49022001D01*
X110732614Y-49075657D01*
X110744000Y-49127999D01*
X110744000Y-57381063D01*
X110727119Y-57444062D01*
X110671473Y-57540444D01*
X110612458Y-57722072D01*
X110611768Y-57728633D01*
X110611768Y-57728635D01*
X110608416Y-57760526D01*
X110592496Y-57912000D01*
X110612458Y-58101928D01*
X110671473Y-58283556D01*
X110674776Y-58289278D01*
X110674777Y-58289279D01*
X110727119Y-58379937D01*
X110744000Y-58442937D01*
X110744000Y-58568000D01*
X110723998Y-58636121D01*
X110670342Y-58682614D01*
X110618000Y-58694000D01*
X110386615Y-58694000D01*
X110371376Y-58698475D01*
X110370171Y-58699865D01*
X110368500Y-58707548D01*
X110368500Y-59500000D01*
X110348498Y-59568121D01*
X110294842Y-59614614D01*
X110242500Y-59626000D01*
X108171711Y-59626000D01*
X108105595Y-59607260D01*
X108010331Y-59548538D01*
X108010329Y-59548537D01*
X108004101Y-59544698D01*
X107841757Y-59490851D01*
X107834920Y-59490151D01*
X107834918Y-59490150D01*
X107793599Y-59485917D01*
X107740732Y-59480500D01*
X107143268Y-59480500D01*
X107140022Y-59480837D01*
X107140018Y-59480837D01*
X107105917Y-59484375D01*
X107040981Y-59491113D01*
X107034440Y-59493295D01*
X107034441Y-59493295D01*
X106885676Y-59542927D01*
X106885674Y-59542928D01*
X106878732Y-59545244D01*
X106733287Y-59635248D01*
X106612448Y-59756298D01*
X106522698Y-59901899D01*
X106468851Y-60064243D01*
X106458500Y-60165268D01*
X106458500Y-60712732D01*
X106469113Y-60815019D01*
X106523244Y-60977268D01*
X106527096Y-60983492D01*
X106527096Y-60983493D01*
X106609394Y-61116485D01*
X106613248Y-61122713D01*
X106618430Y-61127886D01*
X106622977Y-61133623D01*
X106621170Y-61135055D01*
X106649902Y-61187575D01*
X106644892Y-61258395D01*
X106621501Y-61294853D01*
X106622552Y-61295683D01*
X106609002Y-61312840D01*
X106526996Y-61445880D01*
X106520849Y-61459061D01*
X106471509Y-61607814D01*
X106468642Y-61621190D01*
X106459328Y-61712097D01*
X106459071Y-61717126D01*
X106463475Y-61732124D01*
X106464865Y-61733329D01*
X106472548Y-61735000D01*
X108406885Y-61735000D01*
X108422124Y-61730525D01*
X108423329Y-61729135D01*
X108425000Y-61721452D01*
X108425000Y-61718562D01*
X108424663Y-61712047D01*
X108420079Y-61667871D01*
X108950456Y-61667871D01*
X108991107Y-61807790D01*
X108997352Y-61822221D01*
X109073911Y-61951678D01*
X109083551Y-61964104D01*
X109189896Y-62070449D01*
X109202322Y-62080089D01*
X109331779Y-62156648D01*
X109346210Y-62162893D01*
X109492065Y-62205269D01*
X109504667Y-62207570D01*
X109533084Y-62209807D01*
X109538014Y-62210000D01*
X109842385Y-62210000D01*
X109857624Y-62205525D01*
X109858829Y-62204135D01*
X109860500Y-62196452D01*
X109860500Y-61674115D01*
X109856025Y-61658876D01*
X109854635Y-61657671D01*
X109846952Y-61656000D01*
X108965122Y-61656000D01*
X108951591Y-61659973D01*
X108950456Y-61667871D01*
X108420079Y-61667871D01*
X108415106Y-61619943D01*
X108412212Y-61606544D01*
X108362619Y-61457894D01*
X108362415Y-61457458D01*
X108362365Y-61457131D01*
X108360301Y-61450945D01*
X108361359Y-61450592D01*
X108351627Y-61387285D01*
X108380488Y-61322420D01*
X108439837Y-61283456D01*
X108476513Y-61278000D01*
X110242500Y-61278000D01*
X110310621Y-61298002D01*
X110357114Y-61351658D01*
X110368500Y-61404000D01*
X110368500Y-62191884D01*
X110372975Y-62207123D01*
X110374365Y-62208328D01*
X110382048Y-62209999D01*
X110690984Y-62209999D01*
X110695920Y-62209805D01*
X110724336Y-62207570D01*
X110736931Y-62205270D01*
X110882790Y-62162893D01*
X110897221Y-62156648D01*
X111026678Y-62080089D01*
X111039104Y-62070449D01*
X111096648Y-62012905D01*
X111158960Y-61978879D01*
X111185743Y-61976000D01*
X111317550Y-61976000D01*
X111385671Y-61996002D01*
X111406645Y-62012905D01*
X111470193Y-62076453D01*
X111477017Y-62080489D01*
X111477020Y-62080491D01*
X111584589Y-62144107D01*
X111613399Y-62161145D01*
X111621010Y-62163356D01*
X111621012Y-62163357D01*
X111673231Y-62178528D01*
X111773169Y-62207562D01*
X111779574Y-62208066D01*
X111779579Y-62208067D01*
X111808042Y-62210307D01*
X111808050Y-62210307D01*
X111810498Y-62210500D01*
X112425168Y-62210500D01*
X112493289Y-62230502D01*
X112514263Y-62247404D01*
X112811626Y-62544766D01*
X112818769Y-62552534D01*
X112846614Y-62585485D01*
X112846617Y-62585488D01*
X112851020Y-62590698D01*
X112856442Y-62594844D01*
X112858250Y-62596565D01*
X112872158Y-62612211D01*
X113196300Y-63044400D01*
X113221171Y-63110898D01*
X113206142Y-63180285D01*
X113155985Y-63230533D01*
X113095500Y-63246000D01*
X105790000Y-63246000D01*
X105721879Y-63225998D01*
X105675386Y-63172342D01*
X105664000Y-63120000D01*
X105664000Y-62259438D01*
X106459000Y-62259438D01*
X106459337Y-62265953D01*
X106468894Y-62358057D01*
X106471788Y-62371456D01*
X106521381Y-62520107D01*
X106527555Y-62533286D01*
X106609788Y-62666173D01*
X106618824Y-62677574D01*
X106729429Y-62787986D01*
X106740840Y-62796998D01*
X106873880Y-62879004D01*
X106887061Y-62885151D01*
X107035814Y-62934491D01*
X107049190Y-62937358D01*
X107140097Y-62946672D01*
X107146513Y-62947000D01*
X107169885Y-62947000D01*
X107185124Y-62942525D01*
X107186329Y-62941135D01*
X107188000Y-62933452D01*
X107188000Y-62928885D01*
X107696000Y-62928885D01*
X107700475Y-62944124D01*
X107701865Y-62945329D01*
X107709548Y-62947000D01*
X107737438Y-62947000D01*
X107743953Y-62946663D01*
X107836057Y-62937106D01*
X107849456Y-62934212D01*
X107998107Y-62884619D01*
X108011286Y-62878445D01*
X108144173Y-62796212D01*
X108155574Y-62787176D01*
X108265986Y-62676571D01*
X108274998Y-62665160D01*
X108357004Y-62532120D01*
X108363151Y-62518939D01*
X108412491Y-62370186D01*
X108415358Y-62356810D01*
X108424672Y-62265903D01*
X108424929Y-62260874D01*
X108420525Y-62245876D01*
X108419135Y-62244671D01*
X108411452Y-62243000D01*
X107714115Y-62243000D01*
X107698876Y-62247475D01*
X107697671Y-62248865D01*
X107696000Y-62256548D01*
X107696000Y-62928885D01*
X107188000Y-62928885D01*
X107188000Y-62261115D01*
X107183525Y-62245876D01*
X107182135Y-62244671D01*
X107174452Y-62243000D01*
X106477115Y-62243000D01*
X106461876Y-62247475D01*
X106460671Y-62248865D01*
X106459000Y-62256548D01*
X106459000Y-62259438D01*
X105664000Y-62259438D01*
X105664000Y-59230605D01*
X108952061Y-59230605D01*
X108952101Y-59244706D01*
X108959370Y-59248000D01*
X109842385Y-59248000D01*
X109857624Y-59243525D01*
X109858829Y-59242135D01*
X109860500Y-59234452D01*
X109860500Y-58712116D01*
X109856025Y-58696877D01*
X109854635Y-58695672D01*
X109846952Y-58694001D01*
X109538017Y-58694001D01*
X109533080Y-58694195D01*
X109504664Y-58696430D01*
X109492069Y-58698730D01*
X109346210Y-58741107D01*
X109331779Y-58747352D01*
X109202322Y-58823911D01*
X109189896Y-58833551D01*
X109083551Y-58939896D01*
X109073911Y-58952322D01*
X108997352Y-59081779D01*
X108991107Y-59096210D01*
X108952061Y-59230605D01*
X105664000Y-59230605D01*
X105664000Y-49051438D01*
X106459000Y-49051438D01*
X106459337Y-49057953D01*
X106468894Y-49150057D01*
X106471788Y-49163456D01*
X106521381Y-49312107D01*
X106527555Y-49325286D01*
X106609788Y-49458173D01*
X106618824Y-49469574D01*
X106729429Y-49579986D01*
X106740840Y-49588998D01*
X106873880Y-49671004D01*
X106887061Y-49677151D01*
X107035814Y-49726491D01*
X107049190Y-49729358D01*
X107140097Y-49738672D01*
X107146513Y-49739000D01*
X107169885Y-49739000D01*
X107185124Y-49734525D01*
X107186329Y-49733135D01*
X107188000Y-49725452D01*
X107188000Y-49720885D01*
X107696000Y-49720885D01*
X107700475Y-49736124D01*
X107701865Y-49737329D01*
X107709548Y-49739000D01*
X107737438Y-49739000D01*
X107743953Y-49738663D01*
X107836057Y-49729106D01*
X107849456Y-49726212D01*
X107998107Y-49676619D01*
X108011286Y-49670445D01*
X108144173Y-49588212D01*
X108155574Y-49579176D01*
X108265986Y-49468571D01*
X108274998Y-49457160D01*
X108357004Y-49324120D01*
X108363151Y-49310939D01*
X108412491Y-49162186D01*
X108415358Y-49148810D01*
X108424672Y-49057903D01*
X108424929Y-49052874D01*
X108420525Y-49037876D01*
X108419135Y-49036671D01*
X108411452Y-49035000D01*
X107714115Y-49035000D01*
X107698876Y-49039475D01*
X107697671Y-49040865D01*
X107696000Y-49048548D01*
X107696000Y-49720885D01*
X107188000Y-49720885D01*
X107188000Y-49053115D01*
X107183525Y-49037876D01*
X107182135Y-49036671D01*
X107174452Y-49035000D01*
X106477115Y-49035000D01*
X106461876Y-49039475D01*
X106460671Y-49040865D01*
X106459000Y-49048548D01*
X106459000Y-49051438D01*
X105664000Y-49051438D01*
X105664000Y-46022605D01*
X108952061Y-46022605D01*
X108952101Y-46036706D01*
X108959370Y-46040000D01*
X109842385Y-46040000D01*
X109857624Y-46035525D01*
X109858829Y-46034135D01*
X109860500Y-46026452D01*
X109860500Y-45504116D01*
X109856025Y-45488877D01*
X109854635Y-45487672D01*
X109846952Y-45486001D01*
X109538017Y-45486001D01*
X109533080Y-45486195D01*
X109504664Y-45488430D01*
X109492069Y-45490730D01*
X109346210Y-45533107D01*
X109331779Y-45539352D01*
X109202322Y-45615911D01*
X109189896Y-45625551D01*
X109083551Y-45731896D01*
X109073911Y-45744322D01*
X108997352Y-45873779D01*
X108991107Y-45888210D01*
X108952061Y-46022605D01*
X105664000Y-46022605D01*
X105664000Y-44836669D01*
X116244001Y-44836669D01*
X116244371Y-44843490D01*
X116249895Y-44894352D01*
X116253521Y-44909604D01*
X116298676Y-45030054D01*
X116307214Y-45045649D01*
X116383715Y-45147724D01*
X116396276Y-45160285D01*
X116498351Y-45236786D01*
X116513946Y-45245324D01*
X116634394Y-45290478D01*
X116649649Y-45294105D01*
X116700514Y-45299631D01*
X116707328Y-45300000D01*
X117329885Y-45299999D01*
X117345124Y-45295524D01*
X117346329Y-45294134D01*
X117348000Y-45286451D01*
X117348000Y-44214115D01*
X117343525Y-44198876D01*
X117342135Y-44197671D01*
X117334452Y-44196000D01*
X116262116Y-44196000D01*
X116246877Y-44200475D01*
X116245672Y-44201865D01*
X116244001Y-44209548D01*
X116244001Y-44836669D01*
X105664000Y-44836669D01*
X105664000Y-43669885D01*
X116244000Y-43669885D01*
X116248475Y-43685124D01*
X116249865Y-43686329D01*
X116257548Y-43688000D01*
X117329885Y-43688000D01*
X117345124Y-43683525D01*
X117346329Y-43682135D01*
X117348000Y-43674452D01*
X117348000Y-42602115D01*
X117343525Y-42586876D01*
X117342135Y-42585671D01*
X117334452Y-42584000D01*
X116707331Y-42584001D01*
X116700510Y-42584371D01*
X116649648Y-42589895D01*
X116634396Y-42593521D01*
X116513946Y-42638676D01*
X116498351Y-42647214D01*
X116396276Y-42723715D01*
X116383715Y-42736276D01*
X116307214Y-42838351D01*
X116298676Y-42853946D01*
X116253522Y-42974394D01*
X116249895Y-42989649D01*
X116244369Y-43040514D01*
X116244000Y-43047328D01*
X116244000Y-43669885D01*
X105664000Y-43669885D01*
X105664000Y-42417000D01*
X105684002Y-42348879D01*
X105737658Y-42302386D01*
X105790000Y-42291000D01*
X117730000Y-42291000D01*
X117798121Y-42311002D01*
G37*
%TD.AperFunction*%
%TD*%
M02*
