%TF.GenerationSoftware,KiCad,Pcbnew,(6.0.0)*%
%TF.CreationDate,2022-01-10T21:54:34-05:00*%
%TF.ProjectId,ad74111_module,61643734-3131-4315-9f6d-6f64756c652e,rev?*%
%TF.SameCoordinates,Original*%
%TF.FileFunction,Copper,L3,Inr*%
%TF.FilePolarity,Positive*%
%FSLAX46Y46*%
G04 Gerber Fmt 4.6, Leading zero omitted, Abs format (unit mm)*
G04 Created by KiCad (PCBNEW (6.0.0)) date 2022-01-10 21:54:34*
%MOMM*%
%LPD*%
G01*
G04 APERTURE LIST*
%TA.AperFunction,ComponentPad*%
%ADD10R,1.700000X1.700000*%
%TD*%
%TA.AperFunction,ComponentPad*%
%ADD11O,1.700000X1.700000*%
%TD*%
%TA.AperFunction,ComponentPad*%
%ADD12C,1.700000*%
%TD*%
%TA.AperFunction,ViaPad*%
%ADD13C,0.800000*%
%TD*%
%TA.AperFunction,Conductor*%
%ADD14C,0.250000*%
%TD*%
G04 APERTURE END LIST*
D10*
%TO.N,+3V3*%
%TO.C,P4*%
X117602000Y-43942000D03*
D11*
%TO.N,/mclk*%
X120142000Y-43942000D03*
%TO.N,/dclk*%
X122682000Y-43942000D03*
%TO.N,/din*%
X125222000Y-43942000D03*
%TO.N,/dfs*%
X127762000Y-43942000D03*
%TO.N,/dout*%
X130302000Y-43942000D03*
%TO.N,/~{reset}*%
X132842000Y-43942000D03*
%TO.N,GNDD*%
X135382000Y-43942000D03*
%TD*%
D10*
%TO.N,Net-(P2-Pad1)*%
%TO.C,P2*%
X103886000Y-46482000D03*
D11*
%TO.N,Net-(P2-Pad2)*%
X103886000Y-49022000D03*
%TO.N,Net-(P2-Pad3)*%
X103886000Y-51562000D03*
%TO.N,Net-(P2-Pad4)*%
X103886000Y-54102000D03*
%TO.N,GNDD*%
X103886000Y-56642000D03*
D12*
%TO.N,/3v3_in*%
X103886000Y-59182000D03*
D11*
%TO.N,Net-(P2-Pad7)*%
X101346000Y-46482000D03*
%TO.N,unconnected-(P2-Pad8)*%
X101346000Y-49022000D03*
%TO.N,unconnected-(P2-Pad9)*%
X101346000Y-51562000D03*
%TO.N,Net-(P2-Pad10)*%
X101346000Y-54102000D03*
%TO.N,GNDD*%
X101346000Y-56642000D03*
%TO.N,/3v3_in*%
X101346000Y-59182000D03*
%TD*%
D10*
%TO.N,/audio_in*%
%TO.C,P1*%
X142494000Y-49022000D03*
D12*
%TO.N,GNDA*%
X142494000Y-46482000D03*
%TD*%
D10*
%TO.N,/audio_out*%
%TO.C,P3*%
X142494000Y-59182000D03*
D12*
%TO.N,GNDA*%
X142494000Y-56642000D03*
%TD*%
D13*
%TO.N,Net-(C1-Pad2)*%
X135369000Y-53353000D03*
%TO.N,GNDA*%
X130978811Y-56754378D03*
X128778000Y-52578000D03*
X136398000Y-62230000D03*
X119888000Y-52070000D03*
X137160000Y-56896000D03*
X112268000Y-57912000D03*
X127762000Y-56388000D03*
X135382000Y-48006000D03*
X118364000Y-55118000D03*
X112272299Y-54614299D03*
X112014000Y-60452000D03*
X123190000Y-58166000D03*
X115062000Y-59436000D03*
X132842000Y-50165000D03*
X116586000Y-57208500D03*
X111506000Y-57912000D03*
X126238000Y-53594000D03*
X135128000Y-59563000D03*
X126238000Y-59182000D03*
X113030000Y-57912000D03*
%TO.N,Net-(C7-Pad1)*%
X116840000Y-54102000D03*
%TO.N,Net-(C9-Pad1)*%
X119888000Y-54102000D03*
%TO.N,VAA*%
X114226619Y-52798822D03*
X132846299Y-60701701D03*
%TO.N,+3V3*%
X122682000Y-49911000D03*
X110490000Y-62738000D03*
X111252000Y-62738000D03*
X112014000Y-62738000D03*
%TO.N,GNDD*%
X119888000Y-51054000D03*
X125429500Y-50038000D03*
X113792000Y-47244000D03*
%TO.N,+2V5*%
X122682000Y-51054000D03*
%TO.N,Net-(C13-Pad1)*%
X122682000Y-52578000D03*
%TO.N,/mclk*%
X119900294Y-49542294D03*
%TD*%
D14*
%TO.N,/mclk*%
X120142000Y-49300613D02*
X120142000Y-43942000D01*
%TD*%
%TA.AperFunction,Conductor*%
%TO.N,GNDD*%
G36*
X145992121Y-42311002D02*
G01*
X146038614Y-42364658D01*
X146050000Y-42417000D01*
X146050000Y-63120000D01*
X146029998Y-63188121D01*
X145976342Y-63234614D01*
X145924000Y-63246000D01*
X136933016Y-63246000D01*
X136864895Y-63225998D01*
X136818402Y-63172342D01*
X136808298Y-63102068D01*
X136837792Y-63037488D01*
X136858955Y-63018064D01*
X137003909Y-62912749D01*
X137003911Y-62912747D01*
X137009253Y-62908866D01*
X137137040Y-62766944D01*
X137232527Y-62601556D01*
X137291542Y-62419928D01*
X137311504Y-62230000D01*
X137294062Y-62064045D01*
X137292232Y-62046635D01*
X137292232Y-62046633D01*
X137291542Y-62040072D01*
X137232527Y-61858444D01*
X137137040Y-61693056D01*
X137009253Y-61551134D01*
X136854752Y-61438882D01*
X136848724Y-61436198D01*
X136848722Y-61436197D01*
X136686319Y-61363891D01*
X136686318Y-61363891D01*
X136680288Y-61361206D01*
X136586887Y-61341353D01*
X136499944Y-61322872D01*
X136499939Y-61322872D01*
X136493487Y-61321500D01*
X136302513Y-61321500D01*
X136296061Y-61322872D01*
X136296056Y-61322872D01*
X136209113Y-61341353D01*
X136115712Y-61361206D01*
X136109682Y-61363891D01*
X136109681Y-61363891D01*
X135947278Y-61436197D01*
X135947276Y-61436198D01*
X135941248Y-61438882D01*
X135786747Y-61551134D01*
X135658960Y-61693056D01*
X135563473Y-61858444D01*
X135504458Y-62040072D01*
X135503768Y-62046633D01*
X135503768Y-62046635D01*
X135501938Y-62064045D01*
X135484496Y-62230000D01*
X135504458Y-62419928D01*
X135563473Y-62601556D01*
X135658960Y-62766944D01*
X135786747Y-62908866D01*
X135792089Y-62912747D01*
X135792091Y-62912749D01*
X135937045Y-63018064D01*
X135980399Y-63074286D01*
X135986474Y-63145022D01*
X135953343Y-63207814D01*
X135891523Y-63242726D01*
X135862984Y-63246000D01*
X112977618Y-63246000D01*
X112909497Y-63225998D01*
X112863004Y-63172342D01*
X112852900Y-63102068D01*
X112857785Y-63081064D01*
X112905502Y-62934206D01*
X112907542Y-62927928D01*
X112909138Y-62912749D01*
X112926814Y-62744565D01*
X112927504Y-62738000D01*
X112907542Y-62548072D01*
X112848527Y-62366444D01*
X112753040Y-62201056D01*
X112625253Y-62059134D01*
X112470752Y-61946882D01*
X112464724Y-61944198D01*
X112464722Y-61944197D01*
X112302319Y-61871891D01*
X112302318Y-61871891D01*
X112296288Y-61869206D01*
X112202887Y-61849353D01*
X112115944Y-61830872D01*
X112115939Y-61830872D01*
X112109487Y-61829500D01*
X111918513Y-61829500D01*
X111912061Y-61830872D01*
X111912056Y-61830872D01*
X111809267Y-61852721D01*
X111731712Y-61869206D01*
X111725679Y-61871892D01*
X111725676Y-61871893D01*
X111684248Y-61890338D01*
X111613881Y-61899772D01*
X111581752Y-61890338D01*
X111540324Y-61871893D01*
X111540321Y-61871892D01*
X111534288Y-61869206D01*
X111456733Y-61852721D01*
X111353944Y-61830872D01*
X111353939Y-61830872D01*
X111347487Y-61829500D01*
X111156513Y-61829500D01*
X111150061Y-61830872D01*
X111150056Y-61830872D01*
X111047267Y-61852721D01*
X110969712Y-61869206D01*
X110963679Y-61871892D01*
X110963676Y-61871893D01*
X110922248Y-61890338D01*
X110851881Y-61899772D01*
X110819752Y-61890338D01*
X110778324Y-61871893D01*
X110778321Y-61871892D01*
X110772288Y-61869206D01*
X110694733Y-61852721D01*
X110591944Y-61830872D01*
X110591939Y-61830872D01*
X110585487Y-61829500D01*
X110394513Y-61829500D01*
X110388061Y-61830872D01*
X110388056Y-61830872D01*
X110301113Y-61849353D01*
X110207712Y-61869206D01*
X110201682Y-61871891D01*
X110201681Y-61871891D01*
X110039278Y-61944197D01*
X110039276Y-61944198D01*
X110033248Y-61946882D01*
X109878747Y-62059134D01*
X109750960Y-62201056D01*
X109655473Y-62366444D01*
X109596458Y-62548072D01*
X109576496Y-62738000D01*
X109577186Y-62744565D01*
X109594863Y-62912749D01*
X109596458Y-62927928D01*
X109598498Y-62934206D01*
X109646215Y-63081064D01*
X109648243Y-63152031D01*
X109611580Y-63212829D01*
X109547868Y-63244155D01*
X109526382Y-63246000D01*
X97916000Y-63246000D01*
X97847879Y-63225998D01*
X97801386Y-63172342D01*
X97790000Y-63120000D01*
X97790000Y-59148695D01*
X99983251Y-59148695D01*
X99983548Y-59153848D01*
X99983548Y-59153851D01*
X99989011Y-59248590D01*
X99996110Y-59371715D01*
X99997247Y-59376761D01*
X99997248Y-59376767D01*
X100009118Y-59429435D01*
X100045222Y-59589639D01*
X100129266Y-59796616D01*
X100168638Y-59860866D01*
X100243291Y-59982688D01*
X100245987Y-59987088D01*
X100392250Y-60155938D01*
X100564126Y-60298632D01*
X100757000Y-60411338D01*
X100965692Y-60491030D01*
X100970760Y-60492061D01*
X100970763Y-60492062D01*
X101036789Y-60505495D01*
X101184597Y-60535567D01*
X101189772Y-60535757D01*
X101189774Y-60535757D01*
X101402673Y-60543564D01*
X101402677Y-60543564D01*
X101407837Y-60543753D01*
X101412957Y-60543097D01*
X101412959Y-60543097D01*
X101624288Y-60516025D01*
X101624289Y-60516025D01*
X101629416Y-60515368D01*
X101641399Y-60511773D01*
X101838429Y-60452661D01*
X101838434Y-60452659D01*
X101843384Y-60451174D01*
X102043994Y-60352896D01*
X102225860Y-60223173D01*
X102278743Y-60170475D01*
X102314884Y-60134460D01*
X102384096Y-60065489D01*
X102393670Y-60052166D01*
X102514453Y-59884077D01*
X102515776Y-59885028D01*
X102562645Y-59841857D01*
X102632580Y-59829625D01*
X102698026Y-59857144D01*
X102725875Y-59888994D01*
X102785987Y-59987088D01*
X102932250Y-60155938D01*
X103104126Y-60298632D01*
X103297000Y-60411338D01*
X103505692Y-60491030D01*
X103510760Y-60492061D01*
X103510763Y-60492062D01*
X103576789Y-60505495D01*
X103724597Y-60535567D01*
X103729772Y-60535757D01*
X103729774Y-60535757D01*
X103942673Y-60543564D01*
X103942677Y-60543564D01*
X103947837Y-60543753D01*
X103952957Y-60543097D01*
X103952959Y-60543097D01*
X104164288Y-60516025D01*
X104164289Y-60516025D01*
X104169416Y-60515368D01*
X104181399Y-60511773D01*
X104378429Y-60452661D01*
X104378434Y-60452659D01*
X104380631Y-60452000D01*
X111100496Y-60452000D01*
X111101186Y-60458565D01*
X111110140Y-60543753D01*
X111120458Y-60641928D01*
X111179473Y-60823556D01*
X111274960Y-60988944D01*
X111402747Y-61130866D01*
X111557248Y-61243118D01*
X111563276Y-61245802D01*
X111563278Y-61245803D01*
X111725681Y-61318109D01*
X111731712Y-61320794D01*
X111825113Y-61340647D01*
X111912056Y-61359128D01*
X111912061Y-61359128D01*
X111918513Y-61360500D01*
X112109487Y-61360500D01*
X112115939Y-61359128D01*
X112115944Y-61359128D01*
X112202887Y-61340647D01*
X112296288Y-61320794D01*
X112302319Y-61318109D01*
X112464722Y-61245803D01*
X112464724Y-61245802D01*
X112470752Y-61243118D01*
X112625253Y-61130866D01*
X112753040Y-60988944D01*
X112848527Y-60823556D01*
X112888120Y-60701701D01*
X131932795Y-60701701D01*
X131952757Y-60891629D01*
X132011772Y-61073257D01*
X132107259Y-61238645D01*
X132111677Y-61243552D01*
X132111678Y-61243553D01*
X132217613Y-61361206D01*
X132235046Y-61380567D01*
X132389547Y-61492819D01*
X132395575Y-61495503D01*
X132395577Y-61495504D01*
X132557980Y-61567810D01*
X132564011Y-61570495D01*
X132657411Y-61590348D01*
X132744355Y-61608829D01*
X132744360Y-61608829D01*
X132750812Y-61610201D01*
X132941786Y-61610201D01*
X132948238Y-61608829D01*
X132948243Y-61608829D01*
X133035187Y-61590348D01*
X133128587Y-61570495D01*
X133134618Y-61567810D01*
X133297021Y-61495504D01*
X133297023Y-61495503D01*
X133303051Y-61492819D01*
X133457552Y-61380567D01*
X133474985Y-61361206D01*
X133580920Y-61243553D01*
X133580921Y-61243552D01*
X133585339Y-61238645D01*
X133680826Y-61073257D01*
X133739841Y-60891629D01*
X133759803Y-60701701D01*
X133743202Y-60543753D01*
X133740531Y-60518336D01*
X133740531Y-60518334D01*
X133739841Y-60511773D01*
X133680826Y-60330145D01*
X133585339Y-60164757D01*
X133580372Y-60159240D01*
X133461974Y-60027746D01*
X133461973Y-60027745D01*
X133457552Y-60022835D01*
X133336047Y-59934556D01*
X133308393Y-59914464D01*
X133308392Y-59914463D01*
X133303051Y-59910583D01*
X133297023Y-59907899D01*
X133297021Y-59907898D01*
X133134618Y-59835592D01*
X133134617Y-59835592D01*
X133128587Y-59832907D01*
X133009321Y-59807556D01*
X132948243Y-59794573D01*
X132948238Y-59794573D01*
X132941786Y-59793201D01*
X132750812Y-59793201D01*
X132744360Y-59794573D01*
X132744355Y-59794573D01*
X132683277Y-59807556D01*
X132564011Y-59832907D01*
X132557981Y-59835592D01*
X132557980Y-59835592D01*
X132395577Y-59907898D01*
X132395575Y-59907899D01*
X132389547Y-59910583D01*
X132384206Y-59914463D01*
X132384205Y-59914464D01*
X132356551Y-59934556D01*
X132235046Y-60022835D01*
X132230625Y-60027745D01*
X132230624Y-60027746D01*
X132112227Y-60159240D01*
X132107259Y-60164757D01*
X132011772Y-60330145D01*
X131952757Y-60511773D01*
X131952067Y-60518334D01*
X131952067Y-60518336D01*
X131949396Y-60543753D01*
X131932795Y-60701701D01*
X112888120Y-60701701D01*
X112907542Y-60641928D01*
X112917861Y-60543753D01*
X112926814Y-60458565D01*
X112927504Y-60452000D01*
X112926814Y-60445435D01*
X112908232Y-60268635D01*
X112908232Y-60268633D01*
X112907542Y-60262072D01*
X112848527Y-60080444D01*
X112753040Y-59915056D01*
X112725147Y-59884077D01*
X112629675Y-59778045D01*
X112629674Y-59778044D01*
X112625253Y-59773134D01*
X112502311Y-59683811D01*
X112476094Y-59664763D01*
X112476093Y-59664762D01*
X112470752Y-59660882D01*
X112464724Y-59658198D01*
X112464722Y-59658197D01*
X112302319Y-59585891D01*
X112302318Y-59585891D01*
X112296288Y-59583206D01*
X112183721Y-59559279D01*
X112115944Y-59544872D01*
X112115939Y-59544872D01*
X112109487Y-59543500D01*
X111918513Y-59543500D01*
X111912061Y-59544872D01*
X111912056Y-59544872D01*
X111844279Y-59559279D01*
X111731712Y-59583206D01*
X111725682Y-59585891D01*
X111725681Y-59585891D01*
X111563278Y-59658197D01*
X111563276Y-59658198D01*
X111557248Y-59660882D01*
X111551907Y-59664762D01*
X111551906Y-59664763D01*
X111525689Y-59683811D01*
X111402747Y-59773134D01*
X111398326Y-59778044D01*
X111398325Y-59778045D01*
X111302854Y-59884077D01*
X111274960Y-59915056D01*
X111179473Y-60080444D01*
X111120458Y-60262072D01*
X111119768Y-60268633D01*
X111119768Y-60268635D01*
X111101186Y-60445435D01*
X111100496Y-60452000D01*
X104380631Y-60452000D01*
X104383384Y-60451174D01*
X104583994Y-60352896D01*
X104765860Y-60223173D01*
X104818743Y-60170475D01*
X104854884Y-60134460D01*
X104924096Y-60065489D01*
X104933670Y-60052166D01*
X105051435Y-59888277D01*
X105054453Y-59884077D01*
X105064006Y-59864749D01*
X105151136Y-59688453D01*
X105151137Y-59688451D01*
X105153430Y-59683811D01*
X105218370Y-59470069D01*
X105222855Y-59436000D01*
X114148496Y-59436000D01*
X114149186Y-59442565D01*
X114163824Y-59581834D01*
X114168458Y-59625928D01*
X114227473Y-59807556D01*
X114230776Y-59813278D01*
X114230777Y-59813279D01*
X114241317Y-59831535D01*
X114322960Y-59972944D01*
X114327378Y-59977851D01*
X114327379Y-59977852D01*
X114419474Y-60080134D01*
X114450747Y-60114866D01*
X114512661Y-60159849D01*
X114594803Y-60219529D01*
X114605248Y-60227118D01*
X114611276Y-60229802D01*
X114611278Y-60229803D01*
X114771734Y-60301242D01*
X114779712Y-60304794D01*
X114872054Y-60324422D01*
X114960056Y-60343128D01*
X114960061Y-60343128D01*
X114966513Y-60344500D01*
X115157487Y-60344500D01*
X115163939Y-60343128D01*
X115163944Y-60343128D01*
X115251946Y-60324422D01*
X115344288Y-60304794D01*
X115352266Y-60301242D01*
X115512722Y-60229803D01*
X115512724Y-60229802D01*
X115518752Y-60227118D01*
X115529198Y-60219529D01*
X115611339Y-60159849D01*
X115673253Y-60114866D01*
X115704526Y-60080134D01*
X115796621Y-59977852D01*
X115796622Y-59977851D01*
X115801040Y-59972944D01*
X115882683Y-59831535D01*
X115893223Y-59813279D01*
X115893224Y-59813278D01*
X115896527Y-59807556D01*
X115955542Y-59625928D01*
X115960177Y-59581834D01*
X115974814Y-59442565D01*
X115975504Y-59436000D01*
X115968770Y-59371928D01*
X115956232Y-59252635D01*
X115956232Y-59252633D01*
X115955542Y-59246072D01*
X115934724Y-59182000D01*
X125324496Y-59182000D01*
X125325186Y-59188565D01*
X125331844Y-59251908D01*
X125344458Y-59371928D01*
X125403473Y-59553556D01*
X125406776Y-59559278D01*
X125406777Y-59559279D01*
X125427069Y-59594425D01*
X125498960Y-59718944D01*
X125503378Y-59723851D01*
X125503379Y-59723852D01*
X125600337Y-59831535D01*
X125626747Y-59860866D01*
X125781248Y-59973118D01*
X125787276Y-59975802D01*
X125787278Y-59975803D01*
X125903945Y-60027746D01*
X125955712Y-60050794D01*
X126042009Y-60069137D01*
X126136056Y-60089128D01*
X126136061Y-60089128D01*
X126142513Y-60090500D01*
X126333487Y-60090500D01*
X126339939Y-60089128D01*
X126339944Y-60089128D01*
X126433991Y-60069137D01*
X126520288Y-60050794D01*
X126572055Y-60027746D01*
X126688722Y-59975803D01*
X126688724Y-59975802D01*
X126694752Y-59973118D01*
X126849253Y-59860866D01*
X126875663Y-59831535D01*
X126972621Y-59723852D01*
X126972622Y-59723851D01*
X126977040Y-59718944D01*
X127048931Y-59594425D01*
X127067075Y-59563000D01*
X134214496Y-59563000D01*
X134215186Y-59569565D01*
X134227194Y-59683811D01*
X134234458Y-59752928D01*
X134293473Y-59934556D01*
X134388960Y-60099944D01*
X134393378Y-60104851D01*
X134393379Y-60104852D01*
X134447318Y-60164757D01*
X134516747Y-60241866D01*
X134594878Y-60298632D01*
X134656122Y-60343128D01*
X134671248Y-60354118D01*
X134677276Y-60356802D01*
X134677278Y-60356803D01*
X134803906Y-60413181D01*
X134845712Y-60431794D01*
X134936887Y-60451174D01*
X135026056Y-60470128D01*
X135026061Y-60470128D01*
X135032513Y-60471500D01*
X135223487Y-60471500D01*
X135229939Y-60470128D01*
X135229944Y-60470128D01*
X135319113Y-60451174D01*
X135410288Y-60431794D01*
X135452094Y-60413181D01*
X135578722Y-60356803D01*
X135578724Y-60356802D01*
X135584752Y-60354118D01*
X135599879Y-60343128D01*
X135661122Y-60298632D01*
X135739253Y-60241866D01*
X135808682Y-60164757D01*
X135862621Y-60104852D01*
X135862622Y-60104851D01*
X135867040Y-60099944D01*
X135962527Y-59934556D01*
X136021542Y-59752928D01*
X136028807Y-59683811D01*
X136040814Y-59569565D01*
X136041504Y-59563000D01*
X136039599Y-59544872D01*
X136022232Y-59379635D01*
X136022232Y-59379633D01*
X136021542Y-59373072D01*
X135962527Y-59191444D01*
X135957075Y-59182000D01*
X135872085Y-59034794D01*
X135867040Y-59026056D01*
X135802469Y-58954342D01*
X135743675Y-58889045D01*
X135743674Y-58889044D01*
X135739253Y-58884134D01*
X135598907Y-58782166D01*
X135590094Y-58775763D01*
X135590093Y-58775762D01*
X135584752Y-58771882D01*
X135578724Y-58769198D01*
X135578722Y-58769197D01*
X135416319Y-58696891D01*
X135416318Y-58696891D01*
X135410288Y-58694206D01*
X135316887Y-58674353D01*
X135229944Y-58655872D01*
X135229939Y-58655872D01*
X135223487Y-58654500D01*
X135032513Y-58654500D01*
X135026061Y-58655872D01*
X135026056Y-58655872D01*
X134939113Y-58674353D01*
X134845712Y-58694206D01*
X134839682Y-58696891D01*
X134839681Y-58696891D01*
X134677278Y-58769197D01*
X134677276Y-58769198D01*
X134671248Y-58771882D01*
X134665907Y-58775762D01*
X134665906Y-58775763D01*
X134657093Y-58782166D01*
X134516747Y-58884134D01*
X134512326Y-58889044D01*
X134512325Y-58889045D01*
X134453532Y-58954342D01*
X134388960Y-59026056D01*
X134383915Y-59034794D01*
X134298926Y-59182000D01*
X134293473Y-59191444D01*
X134234458Y-59373072D01*
X134233768Y-59379633D01*
X134233768Y-59379635D01*
X134216401Y-59544872D01*
X134214496Y-59563000D01*
X127067075Y-59563000D01*
X127069223Y-59559279D01*
X127069224Y-59559278D01*
X127072527Y-59553556D01*
X127131542Y-59371928D01*
X127144157Y-59251908D01*
X127150814Y-59188565D01*
X127151504Y-59182000D01*
X127147464Y-59143562D01*
X127132232Y-58998635D01*
X127132232Y-58998633D01*
X127131542Y-58992072D01*
X127072527Y-58810444D01*
X126977040Y-58645056D01*
X126931744Y-58594749D01*
X126853675Y-58508045D01*
X126853674Y-58508044D01*
X126849253Y-58503134D01*
X126694752Y-58390882D01*
X126688724Y-58388198D01*
X126688722Y-58388197D01*
X126526319Y-58315891D01*
X126526318Y-58315891D01*
X126520288Y-58313206D01*
X126398331Y-58287283D01*
X126339944Y-58274872D01*
X126339939Y-58274872D01*
X126333487Y-58273500D01*
X126142513Y-58273500D01*
X126136061Y-58274872D01*
X126136056Y-58274872D01*
X126077669Y-58287283D01*
X125955712Y-58313206D01*
X125949682Y-58315891D01*
X125949681Y-58315891D01*
X125787278Y-58388197D01*
X125787276Y-58388198D01*
X125781248Y-58390882D01*
X125626747Y-58503134D01*
X125622326Y-58508044D01*
X125622325Y-58508045D01*
X125544257Y-58594749D01*
X125498960Y-58645056D01*
X125403473Y-58810444D01*
X125344458Y-58992072D01*
X125343768Y-58998633D01*
X125343768Y-58998635D01*
X125328536Y-59143562D01*
X125324496Y-59182000D01*
X115934724Y-59182000D01*
X115896527Y-59064444D01*
X115801040Y-58899056D01*
X115755744Y-58848749D01*
X115677675Y-58762045D01*
X115677674Y-58762044D01*
X115673253Y-58757134D01*
X115574157Y-58685136D01*
X115524094Y-58648763D01*
X115524093Y-58648762D01*
X115518752Y-58644882D01*
X115512724Y-58642198D01*
X115512722Y-58642197D01*
X115350319Y-58569891D01*
X115350318Y-58569891D01*
X115344288Y-58567206D01*
X115231721Y-58543279D01*
X115163944Y-58528872D01*
X115163939Y-58528872D01*
X115157487Y-58527500D01*
X114966513Y-58527500D01*
X114960061Y-58528872D01*
X114960056Y-58528872D01*
X114892279Y-58543279D01*
X114779712Y-58567206D01*
X114773682Y-58569891D01*
X114773681Y-58569891D01*
X114611278Y-58642197D01*
X114611276Y-58642198D01*
X114605248Y-58644882D01*
X114599907Y-58648762D01*
X114599906Y-58648763D01*
X114549843Y-58685136D01*
X114450747Y-58757134D01*
X114446326Y-58762044D01*
X114446325Y-58762045D01*
X114368257Y-58848749D01*
X114322960Y-58899056D01*
X114227473Y-59064444D01*
X114168458Y-59246072D01*
X114167768Y-59252633D01*
X114167768Y-59252635D01*
X114155230Y-59371928D01*
X114148496Y-59436000D01*
X105222855Y-59436000D01*
X105247529Y-59248590D01*
X105249156Y-59182000D01*
X105230852Y-58959361D01*
X105176431Y-58742702D01*
X105087354Y-58537840D01*
X105029845Y-58448944D01*
X104968822Y-58354617D01*
X104968820Y-58354614D01*
X104966014Y-58350277D01*
X104815670Y-58185051D01*
X104811619Y-58181852D01*
X104811615Y-58181848D01*
X104644414Y-58049800D01*
X104644410Y-58049798D01*
X104640359Y-58046598D01*
X104598569Y-58023529D01*
X104548598Y-57973097D01*
X104535601Y-57912000D01*
X110592496Y-57912000D01*
X110593186Y-57918565D01*
X110611594Y-58093703D01*
X110612458Y-58101928D01*
X110671473Y-58283556D01*
X110674776Y-58289278D01*
X110674777Y-58289279D01*
X110694903Y-58324138D01*
X110766960Y-58448944D01*
X110771378Y-58453851D01*
X110771379Y-58453852D01*
X110872208Y-58565834D01*
X110894747Y-58590866D01*
X110962578Y-58640148D01*
X111036982Y-58694206D01*
X111049248Y-58703118D01*
X111055276Y-58705802D01*
X111055278Y-58705803D01*
X111203695Y-58771882D01*
X111223712Y-58780794D01*
X111317113Y-58800647D01*
X111404056Y-58819128D01*
X111404061Y-58819128D01*
X111410513Y-58820500D01*
X111601487Y-58820500D01*
X111607939Y-58819128D01*
X111607944Y-58819128D01*
X111746660Y-58789642D01*
X111788288Y-58780794D01*
X111794321Y-58778108D01*
X111794324Y-58778107D01*
X111835752Y-58759662D01*
X111906119Y-58750228D01*
X111938248Y-58759662D01*
X111979676Y-58778107D01*
X111979679Y-58778108D01*
X111985712Y-58780794D01*
X112027340Y-58789642D01*
X112166056Y-58819128D01*
X112166061Y-58819128D01*
X112172513Y-58820500D01*
X112363487Y-58820500D01*
X112369939Y-58819128D01*
X112369944Y-58819128D01*
X112508660Y-58789642D01*
X112550288Y-58780794D01*
X112556321Y-58778108D01*
X112556324Y-58778107D01*
X112597752Y-58759662D01*
X112668119Y-58750228D01*
X112700248Y-58759662D01*
X112741676Y-58778107D01*
X112741679Y-58778108D01*
X112747712Y-58780794D01*
X112789340Y-58789642D01*
X112928056Y-58819128D01*
X112928061Y-58819128D01*
X112934513Y-58820500D01*
X113125487Y-58820500D01*
X113131939Y-58819128D01*
X113131944Y-58819128D01*
X113218887Y-58800647D01*
X113312288Y-58780794D01*
X113332305Y-58771882D01*
X113480722Y-58705803D01*
X113480724Y-58705802D01*
X113486752Y-58703118D01*
X113499019Y-58694206D01*
X113573422Y-58640148D01*
X113641253Y-58590866D01*
X113663792Y-58565834D01*
X113764621Y-58453852D01*
X113764622Y-58453851D01*
X113769040Y-58448944D01*
X113841097Y-58324138D01*
X113861223Y-58289279D01*
X113861224Y-58289278D01*
X113864527Y-58283556D01*
X113902724Y-58166000D01*
X122276496Y-58166000D01*
X122277186Y-58172565D01*
X122295463Y-58346457D01*
X122296458Y-58355928D01*
X122355473Y-58537556D01*
X122450960Y-58702944D01*
X122455378Y-58707851D01*
X122455379Y-58707852D01*
X122542600Y-58804721D01*
X122578747Y-58844866D01*
X122733248Y-58957118D01*
X122739276Y-58959802D01*
X122739278Y-58959803D01*
X122811756Y-58992072D01*
X122907712Y-59034794D01*
X123001112Y-59054647D01*
X123088056Y-59073128D01*
X123088061Y-59073128D01*
X123094513Y-59074500D01*
X123285487Y-59074500D01*
X123291939Y-59073128D01*
X123291944Y-59073128D01*
X123378888Y-59054647D01*
X123472288Y-59034794D01*
X123568244Y-58992072D01*
X123640722Y-58959803D01*
X123640724Y-58959802D01*
X123646752Y-58957118D01*
X123801253Y-58844866D01*
X123837400Y-58804721D01*
X123924621Y-58707852D01*
X123924622Y-58707851D01*
X123929040Y-58702944D01*
X124024527Y-58537556D01*
X124083542Y-58355928D01*
X124084538Y-58346457D01*
X124102814Y-58172565D01*
X124103504Y-58166000D01*
X124091291Y-58049800D01*
X124084232Y-57982635D01*
X124084232Y-57982633D01*
X124083542Y-57976072D01*
X124024527Y-57794444D01*
X124005121Y-57760831D01*
X123962562Y-57687118D01*
X123929040Y-57629056D01*
X123921325Y-57620487D01*
X123805675Y-57492045D01*
X123805674Y-57492044D01*
X123801253Y-57487134D01*
X123646752Y-57374882D01*
X123640724Y-57372198D01*
X123640722Y-57372197D01*
X123478319Y-57299891D01*
X123478318Y-57299891D01*
X123472288Y-57297206D01*
X123359721Y-57273279D01*
X123291944Y-57258872D01*
X123291939Y-57258872D01*
X123285487Y-57257500D01*
X123094513Y-57257500D01*
X123088061Y-57258872D01*
X123088056Y-57258872D01*
X123020279Y-57273279D01*
X122907712Y-57297206D01*
X122901682Y-57299891D01*
X122901681Y-57299891D01*
X122739278Y-57372197D01*
X122739276Y-57372198D01*
X122733248Y-57374882D01*
X122578747Y-57487134D01*
X122574326Y-57492044D01*
X122574325Y-57492045D01*
X122458676Y-57620487D01*
X122450960Y-57629056D01*
X122417438Y-57687118D01*
X122374880Y-57760831D01*
X122355473Y-57794444D01*
X122296458Y-57976072D01*
X122295768Y-57982633D01*
X122295768Y-57982635D01*
X122288709Y-58049800D01*
X122276496Y-58166000D01*
X113902724Y-58166000D01*
X113923542Y-58101928D01*
X113924407Y-58093703D01*
X113942814Y-57918565D01*
X113943504Y-57912000D01*
X113932851Y-57810641D01*
X113924232Y-57728635D01*
X113924232Y-57728633D01*
X113923542Y-57722072D01*
X113864527Y-57540444D01*
X113769040Y-57375056D01*
X113741147Y-57344077D01*
X113645675Y-57238045D01*
X113645674Y-57238044D01*
X113641253Y-57233134D01*
X113607347Y-57208500D01*
X115672496Y-57208500D01*
X115673186Y-57215065D01*
X115690603Y-57380774D01*
X115692458Y-57398428D01*
X115751473Y-57580056D01*
X115754776Y-57585778D01*
X115754777Y-57585779D01*
X115788686Y-57644510D01*
X115846960Y-57745444D01*
X115851378Y-57750351D01*
X115851379Y-57750352D01*
X115969362Y-57881385D01*
X115974747Y-57887366D01*
X116129248Y-57999618D01*
X116135276Y-58002302D01*
X116135278Y-58002303D01*
X116234767Y-58046598D01*
X116303712Y-58077294D01*
X116380910Y-58093703D01*
X116484056Y-58115628D01*
X116484061Y-58115628D01*
X116490513Y-58117000D01*
X116681487Y-58117000D01*
X116687939Y-58115628D01*
X116687944Y-58115628D01*
X116791090Y-58093703D01*
X116868288Y-58077294D01*
X116937233Y-58046598D01*
X117036722Y-58002303D01*
X117036724Y-58002302D01*
X117042752Y-57999618D01*
X117197253Y-57887366D01*
X117202638Y-57881385D01*
X117320621Y-57750352D01*
X117320622Y-57750351D01*
X117325040Y-57745444D01*
X117383314Y-57644510D01*
X117417223Y-57585779D01*
X117417224Y-57585778D01*
X117420527Y-57580056D01*
X117479542Y-57398428D01*
X117481398Y-57380774D01*
X117498814Y-57215065D01*
X117499504Y-57208500D01*
X117490295Y-57120882D01*
X117480232Y-57025135D01*
X117480232Y-57025133D01*
X117479542Y-57018572D01*
X117420527Y-56836944D01*
X117325040Y-56671556D01*
X117228602Y-56564450D01*
X117201675Y-56534545D01*
X117201674Y-56534544D01*
X117197253Y-56529634D01*
X117098157Y-56457636D01*
X117048094Y-56421263D01*
X117048093Y-56421262D01*
X117042752Y-56417382D01*
X117036724Y-56414698D01*
X117036722Y-56414697D01*
X116976759Y-56388000D01*
X126848496Y-56388000D01*
X126849186Y-56394565D01*
X126866382Y-56558172D01*
X126868458Y-56577928D01*
X126927473Y-56759556D01*
X127022960Y-56924944D01*
X127027378Y-56929851D01*
X127027379Y-56929852D01*
X127046046Y-56950584D01*
X127150747Y-57066866D01*
X127305248Y-57179118D01*
X127311276Y-57181802D01*
X127311278Y-57181803D01*
X127468560Y-57251829D01*
X127479712Y-57256794D01*
X127573113Y-57276647D01*
X127660056Y-57295128D01*
X127660061Y-57295128D01*
X127666513Y-57296500D01*
X127857487Y-57296500D01*
X127863939Y-57295128D01*
X127863944Y-57295128D01*
X127950887Y-57276647D01*
X128044288Y-57256794D01*
X128055440Y-57251829D01*
X128212722Y-57181803D01*
X128212724Y-57181802D01*
X128218752Y-57179118D01*
X128373253Y-57066866D01*
X128477954Y-56950584D01*
X128496621Y-56929852D01*
X128496622Y-56929851D01*
X128501040Y-56924944D01*
X128596527Y-56759556D01*
X128598209Y-56754378D01*
X130065307Y-56754378D01*
X130065997Y-56760943D01*
X130083773Y-56930069D01*
X130085269Y-56944306D01*
X130144284Y-57125934D01*
X130239771Y-57291322D01*
X130244189Y-57296229D01*
X130244190Y-57296230D01*
X130341862Y-57404706D01*
X130367558Y-57433244D01*
X130441731Y-57487134D01*
X130515106Y-57540444D01*
X130522059Y-57545496D01*
X130528087Y-57548180D01*
X130528089Y-57548181D01*
X130687696Y-57619242D01*
X130696523Y-57623172D01*
X130789923Y-57643025D01*
X130876867Y-57661506D01*
X130876872Y-57661506D01*
X130883324Y-57662878D01*
X131074298Y-57662878D01*
X131080750Y-57661506D01*
X131080755Y-57661506D01*
X131167699Y-57643025D01*
X131261099Y-57623172D01*
X131269926Y-57619242D01*
X131429533Y-57548181D01*
X131429535Y-57548180D01*
X131435563Y-57545496D01*
X131442517Y-57540444D01*
X131515891Y-57487134D01*
X131590064Y-57433244D01*
X131615760Y-57404706D01*
X131713432Y-57296230D01*
X131713433Y-57296229D01*
X131717851Y-57291322D01*
X131813338Y-57125934D01*
X131872353Y-56944306D01*
X131873850Y-56930069D01*
X131877431Y-56896000D01*
X136246496Y-56896000D01*
X136247186Y-56902565D01*
X136264863Y-57070749D01*
X136266458Y-57085928D01*
X136325473Y-57267556D01*
X136420960Y-57432944D01*
X136425378Y-57437851D01*
X136425379Y-57437852D01*
X136469753Y-57487134D01*
X136548747Y-57574866D01*
X136631203Y-57634774D01*
X136696328Y-57682090D01*
X136703248Y-57687118D01*
X136709276Y-57689802D01*
X136709278Y-57689803D01*
X136868811Y-57760831D01*
X136877712Y-57764794D01*
X136971113Y-57784647D01*
X137058056Y-57803128D01*
X137058061Y-57803128D01*
X137064513Y-57804500D01*
X137255487Y-57804500D01*
X137261939Y-57803128D01*
X137261944Y-57803128D01*
X137348887Y-57784647D01*
X137442288Y-57764794D01*
X137451189Y-57760831D01*
X137610722Y-57689803D01*
X137610724Y-57689802D01*
X137616752Y-57687118D01*
X137623673Y-57682090D01*
X137688797Y-57634774D01*
X137771253Y-57574866D01*
X137850247Y-57487134D01*
X137894621Y-57437852D01*
X137894622Y-57437851D01*
X137899040Y-57432944D01*
X137994527Y-57267556D01*
X138053542Y-57085928D01*
X138055138Y-57070749D01*
X138072814Y-56902565D01*
X138073504Y-56896000D01*
X138067278Y-56836767D01*
X138054232Y-56712635D01*
X138054232Y-56712633D01*
X138053542Y-56706072D01*
X138021902Y-56608695D01*
X141131251Y-56608695D01*
X141131548Y-56613848D01*
X141131548Y-56613851D01*
X141137011Y-56708590D01*
X141144110Y-56831715D01*
X141145247Y-56836761D01*
X141145248Y-56836767D01*
X141157118Y-56889435D01*
X141193222Y-57049639D01*
X141277266Y-57256616D01*
X141313777Y-57316197D01*
X141391104Y-57442383D01*
X141393987Y-57447088D01*
X141540250Y-57615938D01*
X141544230Y-57619242D01*
X141548981Y-57623187D01*
X141588616Y-57682090D01*
X141590113Y-57753071D01*
X141552997Y-57813593D01*
X141512724Y-57838112D01*
X141397295Y-57881385D01*
X141280739Y-57968739D01*
X141193385Y-58085295D01*
X141142255Y-58221684D01*
X141135500Y-58283866D01*
X141135500Y-60080134D01*
X141142255Y-60142316D01*
X141193385Y-60278705D01*
X141280739Y-60395261D01*
X141397295Y-60482615D01*
X141533684Y-60533745D01*
X141595866Y-60540500D01*
X143392134Y-60540500D01*
X143454316Y-60533745D01*
X143590705Y-60482615D01*
X143707261Y-60395261D01*
X143794615Y-60278705D01*
X143845745Y-60142316D01*
X143852500Y-60080134D01*
X143852500Y-58283866D01*
X143845745Y-58221684D01*
X143794615Y-58085295D01*
X143707261Y-57968739D01*
X143590705Y-57881385D01*
X143522871Y-57855955D01*
X143472203Y-57836960D01*
X143415439Y-57794318D01*
X143390739Y-57727756D01*
X143405947Y-57658408D01*
X143427493Y-57629727D01*
X143477338Y-57580056D01*
X143532096Y-57525489D01*
X143591594Y-57442689D01*
X143659435Y-57348277D01*
X143662453Y-57344077D01*
X143686101Y-57296230D01*
X143759136Y-57148453D01*
X143759137Y-57148451D01*
X143761430Y-57143811D01*
X143820137Y-56950584D01*
X143824865Y-56935023D01*
X143824865Y-56935021D01*
X143826370Y-56930069D01*
X143855529Y-56708590D01*
X143857156Y-56642000D01*
X143838852Y-56419361D01*
X143784431Y-56202702D01*
X143695354Y-55997840D01*
X143597220Y-55846148D01*
X143576822Y-55814617D01*
X143576820Y-55814614D01*
X143574014Y-55810277D01*
X143423670Y-55645051D01*
X143419619Y-55641852D01*
X143419615Y-55641848D01*
X143252414Y-55509800D01*
X143252410Y-55509798D01*
X143248359Y-55506598D01*
X143052789Y-55398638D01*
X143047920Y-55396914D01*
X143047916Y-55396912D01*
X142847087Y-55325795D01*
X142847083Y-55325794D01*
X142842212Y-55324069D01*
X142837119Y-55323162D01*
X142837116Y-55323161D01*
X142627373Y-55285800D01*
X142627367Y-55285799D01*
X142622284Y-55284894D01*
X142548452Y-55283992D01*
X142404081Y-55282228D01*
X142404079Y-55282228D01*
X142398911Y-55282165D01*
X142178091Y-55315955D01*
X141965756Y-55385357D01*
X141927221Y-55405417D01*
X141775372Y-55484465D01*
X141767607Y-55488507D01*
X141763474Y-55491610D01*
X141763471Y-55491612D01*
X141593100Y-55619530D01*
X141588965Y-55622635D01*
X141434629Y-55784138D01*
X141431715Y-55788410D01*
X141431714Y-55788411D01*
X141423298Y-55800749D01*
X141308743Y-55968680D01*
X141214688Y-56171305D01*
X141154989Y-56386570D01*
X141131251Y-56608695D01*
X138021902Y-56608695D01*
X137994527Y-56524444D01*
X137899040Y-56359056D01*
X137771253Y-56217134D01*
X137616752Y-56104882D01*
X137610724Y-56102198D01*
X137610722Y-56102197D01*
X137448319Y-56029891D01*
X137448318Y-56029891D01*
X137442288Y-56027206D01*
X137348887Y-56007353D01*
X137261944Y-55988872D01*
X137261939Y-55988872D01*
X137255487Y-55987500D01*
X137064513Y-55987500D01*
X137058061Y-55988872D01*
X137058056Y-55988872D01*
X136971113Y-56007353D01*
X136877712Y-56027206D01*
X136871682Y-56029891D01*
X136871681Y-56029891D01*
X136709278Y-56102197D01*
X136709276Y-56102198D01*
X136703248Y-56104882D01*
X136548747Y-56217134D01*
X136420960Y-56359056D01*
X136325473Y-56524444D01*
X136266458Y-56706072D01*
X136265768Y-56712633D01*
X136265768Y-56712635D01*
X136252722Y-56836767D01*
X136246496Y-56896000D01*
X131877431Y-56896000D01*
X131891625Y-56760943D01*
X131892315Y-56754378D01*
X131887238Y-56706072D01*
X131873043Y-56571013D01*
X131873043Y-56571011D01*
X131872353Y-56564450D01*
X131813338Y-56382822D01*
X131808792Y-56374947D01*
X131721152Y-56223152D01*
X131717851Y-56217434D01*
X131709105Y-56207720D01*
X131594486Y-56080423D01*
X131594485Y-56080422D01*
X131590064Y-56075512D01*
X131469843Y-55988166D01*
X131440905Y-55967141D01*
X131440904Y-55967140D01*
X131435563Y-55963260D01*
X131429535Y-55960576D01*
X131429533Y-55960575D01*
X131267130Y-55888269D01*
X131267129Y-55888269D01*
X131261099Y-55885584D01*
X131167698Y-55865731D01*
X131080755Y-55847250D01*
X131080750Y-55847250D01*
X131074298Y-55845878D01*
X130883324Y-55845878D01*
X130876872Y-55847250D01*
X130876867Y-55847250D01*
X130789924Y-55865731D01*
X130696523Y-55885584D01*
X130690493Y-55888269D01*
X130690492Y-55888269D01*
X130528089Y-55960575D01*
X130528087Y-55960576D01*
X130522059Y-55963260D01*
X130516718Y-55967140D01*
X130516717Y-55967141D01*
X130487779Y-55988166D01*
X130367558Y-56075512D01*
X130363137Y-56080422D01*
X130363136Y-56080423D01*
X130248518Y-56207720D01*
X130239771Y-56217434D01*
X130236470Y-56223152D01*
X130148831Y-56374947D01*
X130144284Y-56382822D01*
X130085269Y-56564450D01*
X130084579Y-56571011D01*
X130084579Y-56571013D01*
X130070384Y-56706072D01*
X130065307Y-56754378D01*
X128598209Y-56754378D01*
X128655542Y-56577928D01*
X128657619Y-56558172D01*
X128674814Y-56394565D01*
X128675504Y-56388000D01*
X128657577Y-56217434D01*
X128656232Y-56204635D01*
X128656232Y-56204633D01*
X128655542Y-56198072D01*
X128596527Y-56016444D01*
X128588529Y-56002590D01*
X128520975Y-55885584D01*
X128501040Y-55851056D01*
X128468509Y-55814926D01*
X128377675Y-55714045D01*
X128377674Y-55714044D01*
X128373253Y-55709134D01*
X128218752Y-55596882D01*
X128212724Y-55594198D01*
X128212722Y-55594197D01*
X128050319Y-55521891D01*
X128050318Y-55521891D01*
X128044288Y-55519206D01*
X127931721Y-55495279D01*
X127863944Y-55480872D01*
X127863939Y-55480872D01*
X127857487Y-55479500D01*
X127666513Y-55479500D01*
X127660061Y-55480872D01*
X127660056Y-55480872D01*
X127592279Y-55495279D01*
X127479712Y-55519206D01*
X127473682Y-55521891D01*
X127473681Y-55521891D01*
X127311278Y-55594197D01*
X127311276Y-55594198D01*
X127305248Y-55596882D01*
X127150747Y-55709134D01*
X127146326Y-55714044D01*
X127146325Y-55714045D01*
X127055492Y-55814926D01*
X127022960Y-55851056D01*
X127003025Y-55885584D01*
X126935472Y-56002590D01*
X126927473Y-56016444D01*
X126868458Y-56198072D01*
X126867768Y-56204633D01*
X126867768Y-56204635D01*
X126866423Y-56217434D01*
X126848496Y-56388000D01*
X116976759Y-56388000D01*
X116874319Y-56342391D01*
X116874318Y-56342391D01*
X116868288Y-56339706D01*
X116774888Y-56319853D01*
X116687944Y-56301372D01*
X116687939Y-56301372D01*
X116681487Y-56300000D01*
X116490513Y-56300000D01*
X116484061Y-56301372D01*
X116484056Y-56301372D01*
X116397113Y-56319853D01*
X116303712Y-56339706D01*
X116297682Y-56342391D01*
X116297681Y-56342391D01*
X116135278Y-56414697D01*
X116135276Y-56414698D01*
X116129248Y-56417382D01*
X116123907Y-56421262D01*
X116123906Y-56421263D01*
X116073843Y-56457636D01*
X115974747Y-56529634D01*
X115970326Y-56534544D01*
X115970325Y-56534545D01*
X115943399Y-56564450D01*
X115846960Y-56671556D01*
X115751473Y-56836944D01*
X115692458Y-57018572D01*
X115691768Y-57025133D01*
X115691768Y-57025135D01*
X115681705Y-57120882D01*
X115672496Y-57208500D01*
X113607347Y-57208500D01*
X113518311Y-57143811D01*
X113492094Y-57124763D01*
X113492093Y-57124762D01*
X113486752Y-57120882D01*
X113480724Y-57118198D01*
X113480722Y-57118197D01*
X113318319Y-57045891D01*
X113318318Y-57045891D01*
X113312288Y-57043206D01*
X113196395Y-57018572D01*
X113131944Y-57004872D01*
X113131939Y-57004872D01*
X113125487Y-57003500D01*
X112934513Y-57003500D01*
X112928061Y-57004872D01*
X112928056Y-57004872D01*
X112789340Y-57034358D01*
X112747712Y-57043206D01*
X112741679Y-57045892D01*
X112741676Y-57045893D01*
X112700248Y-57064338D01*
X112629881Y-57073772D01*
X112597752Y-57064338D01*
X112556324Y-57045893D01*
X112556321Y-57045892D01*
X112550288Y-57043206D01*
X112508660Y-57034358D01*
X112369944Y-57004872D01*
X112369939Y-57004872D01*
X112363487Y-57003500D01*
X112172513Y-57003500D01*
X112166061Y-57004872D01*
X112166056Y-57004872D01*
X112027340Y-57034358D01*
X111985712Y-57043206D01*
X111979679Y-57045892D01*
X111979676Y-57045893D01*
X111938248Y-57064338D01*
X111867881Y-57073772D01*
X111835752Y-57064338D01*
X111794324Y-57045893D01*
X111794321Y-57045892D01*
X111788288Y-57043206D01*
X111746660Y-57034358D01*
X111607944Y-57004872D01*
X111607939Y-57004872D01*
X111601487Y-57003500D01*
X111410513Y-57003500D01*
X111404061Y-57004872D01*
X111404056Y-57004872D01*
X111339605Y-57018572D01*
X111223712Y-57043206D01*
X111217682Y-57045891D01*
X111217681Y-57045891D01*
X111055278Y-57118197D01*
X111055276Y-57118198D01*
X111049248Y-57120882D01*
X111043907Y-57124762D01*
X111043906Y-57124763D01*
X111017689Y-57143811D01*
X110894747Y-57233134D01*
X110890326Y-57238044D01*
X110890325Y-57238045D01*
X110794854Y-57344077D01*
X110766960Y-57375056D01*
X110671473Y-57540444D01*
X110612458Y-57722072D01*
X110611768Y-57728633D01*
X110611768Y-57728635D01*
X110603149Y-57810641D01*
X110592496Y-57912000D01*
X104535601Y-57912000D01*
X104533826Y-57903654D01*
X104558942Y-57837248D01*
X104586294Y-57810641D01*
X104761328Y-57685792D01*
X104769200Y-57679139D01*
X104920052Y-57528812D01*
X104926730Y-57520965D01*
X105051003Y-57348020D01*
X105056313Y-57339183D01*
X105150670Y-57148267D01*
X105154469Y-57138672D01*
X105216377Y-56934910D01*
X105218555Y-56924837D01*
X105219986Y-56913962D01*
X105217775Y-56899778D01*
X105204617Y-56896000D01*
X100029225Y-56896000D01*
X100015694Y-56899973D01*
X100014257Y-56909966D01*
X100044565Y-57044446D01*
X100047645Y-57054275D01*
X100127770Y-57251603D01*
X100132413Y-57260794D01*
X100243694Y-57442388D01*
X100249777Y-57450699D01*
X100389213Y-57611667D01*
X100396580Y-57618883D01*
X100560434Y-57754916D01*
X100568881Y-57760831D01*
X100637969Y-57801203D01*
X100686693Y-57852842D01*
X100699764Y-57922625D01*
X100673033Y-57988396D01*
X100632584Y-58021752D01*
X100619607Y-58028507D01*
X100615474Y-58031610D01*
X100615471Y-58031612D01*
X100501745Y-58117000D01*
X100440965Y-58162635D01*
X100286629Y-58324138D01*
X100160743Y-58508680D01*
X100145003Y-58542590D01*
X100072290Y-58699237D01*
X100066688Y-58711305D01*
X100006989Y-58926570D01*
X99983251Y-59148695D01*
X97790000Y-59148695D01*
X97790000Y-54068695D01*
X99983251Y-54068695D01*
X99983548Y-54073848D01*
X99983548Y-54073851D01*
X99992956Y-54237020D01*
X99996110Y-54291715D01*
X99997247Y-54296761D01*
X99997248Y-54296767D01*
X100017765Y-54387803D01*
X100045222Y-54509639D01*
X100129266Y-54716616D01*
X100168638Y-54780866D01*
X100243291Y-54902688D01*
X100245987Y-54907088D01*
X100392250Y-55075938D01*
X100564126Y-55218632D01*
X100637955Y-55261774D01*
X100686679Y-55313412D01*
X100699750Y-55383195D01*
X100673019Y-55448967D01*
X100632562Y-55482327D01*
X100624457Y-55486546D01*
X100615738Y-55492036D01*
X100445433Y-55619905D01*
X100437726Y-55626748D01*
X100290590Y-55780717D01*
X100284104Y-55788727D01*
X100164098Y-55964649D01*
X100159000Y-55973623D01*
X100069338Y-56166783D01*
X100065775Y-56176470D01*
X100010389Y-56376183D01*
X100011912Y-56384607D01*
X100024292Y-56388000D01*
X105204344Y-56388000D01*
X105217875Y-56384027D01*
X105219180Y-56374947D01*
X105177214Y-56207875D01*
X105173894Y-56198124D01*
X105088972Y-56002814D01*
X105084105Y-55993739D01*
X104968426Y-55814926D01*
X104962136Y-55806757D01*
X104818806Y-55649240D01*
X104811273Y-55642215D01*
X104644139Y-55510222D01*
X104635556Y-55504520D01*
X104598602Y-55484120D01*
X104548631Y-55433687D01*
X104533859Y-55364245D01*
X104558975Y-55297839D01*
X104586327Y-55271232D01*
X104609797Y-55254491D01*
X104765860Y-55143173D01*
X104924096Y-54985489D01*
X104933670Y-54972166D01*
X105051435Y-54808277D01*
X105054453Y-54804077D01*
X105057623Y-54797664D01*
X105148247Y-54614299D01*
X111358795Y-54614299D01*
X111359485Y-54620864D01*
X111376302Y-54780866D01*
X111378757Y-54804227D01*
X111437772Y-54985855D01*
X111533259Y-55151243D01*
X111537677Y-55156150D01*
X111537678Y-55156151D01*
X111656624Y-55288254D01*
X111661046Y-55293165D01*
X111758879Y-55364245D01*
X111806217Y-55398638D01*
X111815547Y-55405417D01*
X111821575Y-55408101D01*
X111821577Y-55408102D01*
X111882818Y-55435368D01*
X111990011Y-55483093D01*
X112083412Y-55502946D01*
X112170355Y-55521427D01*
X112170360Y-55521427D01*
X112176812Y-55522799D01*
X112367786Y-55522799D01*
X112374238Y-55521427D01*
X112374243Y-55521427D01*
X112461187Y-55502946D01*
X112554587Y-55483093D01*
X112661780Y-55435368D01*
X112723021Y-55408102D01*
X112723023Y-55408101D01*
X112729051Y-55405417D01*
X112738382Y-55398638D01*
X112785719Y-55364245D01*
X112883552Y-55293165D01*
X112887974Y-55288254D01*
X113006920Y-55156151D01*
X113006921Y-55156150D01*
X113011339Y-55151243D01*
X113106826Y-54985855D01*
X113165841Y-54804227D01*
X113168297Y-54780866D01*
X113185113Y-54620864D01*
X113185803Y-54614299D01*
X113174053Y-54502500D01*
X113166531Y-54430934D01*
X113166531Y-54430932D01*
X113165841Y-54424371D01*
X113106826Y-54242743D01*
X113025568Y-54102000D01*
X115926496Y-54102000D01*
X115927186Y-54108564D01*
X115927186Y-54108565D01*
X115944863Y-54276749D01*
X115946458Y-54291928D01*
X116005473Y-54473556D01*
X116008776Y-54479278D01*
X116008777Y-54479279D01*
X116029069Y-54514425D01*
X116100960Y-54638944D01*
X116105378Y-54643851D01*
X116105379Y-54643852D01*
X116211631Y-54761857D01*
X116228747Y-54780866D01*
X116383248Y-54893118D01*
X116389276Y-54895802D01*
X116389278Y-54895803D01*
X116461756Y-54928072D01*
X116557712Y-54970794D01*
X116644009Y-54989137D01*
X116738056Y-55009128D01*
X116738061Y-55009128D01*
X116744513Y-55010500D01*
X116935487Y-55010500D01*
X116941939Y-55009128D01*
X116941944Y-55009128D01*
X117035991Y-54989137D01*
X117122288Y-54970794D01*
X117237037Y-54919705D01*
X117283469Y-54899032D01*
X117353836Y-54889598D01*
X117418133Y-54919705D01*
X117455947Y-54979793D01*
X117460028Y-55027309D01*
X117450496Y-55118000D01*
X117451186Y-55124565D01*
X117469398Y-55297839D01*
X117470458Y-55307928D01*
X117529473Y-55489556D01*
X117532776Y-55495278D01*
X117532777Y-55495279D01*
X117545799Y-55517834D01*
X117624960Y-55654944D01*
X117629378Y-55659851D01*
X117629379Y-55659852D01*
X117748325Y-55791955D01*
X117752747Y-55796866D01*
X117907248Y-55909118D01*
X117913276Y-55911802D01*
X117913278Y-55911803D01*
X118031416Y-55964401D01*
X118081712Y-55986794D01*
X118156026Y-56002590D01*
X118262056Y-56025128D01*
X118262061Y-56025128D01*
X118268513Y-56026500D01*
X118459487Y-56026500D01*
X118465939Y-56025128D01*
X118465944Y-56025128D01*
X118571974Y-56002590D01*
X118646288Y-55986794D01*
X118696584Y-55964401D01*
X118814722Y-55911803D01*
X118814724Y-55911802D01*
X118820752Y-55909118D01*
X118975253Y-55796866D01*
X118979675Y-55791955D01*
X119098621Y-55659852D01*
X119098622Y-55659851D01*
X119103040Y-55654944D01*
X119182201Y-55517834D01*
X119195223Y-55495279D01*
X119195224Y-55495278D01*
X119198527Y-55489556D01*
X119257542Y-55307928D01*
X119258603Y-55297839D01*
X119276814Y-55124565D01*
X119277504Y-55118000D01*
X119267972Y-55027309D01*
X119280744Y-54957471D01*
X119329246Y-54905624D01*
X119398079Y-54888230D01*
X119444531Y-54899032D01*
X119490964Y-54919705D01*
X119605712Y-54970794D01*
X119692009Y-54989137D01*
X119786056Y-55009128D01*
X119786061Y-55009128D01*
X119792513Y-55010500D01*
X119983487Y-55010500D01*
X119989939Y-55009128D01*
X119989944Y-55009128D01*
X120083991Y-54989137D01*
X120170288Y-54970794D01*
X120266244Y-54928072D01*
X120338722Y-54895803D01*
X120338724Y-54895802D01*
X120344752Y-54893118D01*
X120499253Y-54780866D01*
X120516369Y-54761857D01*
X120622621Y-54643852D01*
X120622622Y-54643851D01*
X120627040Y-54638944D01*
X120698931Y-54514425D01*
X120719223Y-54479279D01*
X120719224Y-54479278D01*
X120722527Y-54473556D01*
X120781542Y-54291928D01*
X120783138Y-54276749D01*
X120800814Y-54108565D01*
X120800814Y-54108564D01*
X120801504Y-54102000D01*
X120786503Y-53959271D01*
X120782232Y-53918635D01*
X120782232Y-53918633D01*
X120781542Y-53912072D01*
X120722527Y-53730444D01*
X120709178Y-53707322D01*
X120643751Y-53594000D01*
X125324496Y-53594000D01*
X125325186Y-53600565D01*
X125340420Y-53745505D01*
X125344458Y-53783928D01*
X125403473Y-53965556D01*
X125498960Y-54130944D01*
X125503378Y-54135851D01*
X125503379Y-54135852D01*
X125622325Y-54267955D01*
X125626747Y-54272866D01*
X125781248Y-54385118D01*
X125787276Y-54387802D01*
X125787278Y-54387803D01*
X125949681Y-54460109D01*
X125955712Y-54462794D01*
X126049112Y-54482647D01*
X126136056Y-54501128D01*
X126136061Y-54501128D01*
X126142513Y-54502500D01*
X126333487Y-54502500D01*
X126339939Y-54501128D01*
X126339944Y-54501128D01*
X126426888Y-54482647D01*
X126520288Y-54462794D01*
X126526319Y-54460109D01*
X126688722Y-54387803D01*
X126688724Y-54387802D01*
X126694752Y-54385118D01*
X126849253Y-54272866D01*
X126853675Y-54267955D01*
X126972621Y-54135852D01*
X126972622Y-54135851D01*
X126977040Y-54130944D01*
X127072527Y-53965556D01*
X127131542Y-53783928D01*
X127135581Y-53745505D01*
X127150814Y-53600565D01*
X127151504Y-53594000D01*
X127145446Y-53536365D01*
X127132232Y-53410635D01*
X127132232Y-53410633D01*
X127131542Y-53404072D01*
X127072527Y-53222444D01*
X127038249Y-53163072D01*
X126980341Y-53062774D01*
X126977040Y-53057056D01*
X126898475Y-52969800D01*
X126853675Y-52920045D01*
X126853674Y-52920044D01*
X126849253Y-52915134D01*
X126737303Y-52833797D01*
X126700094Y-52806763D01*
X126700093Y-52806762D01*
X126694752Y-52802882D01*
X126688724Y-52800198D01*
X126688722Y-52800197D01*
X126526319Y-52727891D01*
X126526318Y-52727891D01*
X126520288Y-52725206D01*
X126426887Y-52705353D01*
X126339944Y-52686872D01*
X126339939Y-52686872D01*
X126333487Y-52685500D01*
X126142513Y-52685500D01*
X126136061Y-52686872D01*
X126136056Y-52686872D01*
X126049113Y-52705353D01*
X125955712Y-52725206D01*
X125949682Y-52727891D01*
X125949681Y-52727891D01*
X125787278Y-52800197D01*
X125787276Y-52800198D01*
X125781248Y-52802882D01*
X125775907Y-52806762D01*
X125775906Y-52806763D01*
X125738697Y-52833797D01*
X125626747Y-52915134D01*
X125622326Y-52920044D01*
X125622325Y-52920045D01*
X125577526Y-52969800D01*
X125498960Y-53057056D01*
X125495659Y-53062774D01*
X125437752Y-53163072D01*
X125403473Y-53222444D01*
X125344458Y-53404072D01*
X125343768Y-53410633D01*
X125343768Y-53410635D01*
X125330554Y-53536365D01*
X125324496Y-53594000D01*
X120643751Y-53594000D01*
X120641407Y-53589940D01*
X120627040Y-53565056D01*
X120530503Y-53457840D01*
X120503675Y-53428045D01*
X120503674Y-53428044D01*
X120499253Y-53423134D01*
X120344752Y-53310882D01*
X120338724Y-53308198D01*
X120338722Y-53308197D01*
X120176319Y-53235891D01*
X120176318Y-53235891D01*
X120170288Y-53233206D01*
X120057570Y-53209247D01*
X119995097Y-53175518D01*
X119960775Y-53113369D01*
X119965503Y-53042530D01*
X120007779Y-52985492D01*
X120057570Y-52962753D01*
X120170288Y-52938794D01*
X120176319Y-52936109D01*
X120338722Y-52863803D01*
X120338724Y-52863802D01*
X120344752Y-52861118D01*
X120499253Y-52748866D01*
X120503675Y-52743955D01*
X120622621Y-52611852D01*
X120622622Y-52611851D01*
X120627040Y-52606944D01*
X120643751Y-52578000D01*
X121768496Y-52578000D01*
X121769186Y-52584565D01*
X121787364Y-52757516D01*
X121788458Y-52767928D01*
X121847473Y-52949556D01*
X121850776Y-52955278D01*
X121850777Y-52955279D01*
X121868221Y-52985492D01*
X121942960Y-53114944D01*
X121947378Y-53119851D01*
X121947379Y-53119852D01*
X121987214Y-53164093D01*
X122070747Y-53256866D01*
X122083948Y-53266457D01*
X122203064Y-53353000D01*
X122225248Y-53369118D01*
X122231276Y-53371802D01*
X122231278Y-53371803D01*
X122359027Y-53428680D01*
X122399712Y-53446794D01*
X122474026Y-53462590D01*
X122580056Y-53485128D01*
X122580061Y-53485128D01*
X122586513Y-53486500D01*
X122777487Y-53486500D01*
X122783939Y-53485128D01*
X122783944Y-53485128D01*
X122889974Y-53462590D01*
X122964288Y-53446794D01*
X123004973Y-53428680D01*
X123132722Y-53371803D01*
X123132724Y-53371802D01*
X123138752Y-53369118D01*
X123160937Y-53353000D01*
X123280052Y-53266457D01*
X123293253Y-53256866D01*
X123376786Y-53164093D01*
X123416621Y-53119852D01*
X123416622Y-53119851D01*
X123421040Y-53114944D01*
X123495779Y-52985492D01*
X123513223Y-52955279D01*
X123513224Y-52955278D01*
X123516527Y-52949556D01*
X123575542Y-52767928D01*
X123576637Y-52757516D01*
X123594814Y-52584565D01*
X123595504Y-52578000D01*
X127864496Y-52578000D01*
X127865186Y-52584565D01*
X127883364Y-52757516D01*
X127884458Y-52767928D01*
X127943473Y-52949556D01*
X127946776Y-52955278D01*
X127946777Y-52955279D01*
X127964221Y-52985492D01*
X128038960Y-53114944D01*
X128043378Y-53119851D01*
X128043379Y-53119852D01*
X128083214Y-53164093D01*
X128166747Y-53256866D01*
X128179948Y-53266457D01*
X128299064Y-53353000D01*
X128321248Y-53369118D01*
X128327276Y-53371802D01*
X128327278Y-53371803D01*
X128455027Y-53428680D01*
X128495712Y-53446794D01*
X128570026Y-53462590D01*
X128676056Y-53485128D01*
X128676061Y-53485128D01*
X128682513Y-53486500D01*
X128873487Y-53486500D01*
X128879939Y-53485128D01*
X128879944Y-53485128D01*
X128985974Y-53462590D01*
X129060288Y-53446794D01*
X129100973Y-53428680D01*
X129228722Y-53371803D01*
X129228724Y-53371802D01*
X129234752Y-53369118D01*
X129256937Y-53353000D01*
X134455496Y-53353000D01*
X134475458Y-53542928D01*
X134534473Y-53724556D01*
X134537776Y-53730278D01*
X134537777Y-53730279D01*
X134571686Y-53789010D01*
X134629960Y-53889944D01*
X134757747Y-54031866D01*
X134801373Y-54063562D01*
X134894116Y-54130944D01*
X134912248Y-54144118D01*
X134918276Y-54146802D01*
X134918278Y-54146803D01*
X135080681Y-54219109D01*
X135086712Y-54221794D01*
X135173338Y-54240207D01*
X135267056Y-54260128D01*
X135267061Y-54260128D01*
X135273513Y-54261500D01*
X135464487Y-54261500D01*
X135470939Y-54260128D01*
X135470944Y-54260128D01*
X135564662Y-54240207D01*
X135651288Y-54221794D01*
X135657319Y-54219109D01*
X135819722Y-54146803D01*
X135819724Y-54146802D01*
X135825752Y-54144118D01*
X135843885Y-54130944D01*
X135936627Y-54063562D01*
X135980253Y-54031866D01*
X136108040Y-53889944D01*
X136166314Y-53789010D01*
X136200223Y-53730279D01*
X136200224Y-53730278D01*
X136203527Y-53724556D01*
X136262542Y-53542928D01*
X136282504Y-53353000D01*
X136271884Y-53251955D01*
X136263232Y-53169635D01*
X136263232Y-53169633D01*
X136262542Y-53163072D01*
X136203527Y-52981444D01*
X136186304Y-52951612D01*
X136135607Y-52863803D01*
X136108040Y-52816056D01*
X136092523Y-52798822D01*
X135984675Y-52679045D01*
X135984674Y-52679044D01*
X135980253Y-52674134D01*
X135856972Y-52584565D01*
X135831094Y-52565763D01*
X135831093Y-52565762D01*
X135825752Y-52561882D01*
X135819724Y-52559198D01*
X135819722Y-52559197D01*
X135657319Y-52486891D01*
X135657318Y-52486891D01*
X135651288Y-52484206D01*
X135557887Y-52464353D01*
X135470944Y-52445872D01*
X135470939Y-52445872D01*
X135464487Y-52444500D01*
X135273513Y-52444500D01*
X135267061Y-52445872D01*
X135267056Y-52445872D01*
X135180113Y-52464353D01*
X135086712Y-52484206D01*
X135080682Y-52486891D01*
X135080681Y-52486891D01*
X134918278Y-52559197D01*
X134918276Y-52559198D01*
X134912248Y-52561882D01*
X134906907Y-52565762D01*
X134906906Y-52565763D01*
X134881028Y-52584565D01*
X134757747Y-52674134D01*
X134753326Y-52679044D01*
X134753325Y-52679045D01*
X134645478Y-52798822D01*
X134629960Y-52816056D01*
X134602393Y-52863803D01*
X134551697Y-52951612D01*
X134534473Y-52981444D01*
X134475458Y-53163072D01*
X134474768Y-53169633D01*
X134474768Y-53169635D01*
X134466116Y-53251955D01*
X134455496Y-53353000D01*
X129256937Y-53353000D01*
X129376052Y-53266457D01*
X129389253Y-53256866D01*
X129472786Y-53164093D01*
X129512621Y-53119852D01*
X129512622Y-53119851D01*
X129517040Y-53114944D01*
X129591779Y-52985492D01*
X129609223Y-52955279D01*
X129609224Y-52955278D01*
X129612527Y-52949556D01*
X129671542Y-52767928D01*
X129672637Y-52757516D01*
X129690814Y-52584565D01*
X129691504Y-52578000D01*
X129676322Y-52433551D01*
X129672232Y-52394635D01*
X129672232Y-52394633D01*
X129671542Y-52388072D01*
X129612527Y-52206444D01*
X129597849Y-52181020D01*
X129533751Y-52070000D01*
X129517040Y-52041056D01*
X129389253Y-51899134D01*
X129234752Y-51786882D01*
X129228724Y-51784198D01*
X129228722Y-51784197D01*
X129066319Y-51711891D01*
X129066318Y-51711891D01*
X129060288Y-51709206D01*
X128966888Y-51689353D01*
X128879944Y-51670872D01*
X128879939Y-51670872D01*
X128873487Y-51669500D01*
X128682513Y-51669500D01*
X128676061Y-51670872D01*
X128676056Y-51670872D01*
X128589113Y-51689353D01*
X128495712Y-51709206D01*
X128489682Y-51711891D01*
X128489681Y-51711891D01*
X128327278Y-51784197D01*
X128327276Y-51784198D01*
X128321248Y-51786882D01*
X128166747Y-51899134D01*
X128038960Y-52041056D01*
X128022249Y-52070000D01*
X127958152Y-52181020D01*
X127943473Y-52206444D01*
X127884458Y-52388072D01*
X127883768Y-52394633D01*
X127883768Y-52394635D01*
X127879678Y-52433551D01*
X127864496Y-52578000D01*
X123595504Y-52578000D01*
X123580322Y-52433551D01*
X123576232Y-52394635D01*
X123576232Y-52394633D01*
X123575542Y-52388072D01*
X123516527Y-52206444D01*
X123501849Y-52181020D01*
X123437751Y-52070000D01*
X123421040Y-52041056D01*
X123294312Y-51900310D01*
X123263594Y-51836303D01*
X123272359Y-51765849D01*
X123294312Y-51731690D01*
X123416621Y-51595852D01*
X123416622Y-51595851D01*
X123421040Y-51590944D01*
X123516527Y-51425556D01*
X123575542Y-51243928D01*
X123580177Y-51199834D01*
X123594814Y-51060565D01*
X123595504Y-51054000D01*
X123594814Y-51047435D01*
X123576232Y-50870635D01*
X123576232Y-50870633D01*
X123575542Y-50864072D01*
X123516527Y-50682444D01*
X123437462Y-50545499D01*
X123420724Y-50476505D01*
X123437462Y-50419500D01*
X123466810Y-50368669D01*
X123495695Y-50318638D01*
X123513223Y-50288279D01*
X123513224Y-50288278D01*
X123516527Y-50282556D01*
X123554724Y-50165000D01*
X131928496Y-50165000D01*
X131929186Y-50171565D01*
X131946197Y-50333412D01*
X131948458Y-50354928D01*
X132007473Y-50536556D01*
X132010776Y-50542278D01*
X132010777Y-50542279D01*
X132044686Y-50601010D01*
X132102960Y-50701944D01*
X132107378Y-50706851D01*
X132107379Y-50706852D01*
X132128471Y-50730277D01*
X132230747Y-50843866D01*
X132385248Y-50956118D01*
X132391276Y-50958802D01*
X132391278Y-50958803D01*
X132553681Y-51031109D01*
X132559712Y-51033794D01*
X132623888Y-51047435D01*
X132740056Y-51072128D01*
X132740061Y-51072128D01*
X132746513Y-51073500D01*
X132937487Y-51073500D01*
X132943939Y-51072128D01*
X132943944Y-51072128D01*
X133060112Y-51047435D01*
X133124288Y-51033794D01*
X133130319Y-51031109D01*
X133292722Y-50958803D01*
X133292724Y-50958802D01*
X133298752Y-50956118D01*
X133453253Y-50843866D01*
X133555529Y-50730277D01*
X133576621Y-50706852D01*
X133576622Y-50706851D01*
X133581040Y-50701944D01*
X133639314Y-50601010D01*
X133673223Y-50542279D01*
X133673224Y-50542278D01*
X133676527Y-50536556D01*
X133735542Y-50354928D01*
X133737804Y-50333412D01*
X133754814Y-50171565D01*
X133755504Y-50165000D01*
X133737735Y-49995938D01*
X133736232Y-49981635D01*
X133736232Y-49981633D01*
X133735542Y-49975072D01*
X133676527Y-49793444D01*
X133581040Y-49628056D01*
X133501254Y-49539444D01*
X133457675Y-49491045D01*
X133457674Y-49491044D01*
X133453253Y-49486134D01*
X133298752Y-49373882D01*
X133292724Y-49371198D01*
X133292722Y-49371197D01*
X133130319Y-49298891D01*
X133130318Y-49298891D01*
X133124288Y-49296206D01*
X133029123Y-49275978D01*
X132943944Y-49257872D01*
X132943939Y-49257872D01*
X132937487Y-49256500D01*
X132746513Y-49256500D01*
X132740061Y-49257872D01*
X132740056Y-49257872D01*
X132654877Y-49275978D01*
X132559712Y-49296206D01*
X132553682Y-49298891D01*
X132553681Y-49298891D01*
X132391278Y-49371197D01*
X132391276Y-49371198D01*
X132385248Y-49373882D01*
X132230747Y-49486134D01*
X132226326Y-49491044D01*
X132226325Y-49491045D01*
X132182747Y-49539444D01*
X132102960Y-49628056D01*
X132007473Y-49793444D01*
X131948458Y-49975072D01*
X131947768Y-49981633D01*
X131947768Y-49981635D01*
X131946265Y-49995938D01*
X131928496Y-50165000D01*
X123554724Y-50165000D01*
X123575542Y-50100928D01*
X123588009Y-49982316D01*
X123594814Y-49917565D01*
X123595504Y-49911000D01*
X123575542Y-49721072D01*
X123516527Y-49539444D01*
X123421040Y-49374056D01*
X123367789Y-49314914D01*
X123297675Y-49237045D01*
X123297674Y-49237044D01*
X123293253Y-49232134D01*
X123138752Y-49119882D01*
X123132724Y-49117198D01*
X123132722Y-49117197D01*
X122970319Y-49044891D01*
X122970318Y-49044891D01*
X122964288Y-49042206D01*
X122853448Y-49018646D01*
X122783944Y-49003872D01*
X122783939Y-49003872D01*
X122777487Y-49002500D01*
X122586513Y-49002500D01*
X122580061Y-49003872D01*
X122580056Y-49003872D01*
X122510552Y-49018646D01*
X122399712Y-49042206D01*
X122393682Y-49044891D01*
X122393681Y-49044891D01*
X122231278Y-49117197D01*
X122231276Y-49117198D01*
X122225248Y-49119882D01*
X122070747Y-49232134D01*
X122066326Y-49237044D01*
X122066325Y-49237045D01*
X121996212Y-49314914D01*
X121942960Y-49374056D01*
X121847473Y-49539444D01*
X121788458Y-49721072D01*
X121768496Y-49911000D01*
X121769186Y-49917565D01*
X121775992Y-49982316D01*
X121788458Y-50100928D01*
X121847473Y-50282556D01*
X121850776Y-50288278D01*
X121850777Y-50288279D01*
X121868305Y-50318638D01*
X121897191Y-50368669D01*
X121926538Y-50419500D01*
X121943276Y-50488495D01*
X121926538Y-50545499D01*
X121847473Y-50682444D01*
X121788458Y-50864072D01*
X121787768Y-50870633D01*
X121787768Y-50870635D01*
X121769186Y-51047435D01*
X121768496Y-51054000D01*
X121769186Y-51060565D01*
X121783824Y-51199834D01*
X121788458Y-51243928D01*
X121847473Y-51425556D01*
X121942960Y-51590944D01*
X121947378Y-51595851D01*
X121947379Y-51595852D01*
X122069688Y-51731690D01*
X122100406Y-51795697D01*
X122091641Y-51866151D01*
X122069688Y-51900310D01*
X121942960Y-52041056D01*
X121926249Y-52070000D01*
X121862152Y-52181020D01*
X121847473Y-52206444D01*
X121788458Y-52388072D01*
X121787768Y-52394633D01*
X121787768Y-52394635D01*
X121783678Y-52433551D01*
X121768496Y-52578000D01*
X120643751Y-52578000D01*
X120722527Y-52441556D01*
X120781542Y-52259928D01*
X120785544Y-52221857D01*
X120800814Y-52076565D01*
X120801504Y-52070000D01*
X120783669Y-51900310D01*
X120782232Y-51886635D01*
X120782232Y-51886633D01*
X120781542Y-51880072D01*
X120722527Y-51698444D01*
X120627040Y-51533056D01*
X120499253Y-51391134D01*
X120344752Y-51278882D01*
X120338724Y-51276198D01*
X120338722Y-51276197D01*
X120176319Y-51203891D01*
X120176318Y-51203891D01*
X120170288Y-51201206D01*
X120076888Y-51181353D01*
X119989944Y-51162872D01*
X119989939Y-51162872D01*
X119983487Y-51161500D01*
X119792513Y-51161500D01*
X119786061Y-51162872D01*
X119786056Y-51162872D01*
X119699112Y-51181353D01*
X119605712Y-51201206D01*
X119599682Y-51203891D01*
X119599681Y-51203891D01*
X119437278Y-51276197D01*
X119437276Y-51276198D01*
X119431248Y-51278882D01*
X119276747Y-51391134D01*
X119148960Y-51533056D01*
X119053473Y-51698444D01*
X118994458Y-51880072D01*
X118993768Y-51886633D01*
X118993768Y-51886635D01*
X118992331Y-51900310D01*
X118974496Y-52070000D01*
X118975186Y-52076565D01*
X118990457Y-52221857D01*
X118994458Y-52259928D01*
X119053473Y-52441556D01*
X119148960Y-52606944D01*
X119153378Y-52611851D01*
X119153379Y-52611852D01*
X119272325Y-52743955D01*
X119276747Y-52748866D01*
X119431248Y-52861118D01*
X119437276Y-52863802D01*
X119437278Y-52863803D01*
X119599681Y-52936109D01*
X119605712Y-52938794D01*
X119718430Y-52962753D01*
X119780903Y-52996482D01*
X119815225Y-53058631D01*
X119810497Y-53129470D01*
X119768221Y-53186508D01*
X119718430Y-53209247D01*
X119605712Y-53233206D01*
X119599682Y-53235891D01*
X119599681Y-53235891D01*
X119437278Y-53308197D01*
X119437276Y-53308198D01*
X119431248Y-53310882D01*
X119276747Y-53423134D01*
X119272326Y-53428044D01*
X119272325Y-53428045D01*
X119245498Y-53457840D01*
X119148960Y-53565056D01*
X119134593Y-53589940D01*
X119066823Y-53707322D01*
X119053473Y-53730444D01*
X118994458Y-53912072D01*
X118993768Y-53918633D01*
X118993768Y-53918635D01*
X118989497Y-53959271D01*
X118974496Y-54102000D01*
X118975186Y-54108564D01*
X118984028Y-54192690D01*
X118971256Y-54262529D01*
X118922754Y-54314376D01*
X118853921Y-54331770D01*
X118807469Y-54320968D01*
X118652319Y-54251891D01*
X118652318Y-54251891D01*
X118646288Y-54249206D01*
X118552887Y-54229353D01*
X118465944Y-54210872D01*
X118465939Y-54210872D01*
X118459487Y-54209500D01*
X118268513Y-54209500D01*
X118262061Y-54210872D01*
X118262056Y-54210872D01*
X118175113Y-54229353D01*
X118081712Y-54249206D01*
X118075682Y-54251891D01*
X118075681Y-54251891D01*
X117920531Y-54320968D01*
X117850164Y-54330402D01*
X117785867Y-54300295D01*
X117748053Y-54240207D01*
X117743972Y-54192690D01*
X117752814Y-54108564D01*
X117753504Y-54102000D01*
X117738503Y-53959271D01*
X117734232Y-53918635D01*
X117734232Y-53918633D01*
X117733542Y-53912072D01*
X117674527Y-53730444D01*
X117661178Y-53707322D01*
X117593407Y-53589940D01*
X117579040Y-53565056D01*
X117482503Y-53457840D01*
X117455675Y-53428045D01*
X117455674Y-53428044D01*
X117451253Y-53423134D01*
X117296752Y-53310882D01*
X117290724Y-53308198D01*
X117290722Y-53308197D01*
X117128319Y-53235891D01*
X117128318Y-53235891D01*
X117122288Y-53233206D01*
X117028888Y-53213353D01*
X116941944Y-53194872D01*
X116941939Y-53194872D01*
X116935487Y-53193500D01*
X116744513Y-53193500D01*
X116738061Y-53194872D01*
X116738056Y-53194872D01*
X116651112Y-53213353D01*
X116557712Y-53233206D01*
X116551682Y-53235891D01*
X116551681Y-53235891D01*
X116389278Y-53308197D01*
X116389276Y-53308198D01*
X116383248Y-53310882D01*
X116228747Y-53423134D01*
X116224326Y-53428044D01*
X116224325Y-53428045D01*
X116197498Y-53457840D01*
X116100960Y-53565056D01*
X116086593Y-53589940D01*
X116018823Y-53707322D01*
X116005473Y-53730444D01*
X115946458Y-53912072D01*
X115945768Y-53918633D01*
X115945768Y-53918635D01*
X115941497Y-53959271D01*
X115926496Y-54102000D01*
X113025568Y-54102000D01*
X113011339Y-54077355D01*
X112883552Y-53935433D01*
X112729051Y-53823181D01*
X112723023Y-53820497D01*
X112723021Y-53820496D01*
X112560618Y-53748190D01*
X112560617Y-53748190D01*
X112554587Y-53745505D01*
X112456030Y-53724556D01*
X112374243Y-53707171D01*
X112374238Y-53707171D01*
X112367786Y-53705799D01*
X112176812Y-53705799D01*
X112170360Y-53707171D01*
X112170355Y-53707171D01*
X112088568Y-53724556D01*
X111990011Y-53745505D01*
X111983981Y-53748190D01*
X111983980Y-53748190D01*
X111821577Y-53820496D01*
X111821575Y-53820497D01*
X111815547Y-53823181D01*
X111661046Y-53935433D01*
X111533259Y-54077355D01*
X111437772Y-54242743D01*
X111378757Y-54424371D01*
X111378067Y-54430932D01*
X111378067Y-54430934D01*
X111370545Y-54502500D01*
X111358795Y-54614299D01*
X105148247Y-54614299D01*
X105151136Y-54608453D01*
X105151137Y-54608451D01*
X105153430Y-54603811D01*
X105218370Y-54390069D01*
X105247529Y-54168590D01*
X105249156Y-54102000D01*
X105230852Y-53879361D01*
X105176431Y-53662702D01*
X105087354Y-53457840D01*
X105004682Y-53330048D01*
X104968822Y-53274617D01*
X104968820Y-53274614D01*
X104966014Y-53270277D01*
X104815670Y-53105051D01*
X104811619Y-53101852D01*
X104811615Y-53101848D01*
X104644414Y-52969800D01*
X104644410Y-52969798D01*
X104640359Y-52966598D01*
X104599053Y-52943796D01*
X104549084Y-52893364D01*
X104534312Y-52823921D01*
X104543805Y-52798822D01*
X113313115Y-52798822D01*
X113313805Y-52805387D01*
X113332000Y-52978500D01*
X113333077Y-52988750D01*
X113392092Y-53170378D01*
X113487579Y-53335766D01*
X113491997Y-53340673D01*
X113491998Y-53340674D01*
X113509008Y-53359565D01*
X113615366Y-53477688D01*
X113769867Y-53589940D01*
X113775895Y-53592624D01*
X113775897Y-53592625D01*
X113933294Y-53662702D01*
X113944331Y-53667616D01*
X114037731Y-53687469D01*
X114124675Y-53705950D01*
X114124680Y-53705950D01*
X114131132Y-53707322D01*
X114322106Y-53707322D01*
X114328558Y-53705950D01*
X114328563Y-53705950D01*
X114415507Y-53687469D01*
X114508907Y-53667616D01*
X114519944Y-53662702D01*
X114677341Y-53592625D01*
X114677343Y-53592624D01*
X114683371Y-53589940D01*
X114837872Y-53477688D01*
X114944230Y-53359565D01*
X114961240Y-53340674D01*
X114961241Y-53340673D01*
X114965659Y-53335766D01*
X115061146Y-53170378D01*
X115120161Y-52988750D01*
X115121239Y-52978500D01*
X115139433Y-52805387D01*
X115140123Y-52798822D01*
X115135281Y-52752749D01*
X115120851Y-52615457D01*
X115120851Y-52615455D01*
X115120161Y-52608894D01*
X115061146Y-52427266D01*
X115042307Y-52394635D01*
X114968960Y-52267596D01*
X114965659Y-52261878D01*
X114943389Y-52237144D01*
X114842294Y-52124867D01*
X114842293Y-52124866D01*
X114837872Y-52119956D01*
X114683371Y-52007704D01*
X114677343Y-52005020D01*
X114677341Y-52005019D01*
X114514938Y-51932713D01*
X114514937Y-51932713D01*
X114508907Y-51930028D01*
X114415506Y-51910175D01*
X114328563Y-51891694D01*
X114328558Y-51891694D01*
X114322106Y-51890322D01*
X114131132Y-51890322D01*
X114124680Y-51891694D01*
X114124675Y-51891694D01*
X114037732Y-51910175D01*
X113944331Y-51930028D01*
X113938301Y-51932713D01*
X113938300Y-51932713D01*
X113775897Y-52005019D01*
X113775895Y-52005020D01*
X113769867Y-52007704D01*
X113615366Y-52119956D01*
X113610945Y-52124866D01*
X113610944Y-52124867D01*
X113509850Y-52237144D01*
X113487579Y-52261878D01*
X113484278Y-52267596D01*
X113410932Y-52394635D01*
X113392092Y-52427266D01*
X113333077Y-52608894D01*
X113332387Y-52615455D01*
X113332387Y-52615457D01*
X113317957Y-52752749D01*
X113313115Y-52798822D01*
X104543805Y-52798822D01*
X104559428Y-52757516D01*
X104586780Y-52730909D01*
X104650441Y-52685500D01*
X104765860Y-52603173D01*
X104924096Y-52445489D01*
X104937191Y-52427266D01*
X105051435Y-52268277D01*
X105054453Y-52264077D01*
X105057966Y-52256970D01*
X105151136Y-52068453D01*
X105151137Y-52068451D01*
X105153430Y-52063811D01*
X105218370Y-51850069D01*
X105247529Y-51628590D01*
X105249156Y-51562000D01*
X105230852Y-51339361D01*
X105176431Y-51122702D01*
X105087354Y-50917840D01*
X104966014Y-50730277D01*
X104815670Y-50565051D01*
X104811619Y-50561852D01*
X104811615Y-50561848D01*
X104644414Y-50429800D01*
X104644410Y-50429798D01*
X104640359Y-50426598D01*
X104599053Y-50403796D01*
X104549084Y-50353364D01*
X104534312Y-50283921D01*
X104559428Y-50217516D01*
X104586780Y-50190909D01*
X104632307Y-50158435D01*
X104765860Y-50063173D01*
X104924096Y-49905489D01*
X104983594Y-49822689D01*
X105051435Y-49728277D01*
X105054453Y-49724077D01*
X105075320Y-49681857D01*
X105151136Y-49528453D01*
X105151137Y-49528451D01*
X105153430Y-49523811D01*
X105218370Y-49310069D01*
X105247529Y-49088590D01*
X105248597Y-49044891D01*
X105249074Y-49025365D01*
X105249074Y-49025361D01*
X105249156Y-49022000D01*
X105230852Y-48799361D01*
X105176431Y-48582702D01*
X105087354Y-48377840D01*
X105047906Y-48316862D01*
X104968822Y-48194617D01*
X104968820Y-48194614D01*
X104966014Y-48190277D01*
X104962532Y-48186450D01*
X104818798Y-48028488D01*
X104787746Y-47964642D01*
X104796141Y-47894143D01*
X104841317Y-47839375D01*
X104867761Y-47825706D01*
X104974297Y-47785767D01*
X104982705Y-47782615D01*
X105099261Y-47695261D01*
X105186615Y-47578705D01*
X105237745Y-47442316D01*
X105244500Y-47380134D01*
X105244500Y-45583866D01*
X105237745Y-45521684D01*
X105186615Y-45385295D01*
X105099261Y-45268739D01*
X104982705Y-45181385D01*
X104846316Y-45130255D01*
X104784134Y-45123500D01*
X102987866Y-45123500D01*
X102925684Y-45130255D01*
X102789295Y-45181385D01*
X102672739Y-45268739D01*
X102585385Y-45385295D01*
X102582233Y-45393703D01*
X102540919Y-45503907D01*
X102498277Y-45560671D01*
X102431716Y-45585371D01*
X102362367Y-45570163D01*
X102329743Y-45544476D01*
X102279151Y-45488875D01*
X102279142Y-45488866D01*
X102275670Y-45485051D01*
X102271619Y-45481852D01*
X102271615Y-45481848D01*
X102104414Y-45349800D01*
X102104410Y-45349798D01*
X102100359Y-45346598D01*
X101904789Y-45238638D01*
X101899920Y-45236914D01*
X101899916Y-45236912D01*
X101699087Y-45165795D01*
X101699083Y-45165794D01*
X101694212Y-45164069D01*
X101689119Y-45163162D01*
X101689116Y-45163161D01*
X101479373Y-45125800D01*
X101479367Y-45125799D01*
X101474284Y-45124894D01*
X101400452Y-45123992D01*
X101256081Y-45122228D01*
X101256079Y-45122228D01*
X101250911Y-45122165D01*
X101030091Y-45155955D01*
X100817756Y-45225357D01*
X100619607Y-45328507D01*
X100615474Y-45331610D01*
X100615471Y-45331612D01*
X100445100Y-45459530D01*
X100440965Y-45462635D01*
X100401525Y-45503907D01*
X100347280Y-45560671D01*
X100286629Y-45624138D01*
X100160743Y-45808680D01*
X100066688Y-46011305D01*
X100006989Y-46226570D01*
X99983251Y-46448695D01*
X99983548Y-46453848D01*
X99983548Y-46453851D01*
X99989011Y-46548590D01*
X99996110Y-46671715D01*
X99997247Y-46676761D01*
X99997248Y-46676767D01*
X100017119Y-46764939D01*
X100045222Y-46889639D01*
X100129266Y-47096616D01*
X100131965Y-47101020D01*
X100204118Y-47218763D01*
X100245987Y-47287088D01*
X100392250Y-47455938D01*
X100564126Y-47598632D01*
X100625196Y-47634318D01*
X100637445Y-47641476D01*
X100686169Y-47693114D01*
X100699240Y-47762897D01*
X100672509Y-47828669D01*
X100632055Y-47862027D01*
X100619607Y-47868507D01*
X100615474Y-47871610D01*
X100615471Y-47871612D01*
X100491567Y-47964642D01*
X100440965Y-48002635D01*
X100286629Y-48164138D01*
X100160743Y-48348680D01*
X100066688Y-48551305D01*
X100006989Y-48766570D01*
X99983251Y-48988695D01*
X99983548Y-48993848D01*
X99983548Y-48993851D01*
X99989011Y-49088590D01*
X99996110Y-49211715D01*
X99997247Y-49216761D01*
X99997248Y-49216767D01*
X100014842Y-49294834D01*
X100045222Y-49429639D01*
X100129266Y-49636616D01*
X100177173Y-49714794D01*
X100243291Y-49822688D01*
X100245987Y-49827088D01*
X100392250Y-49995938D01*
X100564126Y-50138632D01*
X100598015Y-50158435D01*
X100637445Y-50181476D01*
X100686169Y-50233114D01*
X100699240Y-50302897D01*
X100672509Y-50368669D01*
X100632055Y-50402027D01*
X100619607Y-50408507D01*
X100615474Y-50411610D01*
X100615471Y-50411612D01*
X100475033Y-50517056D01*
X100440965Y-50542635D01*
X100286629Y-50704138D01*
X100160743Y-50888680D01*
X100128193Y-50958803D01*
X100074953Y-51073500D01*
X100066688Y-51091305D01*
X100006989Y-51306570D01*
X99983251Y-51528695D01*
X99983548Y-51533848D01*
X99983548Y-51533851D01*
X99991449Y-51670872D01*
X99996110Y-51751715D01*
X99997247Y-51756761D01*
X99997248Y-51756767D01*
X99999295Y-51765849D01*
X100045222Y-51969639D01*
X100129266Y-52176616D01*
X100176298Y-52253365D01*
X100243291Y-52362688D01*
X100245987Y-52367088D01*
X100392250Y-52535938D01*
X100564126Y-52678632D01*
X100634595Y-52719811D01*
X100637445Y-52721476D01*
X100686169Y-52773114D01*
X100699240Y-52842897D01*
X100672509Y-52908669D01*
X100632055Y-52942027D01*
X100619607Y-52948507D01*
X100615474Y-52951610D01*
X100615471Y-52951612D01*
X100475033Y-53057056D01*
X100440965Y-53082635D01*
X100437393Y-53086373D01*
X100341702Y-53186508D01*
X100286629Y-53244138D01*
X100283720Y-53248403D01*
X100283714Y-53248411D01*
X100275298Y-53260749D01*
X100160743Y-53428680D01*
X100136192Y-53481571D01*
X100084643Y-53592625D01*
X100066688Y-53631305D01*
X100006989Y-53846570D01*
X99983251Y-54068695D01*
X97790000Y-54068695D01*
X97790000Y-44840134D01*
X116243500Y-44840134D01*
X116250255Y-44902316D01*
X116301385Y-45038705D01*
X116388739Y-45155261D01*
X116505295Y-45242615D01*
X116641684Y-45293745D01*
X116703866Y-45300500D01*
X118500134Y-45300500D01*
X118562316Y-45293745D01*
X118698705Y-45242615D01*
X118815261Y-45155261D01*
X118902615Y-45038705D01*
X118924799Y-44979529D01*
X118946598Y-44921382D01*
X118989240Y-44864618D01*
X119055802Y-44839918D01*
X119125150Y-44855126D01*
X119159817Y-44883114D01*
X119188250Y-44915938D01*
X119360126Y-45058632D01*
X119364593Y-45061242D01*
X119446070Y-45108853D01*
X119494794Y-45160491D01*
X119508500Y-45217641D01*
X119508500Y-48641723D01*
X119488498Y-48709844D01*
X119446560Y-48749832D01*
X119443542Y-48751176D01*
X119289041Y-48863428D01*
X119284620Y-48868338D01*
X119284619Y-48868339D01*
X119243056Y-48914500D01*
X119161254Y-49005350D01*
X119065767Y-49170738D01*
X119006752Y-49352366D01*
X119006062Y-49358927D01*
X119006062Y-49358929D01*
X119004472Y-49374056D01*
X118986790Y-49542294D01*
X118987480Y-49548859D01*
X118996704Y-49636616D01*
X119006752Y-49732222D01*
X119065767Y-49913850D01*
X119161254Y-50079238D01*
X119165672Y-50084145D01*
X119165673Y-50084146D01*
X119253309Y-50181476D01*
X119289041Y-50221160D01*
X119373545Y-50282556D01*
X119433020Y-50325767D01*
X119443542Y-50333412D01*
X119449570Y-50336096D01*
X119449572Y-50336097D01*
X119601630Y-50403797D01*
X119618006Y-50411088D01*
X119706039Y-50429800D01*
X119798350Y-50449422D01*
X119798355Y-50449422D01*
X119804807Y-50450794D01*
X119995781Y-50450794D01*
X120002233Y-50449422D01*
X120002238Y-50449422D01*
X120094549Y-50429800D01*
X120182582Y-50411088D01*
X120198958Y-50403797D01*
X120351016Y-50336097D01*
X120351018Y-50336096D01*
X120357046Y-50333412D01*
X120367569Y-50325767D01*
X120427043Y-50282556D01*
X120511547Y-50221160D01*
X120547279Y-50181476D01*
X120634915Y-50084146D01*
X120634916Y-50084145D01*
X120639334Y-50079238D01*
X120734821Y-49913850D01*
X120793836Y-49732222D01*
X120803885Y-49636616D01*
X120813108Y-49548859D01*
X120813798Y-49542294D01*
X120796116Y-49374056D01*
X120794526Y-49358929D01*
X120794526Y-49358927D01*
X120793836Y-49352366D01*
X120781667Y-49314914D01*
X120775500Y-49275978D01*
X120775500Y-48006000D01*
X134468496Y-48006000D01*
X134469186Y-48012565D01*
X134487463Y-48186457D01*
X134488458Y-48195928D01*
X134547473Y-48377556D01*
X134642960Y-48542944D01*
X134770747Y-48684866D01*
X134925248Y-48797118D01*
X134931276Y-48799802D01*
X134931278Y-48799803D01*
X135093681Y-48872109D01*
X135099712Y-48874794D01*
X135193112Y-48894647D01*
X135280056Y-48913128D01*
X135280061Y-48913128D01*
X135286513Y-48914500D01*
X135477487Y-48914500D01*
X135483939Y-48913128D01*
X135483944Y-48913128D01*
X135570888Y-48894647D01*
X135664288Y-48874794D01*
X135670319Y-48872109D01*
X135832722Y-48799803D01*
X135832724Y-48799802D01*
X135838752Y-48797118D01*
X135993253Y-48684866D01*
X136121040Y-48542944D01*
X136216527Y-48377556D01*
X136275542Y-48195928D01*
X136276538Y-48186457D01*
X136294814Y-48012565D01*
X136295504Y-48006000D01*
X136286266Y-47918109D01*
X136276232Y-47822635D01*
X136276232Y-47822633D01*
X136275542Y-47816072D01*
X136216527Y-47634444D01*
X136121040Y-47469056D01*
X136112204Y-47459242D01*
X135997675Y-47332045D01*
X135997674Y-47332044D01*
X135993253Y-47327134D01*
X135838752Y-47214882D01*
X135832724Y-47212198D01*
X135832722Y-47212197D01*
X135670319Y-47139891D01*
X135670318Y-47139891D01*
X135664288Y-47137206D01*
X135570887Y-47117353D01*
X135483944Y-47098872D01*
X135483939Y-47098872D01*
X135477487Y-47097500D01*
X135286513Y-47097500D01*
X135280061Y-47098872D01*
X135280056Y-47098872D01*
X135193112Y-47117353D01*
X135099712Y-47137206D01*
X135093682Y-47139891D01*
X135093681Y-47139891D01*
X134931278Y-47212197D01*
X134931276Y-47212198D01*
X134925248Y-47214882D01*
X134770747Y-47327134D01*
X134766326Y-47332044D01*
X134766325Y-47332045D01*
X134651797Y-47459242D01*
X134642960Y-47469056D01*
X134547473Y-47634444D01*
X134488458Y-47816072D01*
X134487768Y-47822633D01*
X134487768Y-47822635D01*
X134477734Y-47918109D01*
X134468496Y-48006000D01*
X120775500Y-48006000D01*
X120775500Y-46448695D01*
X141131251Y-46448695D01*
X141131548Y-46453848D01*
X141131548Y-46453851D01*
X141137011Y-46548590D01*
X141144110Y-46671715D01*
X141145247Y-46676761D01*
X141145248Y-46676767D01*
X141165119Y-46764939D01*
X141193222Y-46889639D01*
X141277266Y-47096616D01*
X141279965Y-47101020D01*
X141352118Y-47218763D01*
X141393987Y-47287088D01*
X141540250Y-47455938D01*
X141546095Y-47460791D01*
X141548981Y-47463187D01*
X141588616Y-47522090D01*
X141590113Y-47593071D01*
X141552997Y-47653593D01*
X141512725Y-47678112D01*
X141452627Y-47700642D01*
X141397295Y-47721385D01*
X141280739Y-47808739D01*
X141193385Y-47925295D01*
X141142255Y-48061684D01*
X141135500Y-48123866D01*
X141135500Y-49920134D01*
X141142255Y-49982316D01*
X141193385Y-50118705D01*
X141280739Y-50235261D01*
X141397295Y-50322615D01*
X141533684Y-50373745D01*
X141595866Y-50380500D01*
X143392134Y-50380500D01*
X143454316Y-50373745D01*
X143590705Y-50322615D01*
X143707261Y-50235261D01*
X143794615Y-50118705D01*
X143845745Y-49982316D01*
X143852500Y-49920134D01*
X143852500Y-48123866D01*
X143845745Y-48061684D01*
X143794615Y-47925295D01*
X143707261Y-47808739D01*
X143590705Y-47721385D01*
X143563905Y-47711338D01*
X143472203Y-47676960D01*
X143415439Y-47634318D01*
X143390739Y-47567756D01*
X143405947Y-47498408D01*
X143427493Y-47469727D01*
X143455000Y-47442316D01*
X143532096Y-47365489D01*
X143591594Y-47282689D01*
X143659435Y-47188277D01*
X143662453Y-47184077D01*
X143761430Y-46983811D01*
X143826370Y-46770069D01*
X143855529Y-46548590D01*
X143857156Y-46482000D01*
X143838852Y-46259361D01*
X143784431Y-46042702D01*
X143695354Y-45837840D01*
X143574014Y-45650277D01*
X143423670Y-45485051D01*
X143419619Y-45481852D01*
X143419615Y-45481848D01*
X143252414Y-45349800D01*
X143252410Y-45349798D01*
X143248359Y-45346598D01*
X143052789Y-45238638D01*
X143047920Y-45236914D01*
X143047916Y-45236912D01*
X142847087Y-45165795D01*
X142847083Y-45165794D01*
X142842212Y-45164069D01*
X142837119Y-45163162D01*
X142837116Y-45163161D01*
X142627373Y-45125800D01*
X142627367Y-45125799D01*
X142622284Y-45124894D01*
X142548452Y-45123992D01*
X142404081Y-45122228D01*
X142404079Y-45122228D01*
X142398911Y-45122165D01*
X142178091Y-45155955D01*
X141965756Y-45225357D01*
X141767607Y-45328507D01*
X141763474Y-45331610D01*
X141763471Y-45331612D01*
X141593100Y-45459530D01*
X141588965Y-45462635D01*
X141549525Y-45503907D01*
X141495280Y-45560671D01*
X141434629Y-45624138D01*
X141308743Y-45808680D01*
X141214688Y-46011305D01*
X141154989Y-46226570D01*
X141131251Y-46448695D01*
X120775500Y-46448695D01*
X120775500Y-45222427D01*
X120795502Y-45154306D01*
X120836618Y-45114550D01*
X120839994Y-45112896D01*
X121021860Y-44983173D01*
X121180096Y-44825489D01*
X121310453Y-44644077D01*
X121311776Y-44645028D01*
X121358645Y-44601857D01*
X121428580Y-44589625D01*
X121494026Y-44617144D01*
X121521875Y-44648994D01*
X121581987Y-44747088D01*
X121728250Y-44915938D01*
X121900126Y-45058632D01*
X122093000Y-45171338D01*
X122301692Y-45251030D01*
X122306760Y-45252061D01*
X122306763Y-45252062D01*
X122388734Y-45268739D01*
X122520597Y-45295567D01*
X122525772Y-45295757D01*
X122525774Y-45295757D01*
X122738673Y-45303564D01*
X122738677Y-45303564D01*
X122743837Y-45303753D01*
X122748957Y-45303097D01*
X122748959Y-45303097D01*
X122960288Y-45276025D01*
X122960289Y-45276025D01*
X122965416Y-45275368D01*
X122970366Y-45273883D01*
X123174429Y-45212661D01*
X123174434Y-45212659D01*
X123179384Y-45211174D01*
X123379994Y-45112896D01*
X123561860Y-44983173D01*
X123720096Y-44825489D01*
X123850453Y-44644077D01*
X123851776Y-44645028D01*
X123898645Y-44601857D01*
X123968580Y-44589625D01*
X124034026Y-44617144D01*
X124061875Y-44648994D01*
X124121987Y-44747088D01*
X124268250Y-44915938D01*
X124440126Y-45058632D01*
X124633000Y-45171338D01*
X124841692Y-45251030D01*
X124846760Y-45252061D01*
X124846763Y-45252062D01*
X124928734Y-45268739D01*
X125060597Y-45295567D01*
X125065772Y-45295757D01*
X125065774Y-45295757D01*
X125278673Y-45303564D01*
X125278677Y-45303564D01*
X125283837Y-45303753D01*
X125288957Y-45303097D01*
X125288959Y-45303097D01*
X125500288Y-45276025D01*
X125500289Y-45276025D01*
X125505416Y-45275368D01*
X125510366Y-45273883D01*
X125714429Y-45212661D01*
X125714434Y-45212659D01*
X125719384Y-45211174D01*
X125919994Y-45112896D01*
X126101860Y-44983173D01*
X126260096Y-44825489D01*
X126390453Y-44644077D01*
X126391776Y-44645028D01*
X126438645Y-44601857D01*
X126508580Y-44589625D01*
X126574026Y-44617144D01*
X126601875Y-44648994D01*
X126661987Y-44747088D01*
X126808250Y-44915938D01*
X126980126Y-45058632D01*
X127173000Y-45171338D01*
X127381692Y-45251030D01*
X127386760Y-45252061D01*
X127386763Y-45252062D01*
X127468734Y-45268739D01*
X127600597Y-45295567D01*
X127605772Y-45295757D01*
X127605774Y-45295757D01*
X127818673Y-45303564D01*
X127818677Y-45303564D01*
X127823837Y-45303753D01*
X127828957Y-45303097D01*
X127828959Y-45303097D01*
X128040288Y-45276025D01*
X128040289Y-45276025D01*
X128045416Y-45275368D01*
X128050366Y-45273883D01*
X128254429Y-45212661D01*
X128254434Y-45212659D01*
X128259384Y-45211174D01*
X128459994Y-45112896D01*
X128641860Y-44983173D01*
X128800096Y-44825489D01*
X128930453Y-44644077D01*
X128931776Y-44645028D01*
X128978645Y-44601857D01*
X129048580Y-44589625D01*
X129114026Y-44617144D01*
X129141875Y-44648994D01*
X129201987Y-44747088D01*
X129348250Y-44915938D01*
X129520126Y-45058632D01*
X129713000Y-45171338D01*
X129921692Y-45251030D01*
X129926760Y-45252061D01*
X129926763Y-45252062D01*
X130008734Y-45268739D01*
X130140597Y-45295567D01*
X130145772Y-45295757D01*
X130145774Y-45295757D01*
X130358673Y-45303564D01*
X130358677Y-45303564D01*
X130363837Y-45303753D01*
X130368957Y-45303097D01*
X130368959Y-45303097D01*
X130580288Y-45276025D01*
X130580289Y-45276025D01*
X130585416Y-45275368D01*
X130590366Y-45273883D01*
X130794429Y-45212661D01*
X130794434Y-45212659D01*
X130799384Y-45211174D01*
X130999994Y-45112896D01*
X131181860Y-44983173D01*
X131340096Y-44825489D01*
X131470453Y-44644077D01*
X131471776Y-44645028D01*
X131518645Y-44601857D01*
X131588580Y-44589625D01*
X131654026Y-44617144D01*
X131681875Y-44648994D01*
X131741987Y-44747088D01*
X131888250Y-44915938D01*
X132060126Y-45058632D01*
X132253000Y-45171338D01*
X132461692Y-45251030D01*
X132466760Y-45252061D01*
X132466763Y-45252062D01*
X132548734Y-45268739D01*
X132680597Y-45295567D01*
X132685772Y-45295757D01*
X132685774Y-45295757D01*
X132898673Y-45303564D01*
X132898677Y-45303564D01*
X132903837Y-45303753D01*
X132908957Y-45303097D01*
X132908959Y-45303097D01*
X133120288Y-45276025D01*
X133120289Y-45276025D01*
X133125416Y-45275368D01*
X133130366Y-45273883D01*
X133334429Y-45212661D01*
X133334434Y-45212659D01*
X133339384Y-45211174D01*
X133539994Y-45112896D01*
X133721860Y-44983173D01*
X133880096Y-44825489D01*
X134010453Y-44644077D01*
X134011640Y-44644930D01*
X134058960Y-44601362D01*
X134128897Y-44589145D01*
X134194338Y-44616678D01*
X134222166Y-44648511D01*
X134279694Y-44742388D01*
X134285777Y-44750699D01*
X134425213Y-44911667D01*
X134432580Y-44918883D01*
X134596434Y-45054916D01*
X134604881Y-45060831D01*
X134788756Y-45168279D01*
X134798042Y-45172729D01*
X134997001Y-45248703D01*
X135006899Y-45251579D01*
X135110250Y-45272606D01*
X135124299Y-45271410D01*
X135128000Y-45261065D01*
X135128000Y-45260517D01*
X135636000Y-45260517D01*
X135640064Y-45274359D01*
X135653478Y-45276393D01*
X135660184Y-45275534D01*
X135670262Y-45273392D01*
X135874255Y-45212191D01*
X135883842Y-45208433D01*
X136075095Y-45114739D01*
X136083945Y-45109464D01*
X136257328Y-44985792D01*
X136265200Y-44979139D01*
X136416052Y-44828812D01*
X136422730Y-44820965D01*
X136547003Y-44648020D01*
X136552313Y-44639183D01*
X136646670Y-44448267D01*
X136650469Y-44438672D01*
X136712377Y-44234910D01*
X136714555Y-44224837D01*
X136715986Y-44213962D01*
X136713775Y-44199778D01*
X136700617Y-44196000D01*
X135654115Y-44196000D01*
X135638876Y-44200475D01*
X135637671Y-44201865D01*
X135636000Y-44209548D01*
X135636000Y-45260517D01*
X135128000Y-45260517D01*
X135128000Y-43669885D01*
X135636000Y-43669885D01*
X135640475Y-43685124D01*
X135641865Y-43686329D01*
X135649548Y-43688000D01*
X136700344Y-43688000D01*
X136713875Y-43684027D01*
X136715180Y-43674947D01*
X136673214Y-43507875D01*
X136669894Y-43498124D01*
X136584972Y-43302814D01*
X136580105Y-43293739D01*
X136464426Y-43114926D01*
X136458136Y-43106757D01*
X136314806Y-42949240D01*
X136307273Y-42942215D01*
X136140139Y-42810222D01*
X136131552Y-42804517D01*
X135945117Y-42701599D01*
X135935705Y-42697369D01*
X135734959Y-42626280D01*
X135724988Y-42623646D01*
X135653837Y-42610972D01*
X135640540Y-42612432D01*
X135636000Y-42626989D01*
X135636000Y-43669885D01*
X135128000Y-43669885D01*
X135128000Y-42625102D01*
X135124082Y-42611758D01*
X135109806Y-42609771D01*
X135071324Y-42615660D01*
X135061288Y-42618051D01*
X134858868Y-42684212D01*
X134849359Y-42688209D01*
X134660463Y-42786542D01*
X134651738Y-42792036D01*
X134481433Y-42919905D01*
X134473726Y-42926748D01*
X134326590Y-43080717D01*
X134320109Y-43088722D01*
X134215498Y-43242074D01*
X134160587Y-43287076D01*
X134090062Y-43295247D01*
X134026315Y-43263993D01*
X134005618Y-43239509D01*
X133924822Y-43114617D01*
X133924820Y-43114614D01*
X133922014Y-43110277D01*
X133771670Y-42945051D01*
X133767619Y-42941852D01*
X133767615Y-42941848D01*
X133600414Y-42809800D01*
X133600410Y-42809798D01*
X133596359Y-42806598D01*
X133560028Y-42786542D01*
X133544136Y-42777769D01*
X133400789Y-42698638D01*
X133395920Y-42696914D01*
X133395916Y-42696912D01*
X133195087Y-42625795D01*
X133195083Y-42625794D01*
X133190212Y-42624069D01*
X133185119Y-42623162D01*
X133185116Y-42623161D01*
X132975373Y-42585800D01*
X132975367Y-42585799D01*
X132970284Y-42584894D01*
X132896452Y-42583992D01*
X132752081Y-42582228D01*
X132752079Y-42582228D01*
X132746911Y-42582165D01*
X132526091Y-42615955D01*
X132313756Y-42685357D01*
X132115607Y-42788507D01*
X132111474Y-42791610D01*
X132111471Y-42791612D01*
X131941100Y-42919530D01*
X131936965Y-42922635D01*
X131933393Y-42926373D01*
X131825729Y-43039037D01*
X131782629Y-43084138D01*
X131675201Y-43241621D01*
X131620293Y-43286621D01*
X131549768Y-43294792D01*
X131486021Y-43263538D01*
X131465324Y-43239054D01*
X131384822Y-43114617D01*
X131384820Y-43114614D01*
X131382014Y-43110277D01*
X131231670Y-42945051D01*
X131227619Y-42941852D01*
X131227615Y-42941848D01*
X131060414Y-42809800D01*
X131060410Y-42809798D01*
X131056359Y-42806598D01*
X131020028Y-42786542D01*
X131004136Y-42777769D01*
X130860789Y-42698638D01*
X130855920Y-42696914D01*
X130855916Y-42696912D01*
X130655087Y-42625795D01*
X130655083Y-42625794D01*
X130650212Y-42624069D01*
X130645119Y-42623162D01*
X130645116Y-42623161D01*
X130435373Y-42585800D01*
X130435367Y-42585799D01*
X130430284Y-42584894D01*
X130356452Y-42583992D01*
X130212081Y-42582228D01*
X130212079Y-42582228D01*
X130206911Y-42582165D01*
X129986091Y-42615955D01*
X129773756Y-42685357D01*
X129575607Y-42788507D01*
X129571474Y-42791610D01*
X129571471Y-42791612D01*
X129401100Y-42919530D01*
X129396965Y-42922635D01*
X129393393Y-42926373D01*
X129285729Y-43039037D01*
X129242629Y-43084138D01*
X129135201Y-43241621D01*
X129080293Y-43286621D01*
X129009768Y-43294792D01*
X128946021Y-43263538D01*
X128925324Y-43239054D01*
X128844822Y-43114617D01*
X128844820Y-43114614D01*
X128842014Y-43110277D01*
X128691670Y-42945051D01*
X128687619Y-42941852D01*
X128687615Y-42941848D01*
X128520414Y-42809800D01*
X128520410Y-42809798D01*
X128516359Y-42806598D01*
X128480028Y-42786542D01*
X128464136Y-42777769D01*
X128320789Y-42698638D01*
X128315920Y-42696914D01*
X128315916Y-42696912D01*
X128115087Y-42625795D01*
X128115083Y-42625794D01*
X128110212Y-42624069D01*
X128105119Y-42623162D01*
X128105116Y-42623161D01*
X127895373Y-42585800D01*
X127895367Y-42585799D01*
X127890284Y-42584894D01*
X127816452Y-42583992D01*
X127672081Y-42582228D01*
X127672079Y-42582228D01*
X127666911Y-42582165D01*
X127446091Y-42615955D01*
X127233756Y-42685357D01*
X127035607Y-42788507D01*
X127031474Y-42791610D01*
X127031471Y-42791612D01*
X126861100Y-42919530D01*
X126856965Y-42922635D01*
X126853393Y-42926373D01*
X126745729Y-43039037D01*
X126702629Y-43084138D01*
X126595201Y-43241621D01*
X126540293Y-43286621D01*
X126469768Y-43294792D01*
X126406021Y-43263538D01*
X126385324Y-43239054D01*
X126304822Y-43114617D01*
X126304820Y-43114614D01*
X126302014Y-43110277D01*
X126151670Y-42945051D01*
X126147619Y-42941852D01*
X126147615Y-42941848D01*
X125980414Y-42809800D01*
X125980410Y-42809798D01*
X125976359Y-42806598D01*
X125940028Y-42786542D01*
X125924136Y-42777769D01*
X125780789Y-42698638D01*
X125775920Y-42696914D01*
X125775916Y-42696912D01*
X125575087Y-42625795D01*
X125575083Y-42625794D01*
X125570212Y-42624069D01*
X125565119Y-42623162D01*
X125565116Y-42623161D01*
X125355373Y-42585800D01*
X125355367Y-42585799D01*
X125350284Y-42584894D01*
X125276452Y-42583992D01*
X125132081Y-42582228D01*
X125132079Y-42582228D01*
X125126911Y-42582165D01*
X124906091Y-42615955D01*
X124693756Y-42685357D01*
X124495607Y-42788507D01*
X124491474Y-42791610D01*
X124491471Y-42791612D01*
X124321100Y-42919530D01*
X124316965Y-42922635D01*
X124313393Y-42926373D01*
X124205729Y-43039037D01*
X124162629Y-43084138D01*
X124055201Y-43241621D01*
X124000293Y-43286621D01*
X123929768Y-43294792D01*
X123866021Y-43263538D01*
X123845324Y-43239054D01*
X123764822Y-43114617D01*
X123764820Y-43114614D01*
X123762014Y-43110277D01*
X123611670Y-42945051D01*
X123607619Y-42941852D01*
X123607615Y-42941848D01*
X123440414Y-42809800D01*
X123440410Y-42809798D01*
X123436359Y-42806598D01*
X123400028Y-42786542D01*
X123384136Y-42777769D01*
X123240789Y-42698638D01*
X123235920Y-42696914D01*
X123235916Y-42696912D01*
X123035087Y-42625795D01*
X123035083Y-42625794D01*
X123030212Y-42624069D01*
X123025119Y-42623162D01*
X123025116Y-42623161D01*
X122815373Y-42585800D01*
X122815367Y-42585799D01*
X122810284Y-42584894D01*
X122736452Y-42583992D01*
X122592081Y-42582228D01*
X122592079Y-42582228D01*
X122586911Y-42582165D01*
X122366091Y-42615955D01*
X122153756Y-42685357D01*
X121955607Y-42788507D01*
X121951474Y-42791610D01*
X121951471Y-42791612D01*
X121781100Y-42919530D01*
X121776965Y-42922635D01*
X121773393Y-42926373D01*
X121665729Y-43039037D01*
X121622629Y-43084138D01*
X121515201Y-43241621D01*
X121460293Y-43286621D01*
X121389768Y-43294792D01*
X121326021Y-43263538D01*
X121305324Y-43239054D01*
X121224822Y-43114617D01*
X121224820Y-43114614D01*
X121222014Y-43110277D01*
X121071670Y-42945051D01*
X121067619Y-42941852D01*
X121067615Y-42941848D01*
X120900414Y-42809800D01*
X120900410Y-42809798D01*
X120896359Y-42806598D01*
X120860028Y-42786542D01*
X120844136Y-42777769D01*
X120700789Y-42698638D01*
X120695920Y-42696914D01*
X120695916Y-42696912D01*
X120495087Y-42625795D01*
X120495083Y-42625794D01*
X120490212Y-42624069D01*
X120485119Y-42623162D01*
X120485116Y-42623161D01*
X120275373Y-42585800D01*
X120275367Y-42585799D01*
X120270284Y-42584894D01*
X120196452Y-42583992D01*
X120052081Y-42582228D01*
X120052079Y-42582228D01*
X120046911Y-42582165D01*
X119826091Y-42615955D01*
X119613756Y-42685357D01*
X119415607Y-42788507D01*
X119411474Y-42791610D01*
X119411471Y-42791612D01*
X119241100Y-42919530D01*
X119236965Y-42922635D01*
X119180537Y-42981684D01*
X119156283Y-43007064D01*
X119094759Y-43042494D01*
X119023846Y-43039037D01*
X118966060Y-42997791D01*
X118947207Y-42964243D01*
X118905767Y-42853703D01*
X118902615Y-42845295D01*
X118815261Y-42728739D01*
X118698705Y-42641385D01*
X118562316Y-42590255D01*
X118500134Y-42583500D01*
X116703866Y-42583500D01*
X116641684Y-42590255D01*
X116505295Y-42641385D01*
X116388739Y-42728739D01*
X116301385Y-42845295D01*
X116250255Y-42981684D01*
X116243500Y-43043866D01*
X116243500Y-44840134D01*
X97790000Y-44840134D01*
X97790000Y-42417000D01*
X97810002Y-42348879D01*
X97863658Y-42302386D01*
X97916000Y-42291000D01*
X145924000Y-42291000D01*
X145992121Y-42311002D01*
G37*
%TD.AperFunction*%
%TD*%
M02*
