M48
; DRILL file {KiCad (6.0.0)} date Mon Jan 10 21:54:45 2022
; FORMAT={-:-/ absolute / inch / decimal}
; #@! TF.CreationDate,2022-01-10T21:54:45-05:00
; #@! TF.GenerationSoftware,Kicad,Pcbnew,(6.0.0)
; #@! TF.FileFunction,MixedPlating,1,4
FMAT,2
INCH
; #@! TA.AperFunction,Plated,PTH,ViaDrill
T1C0.0157
; #@! TA.AperFunction,Plated,PTH,ComponentDrill
T2C0.0394
%
G90
G05
T1
X4.35Y-2.47
X4.38Y-2.47
X4.39Y-2.28
X4.41Y-2.38
X4.41Y-2.47
X4.42Y-2.28
X4.4202Y-2.1502
X4.45Y-2.28
X4.48Y-1.86
X4.4971Y-2.0787
X4.53Y-2.34
X4.59Y-2.2523
X4.6Y-2.13
X4.66Y-2.17
X4.72Y-2.01
X4.72Y-2.05
X4.72Y-2.13
X4.7205Y-1.9505
X4.83Y-1.965
X4.83Y-2.01
X4.83Y-2.07
X4.85Y-2.29
X4.9382Y-1.97
X4.97Y-2.11
X4.97Y-2.33
X5.03Y-2.22
X5.07Y-2.07
X5.1566Y-2.2344
X5.23Y-1.975
X5.2302Y-2.3898
X5.32Y-2.345
X5.3295Y-2.1005
X5.33Y-1.89
X5.37Y-2.45
X5.4Y-2.24
T2
X3.99Y-1.83
X3.99Y-1.93
X3.99Y-2.03
X3.99Y-2.13
X3.99Y-2.23
X3.99Y-2.33
X4.09Y-1.83
X4.09Y-1.93
X4.09Y-2.03
X4.09Y-2.13
X4.09Y-2.23
X4.09Y-2.33
X4.63Y-1.73
X4.73Y-1.73
X4.83Y-1.73
X4.93Y-1.73
X5.03Y-1.73
X5.13Y-1.73
X5.23Y-1.73
X5.33Y-1.73
X5.61Y-1.83
X5.61Y-1.93
X5.61Y-2.23
X5.61Y-2.33
T0
M30
