%TF.GenerationSoftware,KiCad,Pcbnew,(6.0.0)*%
%TF.CreationDate,2022-01-10T21:54:35-05:00*%
%TF.ProjectId,ad74111_module,61643734-3131-4315-9f6d-6f64756c652e,rev?*%
%TF.SameCoordinates,Original*%
%TF.FileFunction,Legend,Bot*%
%TF.FilePolarity,Positive*%
%FSLAX46Y46*%
G04 Gerber Fmt 4.6, Leading zero omitted, Abs format (unit mm)*
G04 Created by KiCad (PCBNEW (6.0.0)) date 2022-01-10 21:54:35*
%MOMM*%
%LPD*%
G01*
G04 APERTURE LIST*
%ADD10C,0.150000*%
%ADD11C,0.120000*%
G04 APERTURE END LIST*
D10*
%TO.C,C11*%
X117990857Y-49633142D02*
X118038476Y-49680761D01*
X118181333Y-49728380D01*
X118276571Y-49728380D01*
X118419428Y-49680761D01*
X118514666Y-49585523D01*
X118562285Y-49490285D01*
X118609904Y-49299809D01*
X118609904Y-49156952D01*
X118562285Y-48966476D01*
X118514666Y-48871238D01*
X118419428Y-48776000D01*
X118276571Y-48728380D01*
X118181333Y-48728380D01*
X118038476Y-48776000D01*
X117990857Y-48823619D01*
X117038476Y-49728380D02*
X117609904Y-49728380D01*
X117324190Y-49728380D02*
X117324190Y-48728380D01*
X117419428Y-48871238D01*
X117514666Y-48966476D01*
X117609904Y-49014095D01*
X116086095Y-49728380D02*
X116657523Y-49728380D01*
X116371809Y-49728380D02*
X116371809Y-48728380D01*
X116467047Y-48871238D01*
X116562285Y-48966476D01*
X116657523Y-49014095D01*
%TO.C,C12*%
X128150857Y-49125142D02*
X128198476Y-49172761D01*
X128341333Y-49220380D01*
X128436571Y-49220380D01*
X128579428Y-49172761D01*
X128674666Y-49077523D01*
X128722285Y-48982285D01*
X128769904Y-48791809D01*
X128769904Y-48648952D01*
X128722285Y-48458476D01*
X128674666Y-48363238D01*
X128579428Y-48268000D01*
X128436571Y-48220380D01*
X128341333Y-48220380D01*
X128198476Y-48268000D01*
X128150857Y-48315619D01*
X127198476Y-49220380D02*
X127769904Y-49220380D01*
X127484190Y-49220380D02*
X127484190Y-48220380D01*
X127579428Y-48363238D01*
X127674666Y-48458476D01*
X127769904Y-48506095D01*
X126817523Y-48315619D02*
X126769904Y-48268000D01*
X126674666Y-48220380D01*
X126436571Y-48220380D01*
X126341333Y-48268000D01*
X126293714Y-48315619D01*
X126246095Y-48410857D01*
X126246095Y-48506095D01*
X126293714Y-48648952D01*
X126865142Y-49220380D01*
X126246095Y-49220380D01*
%TO.C,U2*%
X111505904Y-49490380D02*
X111505904Y-50299904D01*
X111458285Y-50395142D01*
X111410666Y-50442761D01*
X111315428Y-50490380D01*
X111124952Y-50490380D01*
X111029714Y-50442761D01*
X110982095Y-50395142D01*
X110934476Y-50299904D01*
X110934476Y-49490380D01*
X110505904Y-49585619D02*
X110458285Y-49538000D01*
X110363047Y-49490380D01*
X110124952Y-49490380D01*
X110029714Y-49538000D01*
X109982095Y-49585619D01*
X109934476Y-49680857D01*
X109934476Y-49776095D01*
X109982095Y-49918952D01*
X110553523Y-50490380D01*
X109934476Y-50490380D01*
%TO.C,R16*%
X140723857Y-58364380D02*
X141057190Y-57888190D01*
X141295285Y-58364380D02*
X141295285Y-57364380D01*
X140914333Y-57364380D01*
X140819095Y-57412000D01*
X140771476Y-57459619D01*
X140723857Y-57554857D01*
X140723857Y-57697714D01*
X140771476Y-57792952D01*
X140819095Y-57840571D01*
X140914333Y-57888190D01*
X141295285Y-57888190D01*
X139771476Y-58364380D02*
X140342904Y-58364380D01*
X140057190Y-58364380D02*
X140057190Y-57364380D01*
X140152428Y-57507238D01*
X140247666Y-57602476D01*
X140342904Y-57650095D01*
X138914333Y-57364380D02*
X139104809Y-57364380D01*
X139200047Y-57412000D01*
X139247666Y-57459619D01*
X139342904Y-57602476D01*
X139390523Y-57792952D01*
X139390523Y-58173904D01*
X139342904Y-58269142D01*
X139295285Y-58316761D01*
X139200047Y-58364380D01*
X139009571Y-58364380D01*
X138914333Y-58316761D01*
X138866714Y-58269142D01*
X138819095Y-58173904D01*
X138819095Y-57935809D01*
X138866714Y-57840571D01*
X138914333Y-57792952D01*
X139009571Y-57745333D01*
X139200047Y-57745333D01*
X139295285Y-57792952D01*
X139342904Y-57840571D01*
X139390523Y-57935809D01*
%TO.C,FB3*%
X114117333Y-51236571D02*
X114450666Y-51236571D01*
X114450666Y-51760380D02*
X114450666Y-50760380D01*
X113974476Y-50760380D01*
X113260190Y-51236571D02*
X113117333Y-51284190D01*
X113069714Y-51331809D01*
X113022095Y-51427047D01*
X113022095Y-51569904D01*
X113069714Y-51665142D01*
X113117333Y-51712761D01*
X113212571Y-51760380D01*
X113593523Y-51760380D01*
X113593523Y-50760380D01*
X113260190Y-50760380D01*
X113164952Y-50808000D01*
X113117333Y-50855619D01*
X113069714Y-50950857D01*
X113069714Y-51046095D01*
X113117333Y-51141333D01*
X113164952Y-51188952D01*
X113260190Y-51236571D01*
X113593523Y-51236571D01*
X112688761Y-50760380D02*
X112069714Y-50760380D01*
X112403047Y-51141333D01*
X112260190Y-51141333D01*
X112164952Y-51188952D01*
X112117333Y-51236571D01*
X112069714Y-51331809D01*
X112069714Y-51569904D01*
X112117333Y-51665142D01*
X112164952Y-51712761D01*
X112260190Y-51760380D01*
X112545904Y-51760380D01*
X112641142Y-51712761D01*
X112688761Y-51665142D01*
%TO.C,C14*%
X131071857Y-56364142D02*
X131119476Y-56411761D01*
X131262333Y-56459380D01*
X131357571Y-56459380D01*
X131500428Y-56411761D01*
X131595666Y-56316523D01*
X131643285Y-56221285D01*
X131690904Y-56030809D01*
X131690904Y-55887952D01*
X131643285Y-55697476D01*
X131595666Y-55602238D01*
X131500428Y-55507000D01*
X131357571Y-55459380D01*
X131262333Y-55459380D01*
X131119476Y-55507000D01*
X131071857Y-55554619D01*
X130119476Y-56459380D02*
X130690904Y-56459380D01*
X130405190Y-56459380D02*
X130405190Y-55459380D01*
X130500428Y-55602238D01*
X130595666Y-55697476D01*
X130690904Y-55745095D01*
X129262333Y-55792714D02*
X129262333Y-56459380D01*
X129500428Y-55411761D02*
X129738523Y-56126047D01*
X129119476Y-56126047D01*
%TO.C,R15*%
X131071857Y-58364380D02*
X131405190Y-57888190D01*
X131643285Y-58364380D02*
X131643285Y-57364380D01*
X131262333Y-57364380D01*
X131167095Y-57412000D01*
X131119476Y-57459619D01*
X131071857Y-57554857D01*
X131071857Y-57697714D01*
X131119476Y-57792952D01*
X131167095Y-57840571D01*
X131262333Y-57888190D01*
X131643285Y-57888190D01*
X130119476Y-58364380D02*
X130690904Y-58364380D01*
X130405190Y-58364380D02*
X130405190Y-57364380D01*
X130500428Y-57507238D01*
X130595666Y-57602476D01*
X130690904Y-57650095D01*
X129214714Y-57364380D02*
X129690904Y-57364380D01*
X129738523Y-57840571D01*
X129690904Y-57792952D01*
X129595666Y-57745333D01*
X129357571Y-57745333D01*
X129262333Y-57792952D01*
X129214714Y-57840571D01*
X129167095Y-57935809D01*
X129167095Y-58173904D01*
X129214714Y-58269142D01*
X129262333Y-58316761D01*
X129357571Y-58364380D01*
X129595666Y-58364380D01*
X129690904Y-58316761D01*
X129738523Y-58269142D01*
%TO.C,C9*%
X120562666Y-57253142D02*
X120610285Y-57300761D01*
X120753142Y-57348380D01*
X120848380Y-57348380D01*
X120991238Y-57300761D01*
X121086476Y-57205523D01*
X121134095Y-57110285D01*
X121181714Y-56919809D01*
X121181714Y-56776952D01*
X121134095Y-56586476D01*
X121086476Y-56491238D01*
X120991238Y-56396000D01*
X120848380Y-56348380D01*
X120753142Y-56348380D01*
X120610285Y-56396000D01*
X120562666Y-56443619D01*
X120086476Y-57348380D02*
X119896000Y-57348380D01*
X119800761Y-57300761D01*
X119753142Y-57253142D01*
X119657904Y-57110285D01*
X119610285Y-56919809D01*
X119610285Y-56538857D01*
X119657904Y-56443619D01*
X119705523Y-56396000D01*
X119800761Y-56348380D01*
X119991238Y-56348380D01*
X120086476Y-56396000D01*
X120134095Y-56443619D01*
X120181714Y-56538857D01*
X120181714Y-56776952D01*
X120134095Y-56872190D01*
X120086476Y-56919809D01*
X119991238Y-56967428D01*
X119800761Y-56967428D01*
X119705523Y-56919809D01*
X119657904Y-56872190D01*
X119610285Y-56776952D01*
%TO.C,U4*%
X111505904Y-57618380D02*
X111505904Y-58427904D01*
X111458285Y-58523142D01*
X111410666Y-58570761D01*
X111315428Y-58618380D01*
X111124952Y-58618380D01*
X111029714Y-58570761D01*
X110982095Y-58523142D01*
X110934476Y-58427904D01*
X110934476Y-57618380D01*
X110029714Y-57951714D02*
X110029714Y-58618380D01*
X110267809Y-57570761D02*
X110505904Y-58285047D01*
X109886857Y-58285047D01*
%TO.C,C10*%
X110370857Y-53697142D02*
X110418476Y-53744761D01*
X110561333Y-53792380D01*
X110656571Y-53792380D01*
X110799428Y-53744761D01*
X110894666Y-53649523D01*
X110942285Y-53554285D01*
X110989904Y-53363809D01*
X110989904Y-53220952D01*
X110942285Y-53030476D01*
X110894666Y-52935238D01*
X110799428Y-52840000D01*
X110656571Y-52792380D01*
X110561333Y-52792380D01*
X110418476Y-52840000D01*
X110370857Y-52887619D01*
X109418476Y-53792380D02*
X109989904Y-53792380D01*
X109704190Y-53792380D02*
X109704190Y-52792380D01*
X109799428Y-52935238D01*
X109894666Y-53030476D01*
X109989904Y-53078095D01*
X108799428Y-52792380D02*
X108704190Y-52792380D01*
X108608952Y-52840000D01*
X108561333Y-52887619D01*
X108513714Y-52982857D01*
X108466095Y-53173333D01*
X108466095Y-53411428D01*
X108513714Y-53601904D01*
X108561333Y-53697142D01*
X108608952Y-53744761D01*
X108704190Y-53792380D01*
X108799428Y-53792380D01*
X108894666Y-53744761D01*
X108942285Y-53697142D01*
X108989904Y-53601904D01*
X109037523Y-53411428D01*
X109037523Y-53173333D01*
X108989904Y-52982857D01*
X108942285Y-52887619D01*
X108894666Y-52840000D01*
X108799428Y-52792380D01*
%TO.C,C18*%
X131071857Y-54586142D02*
X131119476Y-54633761D01*
X131262333Y-54681380D01*
X131357571Y-54681380D01*
X131500428Y-54633761D01*
X131595666Y-54538523D01*
X131643285Y-54443285D01*
X131690904Y-54252809D01*
X131690904Y-54109952D01*
X131643285Y-53919476D01*
X131595666Y-53824238D01*
X131500428Y-53729000D01*
X131357571Y-53681380D01*
X131262333Y-53681380D01*
X131119476Y-53729000D01*
X131071857Y-53776619D01*
X130119476Y-54681380D02*
X130690904Y-54681380D01*
X130405190Y-54681380D02*
X130405190Y-53681380D01*
X130500428Y-53824238D01*
X130595666Y-53919476D01*
X130690904Y-53967095D01*
X129548047Y-54109952D02*
X129643285Y-54062333D01*
X129690904Y-54014714D01*
X129738523Y-53919476D01*
X129738523Y-53871857D01*
X129690904Y-53776619D01*
X129643285Y-53729000D01*
X129548047Y-53681380D01*
X129357571Y-53681380D01*
X129262333Y-53729000D01*
X129214714Y-53776619D01*
X129167095Y-53871857D01*
X129167095Y-53919476D01*
X129214714Y-54014714D01*
X129262333Y-54062333D01*
X129357571Y-54109952D01*
X129548047Y-54109952D01*
X129643285Y-54157571D01*
X129690904Y-54205190D01*
X129738523Y-54300428D01*
X129738523Y-54490904D01*
X129690904Y-54586142D01*
X129643285Y-54633761D01*
X129548047Y-54681380D01*
X129357571Y-54681380D01*
X129262333Y-54633761D01*
X129214714Y-54586142D01*
X129167095Y-54490904D01*
X129167095Y-54300428D01*
X129214714Y-54205190D01*
X129262333Y-54157571D01*
X129357571Y-54109952D01*
%TO.C,C15*%
X108084857Y-59285142D02*
X108132476Y-59332761D01*
X108275333Y-59380380D01*
X108370571Y-59380380D01*
X108513428Y-59332761D01*
X108608666Y-59237523D01*
X108656285Y-59142285D01*
X108703904Y-58951809D01*
X108703904Y-58808952D01*
X108656285Y-58618476D01*
X108608666Y-58523238D01*
X108513428Y-58428000D01*
X108370571Y-58380380D01*
X108275333Y-58380380D01*
X108132476Y-58428000D01*
X108084857Y-58475619D01*
X107132476Y-59380380D02*
X107703904Y-59380380D01*
X107418190Y-59380380D02*
X107418190Y-58380380D01*
X107513428Y-58523238D01*
X107608666Y-58618476D01*
X107703904Y-58666095D01*
X106227714Y-58380380D02*
X106703904Y-58380380D01*
X106751523Y-58856571D01*
X106703904Y-58808952D01*
X106608666Y-58761333D01*
X106370571Y-58761333D01*
X106275333Y-58808952D01*
X106227714Y-58856571D01*
X106180095Y-58951809D01*
X106180095Y-59189904D01*
X106227714Y-59285142D01*
X106275333Y-59332761D01*
X106370571Y-59380380D01*
X106608666Y-59380380D01*
X106703904Y-59332761D01*
X106751523Y-59285142D01*
%TO.C,C17*%
X125737857Y-58777142D02*
X125785476Y-58824761D01*
X125928333Y-58872380D01*
X126023571Y-58872380D01*
X126166428Y-58824761D01*
X126261666Y-58729523D01*
X126309285Y-58634285D01*
X126356904Y-58443809D01*
X126356904Y-58300952D01*
X126309285Y-58110476D01*
X126261666Y-58015238D01*
X126166428Y-57920000D01*
X126023571Y-57872380D01*
X125928333Y-57872380D01*
X125785476Y-57920000D01*
X125737857Y-57967619D01*
X124785476Y-58872380D02*
X125356904Y-58872380D01*
X125071190Y-58872380D02*
X125071190Y-57872380D01*
X125166428Y-58015238D01*
X125261666Y-58110476D01*
X125356904Y-58158095D01*
X124452142Y-57872380D02*
X123785476Y-57872380D01*
X124214047Y-58872380D01*
%TO.C,C8*%
X107608666Y-50649142D02*
X107656285Y-50696761D01*
X107799142Y-50744380D01*
X107894380Y-50744380D01*
X108037238Y-50696761D01*
X108132476Y-50601523D01*
X108180095Y-50506285D01*
X108227714Y-50315809D01*
X108227714Y-50172952D01*
X108180095Y-49982476D01*
X108132476Y-49887238D01*
X108037238Y-49792000D01*
X107894380Y-49744380D01*
X107799142Y-49744380D01*
X107656285Y-49792000D01*
X107608666Y-49839619D01*
X107037238Y-50172952D02*
X107132476Y-50125333D01*
X107180095Y-50077714D01*
X107227714Y-49982476D01*
X107227714Y-49934857D01*
X107180095Y-49839619D01*
X107132476Y-49792000D01*
X107037238Y-49744380D01*
X106846761Y-49744380D01*
X106751523Y-49792000D01*
X106703904Y-49839619D01*
X106656285Y-49934857D01*
X106656285Y-49982476D01*
X106703904Y-50077714D01*
X106751523Y-50125333D01*
X106846761Y-50172952D01*
X107037238Y-50172952D01*
X107132476Y-50220571D01*
X107180095Y-50268190D01*
X107227714Y-50363428D01*
X107227714Y-50553904D01*
X107180095Y-50649142D01*
X107132476Y-50696761D01*
X107037238Y-50744380D01*
X106846761Y-50744380D01*
X106751523Y-50696761D01*
X106703904Y-50649142D01*
X106656285Y-50553904D01*
X106656285Y-50363428D01*
X106703904Y-50268190D01*
X106751523Y-50220571D01*
X106846761Y-50172952D01*
%TO.C,C7*%
X113958666Y-55729142D02*
X114006285Y-55776761D01*
X114149142Y-55824380D01*
X114244380Y-55824380D01*
X114387238Y-55776761D01*
X114482476Y-55681523D01*
X114530095Y-55586285D01*
X114577714Y-55395809D01*
X114577714Y-55252952D01*
X114530095Y-55062476D01*
X114482476Y-54967238D01*
X114387238Y-54872000D01*
X114244380Y-54824380D01*
X114149142Y-54824380D01*
X114006285Y-54872000D01*
X113958666Y-54919619D01*
X113625333Y-54824380D02*
X112958666Y-54824380D01*
X113387238Y-55824380D01*
%TO.C,R4*%
X131103666Y-52903380D02*
X131437000Y-52427190D01*
X131675095Y-52903380D02*
X131675095Y-51903380D01*
X131294142Y-51903380D01*
X131198904Y-51951000D01*
X131151285Y-51998619D01*
X131103666Y-52093857D01*
X131103666Y-52236714D01*
X131151285Y-52331952D01*
X131198904Y-52379571D01*
X131294142Y-52427190D01*
X131675095Y-52427190D01*
X130246523Y-52236714D02*
X130246523Y-52903380D01*
X130484619Y-51855761D02*
X130722714Y-52570047D01*
X130103666Y-52570047D01*
%TO.C,C20*%
X131071857Y-59920142D02*
X131119476Y-59967761D01*
X131262333Y-60015380D01*
X131357571Y-60015380D01*
X131500428Y-59967761D01*
X131595666Y-59872523D01*
X131643285Y-59777285D01*
X131690904Y-59586809D01*
X131690904Y-59443952D01*
X131643285Y-59253476D01*
X131595666Y-59158238D01*
X131500428Y-59063000D01*
X131357571Y-59015380D01*
X131262333Y-59015380D01*
X131119476Y-59063000D01*
X131071857Y-59110619D01*
X130690904Y-59110619D02*
X130643285Y-59063000D01*
X130548047Y-59015380D01*
X130309952Y-59015380D01*
X130214714Y-59063000D01*
X130167095Y-59110619D01*
X130119476Y-59205857D01*
X130119476Y-59301095D01*
X130167095Y-59443952D01*
X130738523Y-60015380D01*
X130119476Y-60015380D01*
X129500428Y-59015380D02*
X129405190Y-59015380D01*
X129309952Y-59063000D01*
X129262333Y-59110619D01*
X129214714Y-59205857D01*
X129167095Y-59396333D01*
X129167095Y-59634428D01*
X129214714Y-59824904D01*
X129262333Y-59920142D01*
X129309952Y-59967761D01*
X129405190Y-60015380D01*
X129500428Y-60015380D01*
X129595666Y-59967761D01*
X129643285Y-59920142D01*
X129690904Y-59824904D01*
X129738523Y-59634428D01*
X129738523Y-59396333D01*
X129690904Y-59205857D01*
X129643285Y-59110619D01*
X129595666Y-59063000D01*
X129500428Y-59015380D01*
%TO.C,C13*%
X128150857Y-53951142D02*
X128198476Y-53998761D01*
X128341333Y-54046380D01*
X128436571Y-54046380D01*
X128579428Y-53998761D01*
X128674666Y-53903523D01*
X128722285Y-53808285D01*
X128769904Y-53617809D01*
X128769904Y-53474952D01*
X128722285Y-53284476D01*
X128674666Y-53189238D01*
X128579428Y-53094000D01*
X128436571Y-53046380D01*
X128341333Y-53046380D01*
X128198476Y-53094000D01*
X128150857Y-53141619D01*
X127198476Y-54046380D02*
X127769904Y-54046380D01*
X127484190Y-54046380D02*
X127484190Y-53046380D01*
X127579428Y-53189238D01*
X127674666Y-53284476D01*
X127769904Y-53332095D01*
X126865142Y-53046380D02*
X126246095Y-53046380D01*
X126579428Y-53427333D01*
X126436571Y-53427333D01*
X126341333Y-53474952D01*
X126293714Y-53522571D01*
X126246095Y-53617809D01*
X126246095Y-53855904D01*
X126293714Y-53951142D01*
X126341333Y-53998761D01*
X126436571Y-54046380D01*
X126722285Y-54046380D01*
X126817523Y-53998761D01*
X126865142Y-53951142D01*
%TO.C,C19*%
X115196857Y-59285142D02*
X115244476Y-59332761D01*
X115387333Y-59380380D01*
X115482571Y-59380380D01*
X115625428Y-59332761D01*
X115720666Y-59237523D01*
X115768285Y-59142285D01*
X115815904Y-58951809D01*
X115815904Y-58808952D01*
X115768285Y-58618476D01*
X115720666Y-58523238D01*
X115625428Y-58428000D01*
X115482571Y-58380380D01*
X115387333Y-58380380D01*
X115244476Y-58428000D01*
X115196857Y-58475619D01*
X114244476Y-59380380D02*
X114815904Y-59380380D01*
X114530190Y-59380380D02*
X114530190Y-58380380D01*
X114625428Y-58523238D01*
X114720666Y-58618476D01*
X114815904Y-58666095D01*
X113768285Y-59380380D02*
X113577809Y-59380380D01*
X113482571Y-59332761D01*
X113434952Y-59285142D01*
X113339714Y-59142285D01*
X113292095Y-58951809D01*
X113292095Y-58570857D01*
X113339714Y-58475619D01*
X113387333Y-58428000D01*
X113482571Y-58380380D01*
X113673047Y-58380380D01*
X113768285Y-58428000D01*
X113815904Y-58475619D01*
X113863523Y-58570857D01*
X113863523Y-58808952D01*
X113815904Y-58904190D01*
X113768285Y-58951809D01*
X113673047Y-58999428D01*
X113482571Y-58999428D01*
X113387333Y-58951809D01*
X113339714Y-58904190D01*
X113292095Y-58808952D01*
%TO.C,C16*%
X128150857Y-51538142D02*
X128198476Y-51585761D01*
X128341333Y-51633380D01*
X128436571Y-51633380D01*
X128579428Y-51585761D01*
X128674666Y-51490523D01*
X128722285Y-51395285D01*
X128769904Y-51204809D01*
X128769904Y-51061952D01*
X128722285Y-50871476D01*
X128674666Y-50776238D01*
X128579428Y-50681000D01*
X128436571Y-50633380D01*
X128341333Y-50633380D01*
X128198476Y-50681000D01*
X128150857Y-50728619D01*
X127198476Y-51633380D02*
X127769904Y-51633380D01*
X127484190Y-51633380D02*
X127484190Y-50633380D01*
X127579428Y-50776238D01*
X127674666Y-50871476D01*
X127769904Y-50919095D01*
X126341333Y-50633380D02*
X126531809Y-50633380D01*
X126627047Y-50681000D01*
X126674666Y-50728619D01*
X126769904Y-50871476D01*
X126817523Y-51061952D01*
X126817523Y-51442904D01*
X126769904Y-51538142D01*
X126722285Y-51585761D01*
X126627047Y-51633380D01*
X126436571Y-51633380D01*
X126341333Y-51585761D01*
X126293714Y-51538142D01*
X126246095Y-51442904D01*
X126246095Y-51204809D01*
X126293714Y-51109571D01*
X126341333Y-51061952D01*
X126436571Y-51014333D01*
X126627047Y-51014333D01*
X126722285Y-51061952D01*
X126769904Y-51109571D01*
X126817523Y-51204809D01*
%TO.C,FB4*%
X118689333Y-58856571D02*
X119022666Y-58856571D01*
X119022666Y-59380380D02*
X119022666Y-58380380D01*
X118546476Y-58380380D01*
X117832190Y-58856571D02*
X117689333Y-58904190D01*
X117641714Y-58951809D01*
X117594095Y-59047047D01*
X117594095Y-59189904D01*
X117641714Y-59285142D01*
X117689333Y-59332761D01*
X117784571Y-59380380D01*
X118165523Y-59380380D01*
X118165523Y-58380380D01*
X117832190Y-58380380D01*
X117736952Y-58428000D01*
X117689333Y-58475619D01*
X117641714Y-58570857D01*
X117641714Y-58666095D01*
X117689333Y-58761333D01*
X117736952Y-58808952D01*
X117832190Y-58856571D01*
X118165523Y-58856571D01*
X116736952Y-58713714D02*
X116736952Y-59380380D01*
X116975047Y-58332761D02*
X117213142Y-59047047D01*
X116594095Y-59047047D01*
D11*
%TO.C,C11*%
X115812000Y-49506000D02*
X115812000Y-46506000D01*
X115812000Y-46506000D02*
X114312000Y-46506000D01*
X114312000Y-49506000D02*
X115812000Y-49506000D01*
X114312000Y-46506000D02*
X114312000Y-49506000D01*
%TO.C,C12*%
X125960000Y-49518000D02*
X125960000Y-48018000D01*
X125960000Y-48018000D02*
X122960000Y-48018000D01*
X122960000Y-48018000D02*
X122960000Y-49518000D01*
X122960000Y-49518000D02*
X125960000Y-49518000D01*
%TO.C,U2*%
X111252000Y-45684000D02*
X112052000Y-45684000D01*
X111252000Y-45684000D02*
X110452000Y-45684000D01*
X111252000Y-48804000D02*
X112052000Y-48804000D01*
X111252000Y-48804000D02*
X109452000Y-48804000D01*
%TO.C,R16*%
X135533000Y-57035000D02*
X135533000Y-58535000D01*
X135533000Y-58535000D02*
X138533000Y-58535000D01*
X138533000Y-57035000D02*
X135533000Y-57035000D01*
X138533000Y-58535000D02*
X138533000Y-57035000D01*
%TO.C,FB3*%
X114832000Y-52058000D02*
X117832000Y-52058000D01*
X117832000Y-50558000D02*
X114832000Y-50558000D01*
X117832000Y-52058000D02*
X117832000Y-50558000D01*
X114832000Y-50558000D02*
X114832000Y-52058000D01*
%TO.C,C14*%
X134977000Y-55257000D02*
X131977000Y-55257000D01*
X134977000Y-56757000D02*
X134977000Y-55257000D01*
X131977000Y-55257000D02*
X131977000Y-56757000D01*
X131977000Y-56757000D02*
X134977000Y-56757000D01*
%TO.C,R15*%
X131977000Y-58535000D02*
X134977000Y-58535000D01*
X134977000Y-57035000D02*
X131977000Y-57035000D01*
X131977000Y-57035000D02*
X131977000Y-58535000D01*
X134977000Y-58535000D02*
X134977000Y-57035000D01*
%TO.C,C9*%
X118896000Y-54622000D02*
X118896000Y-56122000D01*
X121896000Y-56122000D02*
X121896000Y-54622000D01*
X118896000Y-56122000D02*
X121896000Y-56122000D01*
X121896000Y-54622000D02*
X118896000Y-54622000D01*
%TO.C,U4*%
X111252000Y-58892000D02*
X112052000Y-58892000D01*
X111252000Y-62012000D02*
X112052000Y-62012000D01*
X111252000Y-62012000D02*
X109452000Y-62012000D01*
X111252000Y-58892000D02*
X110452000Y-58892000D01*
%TO.C,C10*%
X114276000Y-54090000D02*
X114276000Y-52590000D01*
X111276000Y-52590000D02*
X111276000Y-54090000D01*
X114276000Y-52590000D02*
X111276000Y-52590000D01*
X111276000Y-54090000D02*
X114276000Y-54090000D01*
%TO.C,C18*%
X131977000Y-53479000D02*
X131977000Y-54979000D01*
X131977000Y-54979000D02*
X134977000Y-54979000D01*
X134977000Y-53479000D02*
X131977000Y-53479000D01*
X134977000Y-54979000D02*
X134977000Y-53479000D01*
%TO.C,C15*%
X106692000Y-62714000D02*
X108192000Y-62714000D01*
X108192000Y-59714000D02*
X106692000Y-59714000D01*
X106692000Y-59714000D02*
X106692000Y-62714000D01*
X108192000Y-62714000D02*
X108192000Y-59714000D01*
%TO.C,C17*%
X122936000Y-57531000D02*
X127508000Y-57531000D01*
X127508000Y-57531000D02*
X127508000Y-55245000D01*
X127508000Y-55245000D02*
X122936000Y-55245000D01*
X122936000Y-55245000D02*
X122936000Y-57531000D01*
%TO.C,C8*%
X106692000Y-46506000D02*
X106692000Y-49506000D01*
X106692000Y-49506000D02*
X108192000Y-49506000D01*
X108192000Y-46506000D02*
X106692000Y-46506000D01*
X108192000Y-49506000D02*
X108192000Y-46506000D01*
%TO.C,C7*%
X117832000Y-54622000D02*
X114832000Y-54622000D01*
X117832000Y-56122000D02*
X117832000Y-54622000D01*
X114832000Y-54622000D02*
X114832000Y-56122000D01*
X114832000Y-56122000D02*
X117832000Y-56122000D01*
%TO.C,R4*%
X131977000Y-51701000D02*
X131977000Y-53201000D01*
X134977000Y-51701000D02*
X131977000Y-51701000D01*
X134977000Y-53201000D02*
X134977000Y-51701000D01*
X131977000Y-53201000D02*
X134977000Y-53201000D01*
%TO.C,C20*%
X134977000Y-60313000D02*
X134977000Y-58813000D01*
X131977000Y-60313000D02*
X134977000Y-60313000D01*
X131977000Y-58813000D02*
X131977000Y-60313000D01*
X134977000Y-58813000D02*
X131977000Y-58813000D01*
%TO.C,C13*%
X125960000Y-52844000D02*
X122960000Y-52844000D01*
X122960000Y-54344000D02*
X125960000Y-54344000D01*
X125960000Y-54344000D02*
X125960000Y-52844000D01*
X122960000Y-52844000D02*
X122960000Y-54344000D01*
%TO.C,C19*%
X115812000Y-62714000D02*
X115812000Y-59714000D01*
X114312000Y-62714000D02*
X115812000Y-62714000D01*
X115812000Y-59714000D02*
X114312000Y-59714000D01*
X114312000Y-59714000D02*
X114312000Y-62714000D01*
%TO.C,C16*%
X122960000Y-50431000D02*
X122960000Y-51931000D01*
X122960000Y-51931000D02*
X125960000Y-51931000D01*
X125960000Y-50431000D02*
X122960000Y-50431000D01*
X125960000Y-51931000D02*
X125960000Y-50431000D01*
%TO.C,FB4*%
X118352000Y-62714000D02*
X118352000Y-59714000D01*
X116852000Y-59714000D02*
X116852000Y-62714000D01*
X118352000Y-59714000D02*
X116852000Y-59714000D01*
X116852000Y-62714000D02*
X118352000Y-62714000D01*
%TD*%
M02*
